<svg width="150" height="38" viewBox="0 0 150 38" fill="none" xmlns="http://www.w3.org/2000/svg">
<path d="M15.15 29.956C13.1233 29.956 11.2487 29.5887 9.526 28.854C7.80333 28.1193 6.296 27.0933 5.004 25.776C3.712 24.4587 2.69867 22.9133 1.964 21.14C1.25467 19.3667 0.9 17.4287 0.9 15.326C0.9 13.2233 1.242 11.2853 1.926 9.512C2.63533 7.71333 3.62333 6.168 4.89 4.876C6.182 3.55867 7.68933 2.54533 9.412 1.836C11.1347 1.10133 13.0093 0.733999 15.036 0.733999C17.0627 0.733999 18.874 1.076 20.47 1.76C22.0913 2.444 23.4593 3.356 24.574 4.496C25.6887 5.61067 26.4867 6.83933 26.968 8.182L22.37 10.386C21.838 8.91667 20.9387 7.726 19.672 6.814C18.4053 5.902 16.86 5.446 15.036 5.446C13.2627 5.446 11.692 5.864 10.324 6.7C8.98133 7.536 7.93 8.68867 7.17 10.158C6.43533 11.6273 6.068 13.35 6.068 15.326C6.068 17.302 6.448 19.0373 7.208 20.532C7.99333 22.0013 9.07 23.154 10.438 23.99C11.806 24.826 13.3767 25.244 15.15 25.244C16.594 25.244 17.924 24.9653 19.14 24.408C20.356 23.8253 21.3313 23.0147 22.066 21.976C22.8007 20.912 23.168 19.658 23.168 18.214V16.048L25.524 18.1H15.036V13.73H28.336V16.58C28.336 18.7587 27.9687 20.684 27.234 22.356C26.4993 24.028 25.4987 25.434 24.232 26.574C22.9907 27.6887 21.5847 28.5373 20.014 29.12C18.4433 29.6773 16.822 29.956 15.15 29.956ZM32.0075 29.5V8.828H36.6815V13.426L36.3015 12.742C36.7828 11.1967 37.5301 10.12 38.5435 9.512C39.5821 8.904 40.8235 8.6 42.2675 8.6H43.4835V13.008H41.6975C40.2788 13.008 39.1388 13.4513 38.2775 14.338C37.4161 15.1993 36.9855 16.4153 36.9855 17.986V29.5H32.0075ZM56.3283 29.956C54.3017 29.956 52.4523 29.4873 50.7803 28.55C49.1337 27.6127 47.8163 26.3333 46.8283 24.712C45.8657 23.0907 45.3843 21.2413 45.3843 19.164C45.3843 17.0867 45.8657 15.2373 46.8283 13.616C47.8163 11.9947 49.1337 10.7153 50.7803 9.778C52.427 8.84066 54.2763 8.372 56.3283 8.372C58.355 8.372 60.1917 8.84066 61.8383 9.778C63.485 10.7153 64.7897 11.9947 65.7523 13.616C66.7403 15.212 67.2343 17.0613 67.2343 19.164C67.2343 21.2413 66.7403 23.0907 65.7523 24.712C64.7643 26.3333 63.447 27.6127 61.8003 28.55C60.1537 29.4873 58.3297 29.956 56.3283 29.956ZM56.3283 25.396C57.443 25.396 58.4183 25.13 59.2543 24.598C60.1157 24.066 60.787 23.3313 61.2683 22.394C61.775 21.4313 62.0283 20.3547 62.0283 19.164C62.0283 17.948 61.775 16.884 61.2683 15.972C60.787 15.0347 60.1157 14.3 59.2543 13.768C58.4183 13.2107 57.443 12.932 56.3283 12.932C55.1883 12.932 54.1877 13.2107 53.3263 13.768C52.465 14.3 51.781 15.0347 51.2743 15.972C50.793 16.884 50.5523 17.948 50.5523 19.164C50.5523 20.3547 50.793 21.4313 51.2743 22.394C51.781 23.3313 52.465 24.066 53.3263 24.598C54.1877 25.13 55.1883 25.396 56.3283 25.396ZM78.8754 29.956C76.6714 29.956 74.7461 29.4367 73.0994 28.398C71.4781 27.334 70.3634 25.9027 69.7554 24.104L73.4794 22.318C74.0114 23.4833 74.7461 24.3953 75.6834 25.054C76.6461 25.7127 77.7101 26.042 78.8754 26.042C79.7874 26.042 80.5094 25.8393 81.0414 25.434C81.5734 25.0287 81.8394 24.4967 81.8394 23.838C81.8394 23.4327 81.7254 23.1033 81.4974 22.85C81.2947 22.5713 81.0034 22.3433 80.6234 22.166C80.2687 21.9633 79.8761 21.7987 79.4454 21.672L76.0634 20.722C74.3154 20.2153 72.9854 19.4427 72.0734 18.404C71.1867 17.3653 70.7434 16.1367 70.7434 14.718C70.7434 13.4513 71.0601 12.3493 71.6934 11.412C72.3521 10.4493 73.2514 9.702 74.3914 9.17C75.5567 8.638 76.8867 8.372 78.3814 8.372C80.3321 8.372 82.0547 8.84066 83.5494 9.778C85.0441 10.7153 86.1081 12.0327 86.7414 13.73L82.9414 15.516C82.5867 14.5787 81.9914 13.8313 81.1554 13.274C80.3194 12.7167 79.3821 12.438 78.3434 12.438C77.5074 12.438 76.8487 12.628 76.3674 13.008C75.8861 13.388 75.6454 13.882 75.6454 14.49C75.6454 14.87 75.7467 15.1993 75.9494 15.478C76.1521 15.7567 76.4307 15.9847 76.7854 16.162C77.1654 16.3393 77.5961 16.504 78.0774 16.656L81.3834 17.644C83.0807 18.1507 84.3854 18.9107 85.2974 19.924C86.2347 20.9373 86.7034 22.1787 86.7034 23.648C86.7034 24.8893 86.3741 25.9913 85.7154 26.954C85.0567 27.8913 84.1447 28.626 82.9794 29.158C81.8141 29.69 80.4461 29.956 78.8754 29.956ZM90.5289 29.5V8.828H95.5069V29.5H90.5289ZM90.5289 6.51V1.19H95.5069V6.51H90.5289ZM100.103 29.5V8.828H104.777V13.426L104.397 12.742C104.878 11.1967 105.626 10.12 106.639 9.512C107.678 8.904 108.919 8.6 110.363 8.6H111.579V13.008H109.793C108.374 13.008 107.234 13.4513 106.373 14.338C105.512 15.1993 105.081 16.4153 105.081 17.986V29.5H100.103ZM116.71 29.5V13.274H113.062V8.828H116.71V8.144C116.71 6.57333 117.027 5.24333 117.66 4.154C118.319 3.03933 119.231 2.19067 120.396 1.608C121.561 1.02533 122.942 0.733999 124.538 0.733999C124.842 0.733999 125.171 0.759332 125.526 0.809998C125.906 0.835332 126.223 0.873333 126.476 0.923999V5.218C126.223 5.16733 125.982 5.142 125.754 5.142C125.551 5.11667 125.361 5.104 125.184 5.104C124.069 5.104 123.208 5.35733 122.6 5.864C121.992 6.34533 121.688 7.10533 121.688 8.144V8.828H126.286V13.274H121.688V29.5H116.71ZM132.262 37.86C131.704 37.86 131.16 37.8093 130.628 37.708C130.096 37.632 129.614 37.48 129.184 37.252V33.11C129.513 33.186 129.906 33.262 130.362 33.338C130.843 33.414 131.286 33.452 131.692 33.452C132.832 33.452 133.655 33.186 134.162 32.654C134.694 32.1473 135.162 31.4633 135.568 30.602L136.936 27.41L136.86 31.59L127.854 8.828H133.212L139.52 25.624H137.62L143.89 8.828H149.286L140.28 31.59C139.748 32.9073 139.102 34.0347 138.342 34.972C137.582 35.9093 136.695 36.6187 135.682 37.1C134.694 37.6067 133.554 37.86 132.262 37.86Z" fill="#2C3E50"/>
</svg>
