<svg width="96" height="36" viewBox="0 0 96 36" fill="none" xmlns="http://www.w3.org/2000/svg">
<path d="M10.2 28.288C8.92 28.288 7.736 28.056 6.648 27.592C5.56 27.128 4.608 26.48 3.792 25.648C2.976 24.816 2.336 23.84 1.872 22.72C1.424 21.6 1.2 20.376 1.2 19.048C1.2 17.72 1.416 16.496 1.848 15.376C2.296 14.24 2.92 13.264 3.72 12.448C4.536 11.616 5.488 10.976 6.576 10.528C7.664 10.064 8.848 9.832 10.128 9.832C11.408 9.832 12.552 10.048 13.56 10.48C14.584 10.912 15.448 11.488 16.152 12.208C16.856 12.912 17.36 13.688 17.664 14.536L14.76 15.928C14.424 15 13.856 14.248 13.056 13.672C12.256 13.096 11.28 12.808 10.128 12.808C9.008 12.808 8.016 13.072 7.152 13.6C6.304 14.128 5.64 14.856 5.16 15.784C4.696 16.712 4.464 17.8 4.464 19.048C4.464 20.296 4.704 21.392 5.184 22.336C5.68 23.264 6.36 23.992 7.224 24.52C8.088 25.048 9.08 25.312 10.2 25.312C11.112 25.312 11.952 25.136 12.72 24.784C13.488 24.416 14.104 23.904 14.568 23.248C15.032 22.576 15.264 21.784 15.264 20.872V19.504L16.752 20.8H10.128V18.04H18.528V19.84C18.528 21.216 18.296 22.432 17.832 23.488C17.368 24.544 16.736 25.432 15.936 26.152C15.152 26.856 14.264 27.392 13.272 27.76C12.28 28.112 11.256 28.288 10.2 28.288ZM20.8468 28V14.944H23.7988V17.848L23.5588 17.416C23.8628 16.44 24.3348 15.76 24.9748 15.376C25.6308 14.992 26.4148 14.8 27.3268 14.8H28.0948V17.584H26.9668C26.0708 17.584 25.3508 17.864 24.8068 18.424C24.2628 18.968 23.9908 19.736 23.9908 20.728V28H20.8468ZM36.2074 28.288C34.9274 28.288 33.7594 27.992 32.7034 27.4C31.6634 26.808 30.8314 26 30.2074 24.976C29.5994 23.952 29.2954 22.784 29.2954 21.472C29.2954 20.16 29.5994 18.992 30.2074 17.968C30.8314 16.944 31.6634 16.136 32.7034 15.544C33.7434 14.952 34.9114 14.656 36.2074 14.656C37.4874 14.656 38.6474 14.952 39.6874 15.544C40.7274 16.136 41.5514 16.944 42.1594 17.968C42.7834 18.976 43.0954 20.144 43.0954 21.472C43.0954 22.784 42.7834 23.952 42.1594 24.976C41.5354 26 40.7034 26.808 39.6634 27.4C38.6234 27.992 37.4714 28.288 36.2074 28.288ZM36.2074 25.408C36.9114 25.408 37.5274 25.24 38.0554 24.904C38.5994 24.568 39.0234 24.104 39.3274 23.512C39.6474 22.904 39.8074 22.224 39.8074 21.472C39.8074 20.704 39.6474 20.032 39.3274 19.456C39.0234 18.864 38.5994 18.4 38.0554 18.064C37.5274 17.712 36.9114 17.536 36.2074 17.536C35.4874 17.536 34.8554 17.712 34.3114 18.064C33.7674 18.4 33.3354 18.864 33.0154 19.456C32.7114 20.032 32.5594 20.704 32.5594 21.472C32.5594 22.224 32.7114 22.904 33.0154 23.512C33.3354 24.104 33.7674 24.568 34.3114 24.904C34.8554 25.24 35.4874 25.408 36.2074 25.408ZM50.4476 28.288C49.0556 28.288 47.8396 27.96 46.7996 27.304C45.7756 26.632 45.0716 25.728 44.6876 24.592L47.0396 23.464C47.3756 24.2 47.8396 24.776 48.4316 25.192C49.0396 25.608 49.7116 25.816 50.4476 25.816C51.0236 25.816 51.4796 25.688 51.8156 25.432C52.1516 25.176 52.3196 24.84 52.3196 24.424C52.3196 24.168 52.2476 23.96 52.1036 23.8C51.9756 23.624 51.7916 23.48 51.5516 23.368C51.3276 23.24 51.0796 23.136 50.8076 23.056L48.6716 22.456C47.5676 22.136 46.7276 21.648 46.1516 20.992C45.5916 20.336 45.3116 19.56 45.3116 18.664C45.3116 17.864 45.5116 17.168 45.9116 16.576C46.3276 15.968 46.8956 15.496 47.6156 15.16C48.3516 14.824 49.1916 14.656 50.1356 14.656C51.3676 14.656 52.4556 14.952 53.3996 15.544C54.3436 16.136 55.0156 16.968 55.4156 18.04L53.0156 19.168C52.7916 18.576 52.4156 18.104 51.8876 17.752C51.3596 17.4 50.7676 17.224 50.1116 17.224C49.5836 17.224 49.1676 17.344 48.8636 17.584C48.5596 17.824 48.4076 18.136 48.4076 18.52C48.4076 18.76 48.4716 18.968 48.5996 19.144C48.7276 19.32 48.9036 19.464 49.1276 19.576C49.3676 19.688 49.6396 19.792 49.9436 19.888L52.0316 20.512C53.1036 20.832 53.9276 21.312 54.5036 21.952C55.0956 22.592 55.3916 23.376 55.3916 24.304C55.3916 25.088 55.1836 25.784 54.7676 26.392C54.3516 26.984 53.7756 27.448 53.0396 27.784C52.3036 28.12 51.4396 28.288 50.4476 28.288ZM57.8078 28V14.944H60.9518V28H57.8078ZM57.8078 13.48V10.12H60.9518V13.48H57.8078ZM63.8546 28V14.944H66.8066V17.848L66.5666 17.416C66.8706 16.44 67.3426 15.76 67.9826 15.376C68.6386 14.992 69.4226 14.8 70.3346 14.8H71.1026V17.584H69.9746C69.0786 17.584 68.3586 17.864 67.8146 18.424C67.2706 18.968 66.9986 19.736 66.9986 20.728V28H63.8546ZM74.3432 28V17.752H72.0392V14.944H74.3432V14.512C74.3432 13.52 74.5432 12.68 74.9432 11.992C75.3592 11.288 75.9352 10.752 76.6712 10.384C77.4072 10.016 78.2792 9.832 79.2872 9.832C79.4792 9.832 79.6872 9.848 79.9112 9.88C80.1512 9.896 80.3512 9.92 80.5112 9.952V12.664C80.3512 12.632 80.1992 12.616 80.0552 12.616C79.9272 12.6 79.8072 12.592 79.6952 12.592C78.9912 12.592 78.4472 12.752 78.0632 13.072C77.6792 13.376 77.4872 13.856 77.4872 14.512V14.944H80.3912V17.752H77.4872V28H74.3432ZM84.1652 33.28C83.8132 33.28 83.4692 33.248 83.1332 33.184C82.7972 33.136 82.4932 33.04 82.2212 32.896V30.28C82.4292 30.328 82.6772 30.376 82.9652 30.424C83.2692 30.472 83.5492 30.496 83.8052 30.496C84.5252 30.496 85.0452 30.328 85.3652 29.992C85.7012 29.672 85.9972 29.24 86.2532 28.696L87.1172 26.68L87.0692 29.32L81.3812 14.944H84.7652L88.7492 25.552H87.5492L91.5092 14.944H94.9172L89.2292 29.32C88.8932 30.152 88.4852 30.864 88.0052 31.456C87.5252 32.048 86.9652 32.496 86.3252 32.8C85.7012 33.12 84.9812 33.28 84.1652 33.28Z" fill="#1ABC9C"/>
</svg>
