<svg width="38" height="36" viewBox="0 0 38 36" fill="none" xmlns="http://www.w3.org/2000/svg">
<rect width="38" height="36" rx="8" fill="#1F1F1F"/>
<path d="M19.2 28.288C17.92 28.288 16.736 28.056 15.648 27.592C14.56 27.128 13.608 26.48 12.792 25.648C11.976 24.816 11.336 23.84 10.872 22.72C10.424 21.6 10.2 20.376 10.2 19.048C10.2 17.72 10.416 16.496 10.848 15.376C11.296 14.24 11.92 13.264 12.72 12.448C13.536 11.616 14.488 10.976 15.576 10.528C16.664 10.064 17.848 9.832 19.128 9.832C20.408 9.832 21.552 10.048 22.56 10.48C23.584 10.912 24.448 11.488 25.152 12.208C25.856 12.912 26.36 13.688 26.664 14.536L23.76 15.928C23.424 15 22.856 14.248 22.056 13.672C21.256 13.096 20.28 12.808 19.128 12.808C18.008 12.808 17.016 13.072 16.152 13.6C15.304 14.128 14.64 14.856 14.16 15.784C13.696 16.712 13.464 17.8 13.464 19.048C13.464 20.296 13.704 21.392 14.184 22.336C14.68 23.264 15.36 23.992 16.224 24.52C17.088 25.048 18.08 25.312 19.2 25.312C20.112 25.312 20.952 25.136 21.72 24.784C22.488 24.416 23.104 23.904 23.568 23.248C24.032 22.576 24.264 21.784 24.264 20.872V19.504L25.752 20.8H19.128V18.04H27.528V19.84C27.528 21.216 27.296 22.432 26.832 23.488C26.368 24.544 25.736 25.432 24.936 26.152C24.152 26.856 23.264 27.392 22.272 27.76C21.28 28.112 20.256 28.288 19.2 28.288Z" fill="#1ABC9C"/>
</svg>
