<svg width="424" height="600" viewBox="0 0 424 600" fill="none" xmlns="http://www.w3.org/2000/svg">
<g clip-path="url(#clip0_119_3916)">
<path d="M147.362 177.975C146.82 178.188 146.385 178.608 146.152 179.141C146.037 179.405 145.976 179.689 145.971 179.977C145.966 180.265 146.018 180.551 146.124 180.819C146.23 181.087 146.388 181.331 146.589 181.538C146.79 181.745 147.029 181.911 147.294 182.025C148.764 182.661 151.044 184.351 157.77 190.642C159.625 192.375 164.765 197.362 170.619 202.549C176.473 207.735 182.992 213.134 188.153 215.961C188.407 216.099 188.684 216.187 188.971 216.218C189.258 216.25 189.549 216.224 189.826 216.144C190.103 216.063 190.361 215.929 190.586 215.749C190.812 215.568 190.999 215.346 191.138 215.093C191.277 214.841 191.364 214.564 191.396 214.277C191.427 213.991 191.402 213.702 191.321 213.425C191.241 213.149 191.106 212.891 190.925 212.666C190.745 212.441 190.522 212.254 190.269 212.116C185.842 209.691 179.301 204.376 173.538 199.269C167.774 194.163 162.739 189.276 160.775 187.44C153.986 181.09 151.474 179.053 149.043 178.001C148.509 177.769 147.904 177.759 147.362 177.972V177.975Z" fill="#2C3E50"/>
<mask id="mask0_119_3916" style="mask-type:luminance" maskUnits="userSpaceOnUse" x="-740" y="-3167" width="1364" height="7197">
<path d="M623.226 4029L623.226 -3166.11H-739.531L-739.531 4029H623.226Z" fill="white"/>
</mask>
<g mask="url(#mask0_119_3916)">
<path fill-rule="evenodd" clip-rule="evenodd" d="M150.498 189.043C150.498 189.043 147.449 195.363 118.198 181.346L110.67 156.552L113.615 153.077C113.615 153.077 136.526 155.895 138.741 156.125C140.955 156.355 142.251 157.04 142.713 158.871C143.169 160.697 150.498 189.043 150.498 189.043Z" fill="#1F1F1F"/>
</g>
<mask id="mask1_119_3916" style="mask-type:luminance" maskUnits="userSpaceOnUse" x="-740" y="-3167" width="1364" height="7197">
<path d="M623.226 4029L623.226 -3166.11H-739.531L-739.531 4029H623.226Z" fill="white"/>
</mask>
<g mask="url(#mask1_119_3916)">
<path fill-rule="evenodd" clip-rule="evenodd" d="M160.498 40.5857C161.322 40.5089 162.13 40.8051 162.707 41.3916C163.289 41.9782 163.569 42.7948 163.482 43.6116C162.888 50.0636 161.602 63.7515 161.179 64.8807C160.624 66.3608 65.3537 74.8685 62.6615 74.9617C59.9748 75.0549 59.7935 55.5399 60.5297 53.0457C61.2714 50.546 62.1065 49.4278 70.4469 48.7371C77.8092 48.1341 144.812 42.0164 160.498 40.5857Z" fill="#1F1F1F"/>
</g>
<mask id="mask2_119_3916" style="mask-type:luminance" maskUnits="userSpaceOnUse" x="-740" y="-3167" width="1364" height="7197">
<path d="M623.226 4029L623.226 -3166.11H-739.531L-739.531 4029H623.226Z" fill="white"/>
</mask>
<g mask="url(#mask2_119_3916)">
<path fill-rule="evenodd" clip-rule="evenodd" d="M402.829 100.178C402.373 102.557 402.081 104.098 402.037 104.372C401.779 105.973 400.708 107.036 396.356 106.735C392.005 106.428 328.194 103.402 325.524 103.325C322.854 103.248 321.326 102.563 321.629 98.139C321.936 93.7207 324.277 51.133 324.508 49.3843C324.733 47.6302 324.964 45.043 330.617 45.3445C336.265 45.6514 406.746 49.2145 408.554 49.2748C411.103 49.3626 412.361 51.0344 411.532 54.9868C411.383 55.7159 409.74 64.2125 407.861 73.9591C407.219 73.8878 406.559 73.8496 405.894 73.8496C397.543 73.8496 390.763 79.8083 390.763 87.1538C390.763 93.573 395.944 98.934 402.829 100.178Z" fill="#1F1F1F"/>
</g>
<mask id="mask3_119_3916" style="mask-type:luminance" maskUnits="userSpaceOnUse" x="-740" y="-3167" width="1364" height="7197">
<path d="M623.226 4029L623.226 -3166.11H-739.531L-739.531 4029H623.226Z" fill="white"/>
</mask>
<g mask="url(#mask3_119_3916)">
<path fill-rule="evenodd" clip-rule="evenodd" d="M41.5801 132.986C41.0197 123.98 40.4428 113.954 40.3329 112.983C40.1516 111.322 41.0471 108.587 44.036 108.171C47.0249 107.754 104.297 102.272 106.248 102.064C108.193 101.855 110.704 103.045 111.05 107.666C111.396 112.293 113.83 144.794 113.736 147.014C113.643 149.234 112.533 149.881 107.528 150.435C103.682 150.862 73.1667 154.782 57.9915 156.366C61.0353 153.79 62.9418 150.111 62.9418 146.033C62.9418 138.249 56.0025 131.934 47.4644 131.934C45.3821 131.934 43.3932 132.307 41.5801 132.986Z" fill="#1F1F1F"/>
</g>
<mask id="mask4_119_3916" style="mask-type:luminance" maskUnits="userSpaceOnUse" x="-740" y="-3167" width="1364" height="7197">
<path d="M623.226 4029L623.226 -3166.11H-739.531L-739.531 4029H623.226Z" fill="white"/>
</mask>
<g mask="url(#mask4_119_3916)">
<path fill-rule="evenodd" clip-rule="evenodd" d="M104.836 243.065C110.094 247.917 117.819 254.632 125.791 260.711L136.735 282.43C133.642 285.933 130.934 290.219 128.67 295.405C126.28 300.876 119.923 317.497 112.39 337.549C112.39 337.549 83.93 362.145 78.7983 363.121C73.6667 364.097 62.8374 362.634 59.4145 361.252C55.9916 359.871 44.9151 352.152 44.9151 352.152C40.3548 352.964 28.707 344.834 28.4597 341.83C28.218 338.821 53.239 272.886 54.1565 270.754C55.074 268.621 104.836 243.065 104.836 243.065Z" fill="#1F1F1F"/>
</g>
<path d="M201.042 15.1228C200.76 15.0586 200.469 15.0504 200.184 15.0985C199.9 15.1466 199.627 15.2502 199.383 15.4033C196.941 16.9327 194.106 19.6936 192.398 23.5542C190.689 27.4149 190.291 32.4582 192.962 37.6837C193.093 37.9402 193.274 38.1686 193.493 38.3555C193.713 38.5425 193.967 38.6842 194.242 38.7731C194.516 38.862 194.806 38.8962 195.093 38.8735C195.381 38.8507 195.662 38.7717 195.919 38.6409C196.176 38.51 196.405 38.3299 196.592 38.1109C196.779 37.8918 196.922 37.6383 197.011 37.3644C197.1 37.0905 197.134 36.8016 197.111 36.5145C197.088 36.2275 197.009 35.9477 196.878 35.6912C194.78 31.5867 195.145 28.2029 196.419 25.3251C197.692 22.4474 200.057 20.1591 201.72 19.1175C202.213 18.8083 202.564 18.3162 202.694 17.7494C202.824 17.1826 202.723 16.5875 202.413 16.095C202.26 15.851 202.06 15.6395 201.824 15.4727C201.589 15.3059 201.323 15.1871 201.042 15.1228Z" fill="#2C3E50"/>
<path d="M225.177 0.0032441C223.109 0.0207857 221.047 0.117587 219.026 0.30731C210.943 1.0662 203.383 3.2355 198.888 8.42716C198.7 8.64507 198.556 8.89788 198.465 9.17127C198.374 9.44465 198.338 9.73333 198.359 10.0206C198.38 10.3078 198.458 10.5879 198.588 10.8452C198.717 11.1026 198.896 11.332 199.115 11.5203C199.333 11.7085 199.587 11.8519 199.861 11.9424C200.135 12.0329 200.424 12.0687 200.712 12.0476C201 12.0265 201.281 11.9489 201.539 11.8195C201.797 11.6901 202.026 11.5113 202.215 11.2933C205.451 7.55519 211.917 5.37955 219.438 4.67344C226.959 3.96734 235.399 4.65372 242.244 5.9154C251.169 7.55839 258.152 10.6841 263.1 16.2119C268.047 21.7398 271.118 29.8396 271.677 41.9365C271.704 42.5173 271.961 43.0635 272.392 43.4553C272.822 43.847 273.391 44.0521 273.973 44.0254C274.555 43.9985 275.103 43.742 275.496 43.3123C275.888 42.8827 276.094 42.315 276.067 41.7342C275.478 28.9824 272.15 19.7409 266.378 13.2911C260.606 6.84137 252.549 3.35307 243.041 1.6028C237.646 0.608468 231.381 -0.0499289 225.176 0.0032441H225.177ZM204.071 15.1402C203.508 15.2875 203.025 15.6522 202.731 16.1541C199.271 22.0592 199.467 28.3395 202.467 33.3049C205.467 38.2703 211.011 41.9637 217.949 43.8016C224.043 45.4166 230.875 45.5964 236.479 46.8444C242.083 48.0924 246.094 50.031 247.897 55.202C248.028 55.5771 248.258 55.9098 248.563 56.1645C248.869 56.4192 249.238 56.5864 249.631 56.6481C250.024 56.7099 250.427 56.6638 250.796 56.5151C251.165 56.3664 251.487 56.1206 251.727 55.8037C251.727 55.8037 252.844 54.3441 254.549 53.0714C256.254 51.7985 258.241 50.9382 260.129 51.4846C261.663 51.9279 262.394 52.7426 262.92 54.1463C263.446 55.55 263.562 57.5626 263.243 59.7019C262.605 63.9804 260.038 68.6948 258.272 70.0284C254 73.2494 250.801 71.5327 250.801 71.5327C250.49 71.3923 250.15 71.3261 249.809 71.3394C249.468 71.3527 249.135 71.4452 248.836 71.6092C248.537 71.7733 248.28 72.0044 248.086 72.2845C247.892 72.5647 247.767 72.8861 247.719 73.2232C247.719 73.2232 243.609 102.003 245.863 131.59C246.119 134.969 247.882 137.82 250.427 139.898C252.973 141.977 256.274 143.419 260.034 144.507C267.554 146.685 277.002 147.428 286.151 147.688C288.515 147.756 290.389 147.56 291.967 146.969C293.545 146.377 294.849 145.232 295.442 143.805C296.626 140.951 295.507 138.108 294.249 135.125C290.128 125.344 277.636 120.107 277.053 94.1888C277.004 91.8871 276.775 80.5728 276.561 69.6001C276.455 64.1138 276.351 58.7105 276.276 54.5596C276.201 50.4087 276.155 47.3454 276.157 47.0778C276.162 46.4965 275.935 45.937 275.526 45.5224C275.118 45.1078 274.561 44.872 273.979 44.8669C273.69 44.8645 273.404 44.919 273.136 45.027C272.869 45.135 272.625 45.2943 272.419 45.4962C272.213 45.6981 272.049 45.9385 271.937 46.2036C271.824 46.4688 271.765 46.7535 271.763 47.0414C271.757 47.7441 271.806 50.4854 271.882 54.6399C271.957 58.7943 272.06 64.1973 272.167 69.6847C272.381 80.6596 272.608 91.9626 272.658 94.282C272.658 94.2838 272.658 94.2857 272.658 94.2876C273.273 121.64 287.273 129.888 290.195 136.826C291.339 139.538 291.604 141.583 291.378 142.129C291.265 142.402 291.165 142.585 290.417 142.865C289.67 143.145 288.298 143.365 286.273 143.306C277.285 143.051 268.073 142.27 261.257 140.297C257.849 139.31 255.062 138.019 253.209 136.506C251.355 134.993 250.406 133.394 250.245 131.261C248.289 105.595 251.102 81.5027 251.799 76.0757C254.106 76.3263 257.459 76.1405 260.922 73.5286C264.441 70.8715 266.799 65.6447 267.588 60.3507C267.983 57.7038 267.938 55.0225 267.036 52.6142C266.134 50.2062 264.17 48.0909 261.35 47.2759C257.575 46.1839 254.177 47.8743 251.914 49.5628C251.357 49.9789 251.033 50.3507 250.585 50.7619C247.674 46.0192 242.646 43.7276 237.435 42.5672C231.218 41.1826 224.419 40.9825 219.074 39.5661C212.996 37.9559 208.477 34.7641 206.229 31.0437C203.981 27.3233 203.742 23.1165 206.523 18.3706C206.817 17.8687 206.9 17.2708 206.752 16.7084C206.604 16.1461 206.239 15.6653 205.736 15.3717C205.487 15.2264 205.211 15.1314 204.925 15.0923C204.639 15.0531 204.348 15.0706 204.069 15.1437L204.071 15.1402Z" fill="#2C3E50"/>
<path d="M200.843 5.38285C195.288 5.51858 189.567 8.76327 185.497 13.7479C180.845 19.4446 178.406 27.7405 181.582 36.5678C181.68 36.8389 181.83 37.0882 182.024 37.3015C182.218 37.5147 182.452 37.6877 182.713 37.8106C182.974 37.9335 183.257 38.0039 183.546 38.0178C183.834 38.0316 184.122 37.9885 184.394 37.8912C184.666 37.7939 184.915 37.6442 185.129 37.4506C185.343 37.257 185.516 37.0232 185.639 36.7627C185.763 36.5022 185.833 36.2201 185.847 35.9324C185.861 35.6447 185.818 35.3571 185.72 35.086C183.072 27.7257 185.07 21.213 188.904 16.5177C192.738 11.8224 198.466 9.2714 202.586 9.85926C202.872 9.90013 203.163 9.8843 203.442 9.81295C203.722 9.74161 203.985 9.616 204.216 9.44331C204.447 9.27062 204.641 9.05428 204.789 8.80654C204.936 8.55879 205.033 8.28461 205.074 7.99953C205.114 7.71446 205.098 7.4241 205.027 7.14515C204.955 6.8662 204.829 6.6041 204.656 6.37374C204.483 6.14338 204.266 5.94924 204.017 5.80255C203.769 5.65585 203.494 5.55952 203.208 5.51882C202.427 5.40727 201.637 5.3635 200.843 5.38285Z" fill="#2C3E50"/>
<path d="M188.518 33.6645C187.943 33.761 187.43 34.0811 187.092 34.5548C186.754 35.0284 186.618 35.6168 186.715 36.1902C188.629 47.5605 189.086 57.4919 189.372 65.7339C189.658 73.9759 189.707 80.4788 191.098 85.3622C193.871 95.0931 201.914 101.006 210.984 102.776C220.054 104.547 230.281 102.382 238.128 96.148C238.354 95.9686 238.542 95.7466 238.682 95.4946C238.822 95.2427 238.91 94.9657 238.943 94.6796C238.975 94.3934 238.951 94.1038 238.871 93.8271C238.792 93.5503 238.658 93.2919 238.478 93.0666C238.298 92.8414 238.076 92.6536 237.823 92.5142C237.571 92.3747 237.293 92.2864 237.006 92.254C236.72 92.2216 236.429 92.2456 236.152 92.3252C235.874 92.4048 235.616 92.5382 235.39 92.7176C228.622 98.0939 219.61 99.9913 211.828 98.4724C204.045 96.9535 197.623 92.226 195.326 84.1631C194.228 80.3086 194.051 73.8643 193.764 65.5829C193.477 57.3015 193.014 47.1338 191.049 35.4643C191.001 35.1803 190.898 34.9084 190.745 34.6643C190.592 34.4201 190.392 34.2083 190.157 34.0411C189.922 33.874 189.656 33.7549 189.375 33.6902C189.094 33.6256 188.802 33.6168 188.518 33.6645Z" fill="#2C3E50"/>
<path d="M194.437 41.1015C192.165 40.9746 190.331 41.3262 188.836 42.3424C188.598 42.5045 188.393 42.712 188.235 42.9529C188.077 43.1938 187.968 43.4633 187.914 43.7463C187.861 44.0292 187.863 44.3201 187.922 44.602C187.981 44.8839 188.095 45.1515 188.258 45.3894C188.42 45.6274 188.628 45.8312 188.87 45.989C189.111 46.1468 189.381 46.2555 189.665 46.3091C189.949 46.3627 190.24 46.3602 190.523 46.3014C190.805 46.2426 191.073 46.1287 191.312 45.9665C191.301 45.9742 192.806 45.402 194.191 45.4794C195.575 45.5567 196.864 46.0054 197.771 47.1614C197.949 47.3882 198.169 47.5778 198.421 47.7195C198.672 47.8611 198.949 47.952 199.235 47.9869C199.522 48.0218 199.812 48 200.09 47.9229C200.369 47.8457 200.629 47.7146 200.856 47.5372C201.083 47.3597 201.273 47.1393 201.415 46.8886C201.557 46.6379 201.648 46.3618 201.683 46.076C201.718 45.7902 201.696 45.5001 201.619 45.2227C201.542 44.9453 201.41 44.6858 201.233 44.459C199.392 42.1122 196.709 41.2284 194.437 41.1015Z" fill="#2C3E50"/>
<path d="M222.299 40.3615C220.237 40.3116 218.315 40.8306 216.721 41.4803C214.595 42.3466 213.147 43.2741 212.175 44.3133C211.978 44.5238 211.825 44.7711 211.723 45.0408C211.622 45.3105 211.575 45.5974 211.585 45.8853C211.595 46.1731 211.662 46.4561 211.782 46.7182C211.901 46.9803 212.071 47.2163 212.282 47.4128C212.493 47.6093 212.741 47.7626 213.012 47.8636C213.282 47.9645 213.57 48.0113 213.858 48.0014C214.146 47.9915 214.43 47.9248 214.693 47.8055C214.956 47.6861 215.192 47.5163 215.389 47.3057C215.412 47.2816 216.803 46.1841 218.383 45.5402C219.963 44.8963 221.827 44.5352 223.437 44.8957C223.719 44.9588 224.01 44.9658 224.295 44.9166C224.579 44.8673 224.851 44.7626 225.095 44.6085C225.339 44.4544 225.55 44.254 225.716 44.0186C225.882 43.7831 226 43.5172 226.063 43.2362C226.126 42.9552 226.134 42.6645 226.084 42.3807C226.035 42.097 225.93 41.8258 225.776 41.5826C225.621 41.3393 225.42 41.1287 225.184 40.9629C224.948 40.7971 224.682 40.6793 224.4 40.6163C223.688 40.457 222.986 40.3781 222.299 40.3615Z" fill="#2C3E50"/>
<path d="M204.551 47.4794C204.277 47.386 203.989 47.3471 203.7 47.3651C203.412 47.3831 203.13 47.4576 202.871 47.5843C202.348 47.8398 201.947 48.2922 201.758 48.8421C201.569 49.392 201.607 49.9945 201.862 50.5169C202.17 51.1453 202.705 53.4655 202.75 55.8659C202.794 58.2663 202.418 60.872 201.647 62.5232C201.647 62.525 201.647 62.527 201.647 62.5288C200.896 64.1447 201.073 66.3673 202.688 67.7579C204.303 69.1485 206.707 69.2741 209.543 68.3671C209.818 68.2792 210.072 68.1381 210.293 67.952C210.513 67.7658 210.694 67.5381 210.826 67.282C210.958 67.0259 211.038 66.7462 211.062 66.4592C211.086 66.1722 211.053 65.8833 210.964 65.6091C210.787 65.0554 210.395 64.5949 209.877 64.3289C209.359 64.0628 208.756 64.0131 208.201 64.1905C206.153 64.8458 205.54 64.4204 205.56 64.4378C205.58 64.4548 205.585 64.4783 205.634 64.3736C206.867 61.7332 207.199 58.6373 207.146 55.7858C207.094 52.9333 206.725 50.4513 205.814 48.591C205.687 48.3322 205.51 48.1008 205.294 47.9101C205.078 47.7194 204.826 47.5732 204.553 47.4797L204.551 47.4794Z" fill="#2C3E50"/>
<path d="M220.2 71.1375C219.72 71.1731 219.254 71.2975 218.844 71.4811C218.842 71.4811 218.84 71.4811 218.838 71.4811C216.772 72.4116 209.822 74.9414 205.213 75.1535C204.309 75.1951 203.182 75.6609 202.591 76.5689C202 77.4769 202.016 78.4436 202.174 79.1995C202.491 80.7115 203.371 81.9333 204.607 83.101C207.078 85.4364 211.369 87.2915 216.297 85.845C220.918 84.4892 223.375 80.8178 224.02 77.6224C224.343 76.0247 224.335 74.5085 223.591 73.0935C223.219 72.386 222.568 71.6665 221.639 71.3248C221.174 71.1539 220.68 71.0999 220.2 71.1353L220.2 71.1375ZM219.764 75.8066C219.777 76.0808 219.786 76.3899 219.712 76.7595C219.355 78.5264 218.041 80.7643 215.058 81.6395C211.749 82.6105 209.141 81.3468 207.631 79.919C207.411 79.7119 207.291 79.5173 207.135 79.313C212.149 78.7396 217.157 76.9253 219.765 75.8066H219.764Z" fill="#2C3E50"/>
<mask id="mask5_119_3916" style="mask-type:luminance" maskUnits="userSpaceOnUse" x="-740" y="-3167" width="1364" height="7197">
<path d="M623.226 4029L623.226 -3166.11H-739.531L-739.531 4029H623.226Z" fill="white"/>
</mask>
<g mask="url(#mask5_119_3916)">
<path fill-rule="evenodd" clip-rule="evenodd" d="M219.784 55.6331C219.784 56.0683 219.733 56.4991 219.635 56.9013C219.537 57.3034 219.394 57.669 219.213 57.9767C219.032 58.2845 218.818 58.5286 218.581 58.6951C218.345 58.8617 218.092 58.9473 217.836 58.9473C217.581 58.9473 217.327 58.8617 217.091 58.6951C216.855 58.5286 216.64 58.2845 216.459 57.9767C216.279 57.669 216.135 57.3034 216.037 56.9013C215.94 56.4991 215.889 56.0683 215.889 55.6331C215.889 55.1978 215.94 54.767 216.037 54.3649C216.135 53.9628 216.279 53.5972 216.459 53.2894C216.64 52.9816 216.855 52.7375 217.091 52.571C217.327 52.4044 217.581 52.3188 217.836 52.3188C218.092 52.3188 218.345 52.4044 218.581 52.571C218.818 52.7375 219.032 52.9816 219.213 53.2894C219.394 53.5972 219.537 53.9628 219.635 54.3649C219.733 54.767 219.784 55.1978 219.784 55.6331Z" fill="#2C3E50"/>
</g>
<mask id="mask6_119_3916" style="mask-type:luminance" maskUnits="userSpaceOnUse" x="-740" y="-3167" width="1364" height="7197">
<path d="M623.226 4029L623.226 -3166.11H-739.531L-739.531 4029H623.226Z" fill="white"/>
</mask>
<g mask="url(#mask6_119_3916)">
<path fill-rule="evenodd" clip-rule="evenodd" d="M199.499 55.3604C199.499 55.7956 199.449 56.2267 199.351 56.6288C199.253 57.0309 199.11 57.3963 198.929 57.704C198.748 58.0118 198.533 58.2559 198.297 58.4224C198.061 58.589 197.808 58.6746 197.552 58.6746C197.296 58.6746 197.043 58.589 196.807 58.4224C196.571 58.2559 196.356 58.0118 196.175 57.704C195.994 57.3963 195.851 57.0309 195.753 56.6288C195.655 56.2267 195.605 55.7956 195.605 55.3604C195.605 54.9251 195.655 54.4943 195.753 54.0922C195.851 53.6901 195.994 53.3247 196.175 53.017C196.356 52.7092 196.571 52.4648 196.807 52.2983C197.043 52.1317 197.296 52.0461 197.552 52.0461C197.808 52.0461 198.061 52.1317 198.297 52.2983C198.533 52.4648 198.748 52.7092 198.929 53.017C199.11 53.3247 199.253 53.6901 199.351 54.0922C199.449 54.4943 199.499 54.9251 199.499 55.3604Z" fill="#2C3E50"/>
</g>
<path d="M223.856 98.2607C223.273 98.2772 222.721 98.5238 222.321 98.9464C221.921 99.3691 221.705 99.9332 221.721 100.514C221.786 102.796 221.861 103.546 221.926 105.424C221.936 105.712 222.003 105.995 222.123 106.257C222.242 106.519 222.413 106.756 222.624 106.952C222.835 107.148 223.082 107.302 223.353 107.402C223.623 107.503 223.911 107.55 224.199 107.54C224.488 107.53 224.771 107.463 225.034 107.344C225.297 107.225 225.533 107.055 225.73 106.844C225.927 106.634 226.081 106.387 226.182 106.117C226.283 105.847 226.33 105.56 226.32 105.272C226.252 103.32 226.179 102.603 226.116 100.39C226.108 100.102 226.043 99.8187 225.925 99.5559C225.807 99.2931 225.638 99.0561 225.428 98.8584C225.218 98.6606 224.971 98.5059 224.702 98.4033C224.432 98.3008 224.144 98.2524 223.856 98.2607ZM224.277 111.908C223.694 111.916 223.138 112.154 222.731 112.571C222.325 112.987 222.1 113.547 222.108 114.129C222.159 118.069 221.982 120.753 221.451 122.55C220.92 124.346 220.184 125.343 218.517 126.521C213.945 129.751 206.135 131.741 198.667 133.629C191.199 135.516 184.01 137.083 180.142 141.512C175.525 146.796 172.29 155.432 169.62 165.101C166.95 174.77 164.954 185.459 163.387 194.598C163.288 195.171 163.422 195.76 163.759 196.235C164.096 196.709 164.607 197.031 165.182 197.129C165.756 197.227 166.346 197.094 166.822 196.758C167.298 196.422 167.62 195.911 167.719 195.338C169.277 186.25 171.259 175.676 173.858 166.267C176.457 156.857 179.782 148.598 183.456 144.393C185.653 141.877 192.31 139.759 199.745 137.88C207.18 136.002 215.332 134.144 221.056 130.1C223.319 128.502 224.893 126.402 225.665 123.79C226.437 121.179 226.554 118.147 226.501 114.073C226.497 113.785 226.437 113.501 226.323 113.236C226.209 112.972 226.044 112.732 225.838 112.531C225.631 112.33 225.387 112.171 225.119 112.065C224.851 111.958 224.564 111.905 224.275 111.908H224.277ZM113.629 199.487C112.667 199.452 111.796 199.877 111.203 200.302C110.411 200.867 109.766 201.568 109.055 202.41C107.635 204.093 106.032 206.362 104.085 208.926C100.191 214.054 94.9732 220.294 88.1471 224.565C88.1453 224.565 88.1435 224.565 88.1416 224.565C87.6361 224.882 87.1444 225.527 86.9945 226.154C86.8447 226.78 86.9445 227.286 87.0622 227.664C87.2977 228.421 87.6408 228.863 88.0182 229.345C88.773 230.309 89.7756 231.283 90.8791 232.323C93.0862 234.403 95.754 236.837 96.4539 237.802C96.9536 238.491 97.6187 239.161 98.6999 240.241C99.7811 241.322 101.205 242.688 102.902 244.263C106.297 247.412 110.785 251.392 115.744 255.505C125.662 263.73 137.33 272.466 146.327 276.169C146.866 276.391 147.471 276.39 148.009 276.167C148.547 275.944 148.975 275.516 149.197 274.979C149.419 274.441 149.418 273.838 149.194 273.301C148.971 272.764 148.542 272.338 148.004 272.116C140.062 268.847 128.332 260.241 118.553 252.132C113.664 248.077 109.228 244.143 105.895 241.051C104.228 239.505 102.837 238.169 101.81 237.143C100.784 236.118 100.05 235.279 100.014 235.231C98.5769 233.248 96.0061 231.121 93.8978 229.134C93.0674 228.352 92.4892 227.729 91.9941 227.173C98.7773 222.518 103.878 216.454 107.586 211.571C109.583 208.943 111.212 206.657 112.415 205.232C112.916 204.639 113.269 204.317 113.536 204.092C113.965 204.318 114.54 204.625 115.527 205.308C116.773 206.171 118.327 207.326 120.07 208.658C123.555 211.323 127.802 214.701 132.054 217.985C136.306 221.268 140.557 224.455 144.132 226.783C145.919 227.947 147.53 228.897 148.968 229.555C150.407 230.213 151.596 230.824 153.342 230.335C155.284 229.789 156.464 228.368 157.611 226.725C158.758 225.082 159.798 223.076 160.764 220.918C160.882 220.655 160.946 220.372 160.954 220.084C160.962 219.796 160.914 219.509 160.811 219.24C160.707 218.971 160.552 218.725 160.354 218.516C160.156 218.307 159.918 218.138 159.654 218.021C159.391 217.903 159.106 217.839 158.818 217.831C158.529 217.823 158.242 217.872 157.972 217.975C157.702 218.078 157.456 218.233 157.246 218.431C157.037 218.629 156.868 218.866 156.75 219.129C155.854 221.132 154.895 222.943 154.004 224.219C153.197 225.376 152.463 225.908 152.267 226.024C152.144 225.973 151.562 225.918 150.798 225.569C149.702 225.068 148.217 224.209 146.532 223.112C143.162 220.918 138.961 217.775 134.742 214.518C130.524 211.26 126.28 207.885 122.741 205.178C120.971 203.825 119.379 202.639 118.031 201.706C116.684 200.774 115.678 200.105 114.611 199.689C114.276 199.558 113.945 199.496 113.625 199.485L113.629 199.487Z" fill="#2C3E50"/>
<path d="M197.329 90.7287C197.042 90.7586 196.763 90.8446 196.51 90.9819C196.256 91.1192 196.032 91.3051 195.85 91.5288C195.668 91.7524 195.532 92.0096 195.45 92.2857C195.368 92.5618 195.341 92.8513 195.371 93.1377C197.373 112.225 195.327 120.188 192.858 124.868C191.624 127.207 190.207 128.817 188.843 130.788C187.478 132.76 186.239 135.157 185.883 138.482C185.852 138.768 185.879 139.058 185.96 139.334C186.042 139.611 186.177 139.868 186.358 140.092C186.539 140.316 186.763 140.502 187.016 140.64C187.27 140.778 187.548 140.865 187.835 140.895C188.122 140.926 188.412 140.9 188.689 140.819C188.966 140.737 189.224 140.602 189.449 140.421C189.673 140.24 189.86 140.017 189.998 139.764C190.136 139.512 190.223 139.234 190.254 138.948C190.527 136.402 191.295 134.964 192.46 133.28C193.626 131.596 195.262 129.728 196.748 126.91C199.721 121.276 201.791 112.208 199.743 92.6816C199.713 92.3952 199.627 92.1176 199.489 91.8644C199.352 91.6113 199.166 91.3876 198.941 91.2062C198.717 91.0249 198.459 90.8893 198.183 90.8074C197.906 90.7255 197.616 90.6987 197.329 90.7287Z" fill="#2C3E50"/>
<path d="M246.659 115.422C235.589 119.518 225.033 115.551 225.033 115.551C224.489 115.343 223.884 115.36 223.352 115.597C222.82 115.834 222.404 116.272 222.196 116.815C222.093 117.084 222.044 117.371 222.052 117.659C222.059 117.947 222.124 118.23 222.242 118.493C222.359 118.756 222.528 118.993 222.737 119.191C222.947 119.389 223.194 119.544 223.463 119.647C223.463 119.647 235.402 124.265 248.188 119.535C248.458 119.435 248.707 119.282 248.918 119.086C249.13 118.891 249.301 118.655 249.421 118.393C249.541 118.131 249.609 117.849 249.62 117.561C249.63 117.273 249.584 116.986 249.484 116.716C249.281 116.171 248.87 115.728 248.34 115.486C247.81 115.243 247.206 115.22 246.659 115.422Z" fill="#2C3E50"/>
<path d="M405.896 71.6472C396.493 71.6472 388.568 78.4496 388.568 87.1407C388.568 95.8317 396.493 102.635 405.896 102.635C415.298 102.635 423.224 95.8317 423.224 87.1407C423.224 78.4496 415.298 71.6472 405.896 71.6472ZM405.896 76.0326C413.205 76.0326 418.829 81.1393 418.829 87.1407C418.829 93.142 413.205 98.2498 405.896 98.2498C398.586 98.2498 392.964 93.142 392.964 87.1407C392.964 81.1393 398.586 76.0326 405.896 76.0326Z" fill="#2C3E50"/>
<path d="M406.425 77.6632C406.14 77.5925 405.843 77.5795 405.553 77.6249C405.263 77.6703 404.985 77.7732 404.736 77.9277L401.495 79.9341C401.249 80.0858 401.037 80.2842 400.868 80.5181C400.7 80.752 400.579 81.0166 400.513 81.297C400.448 81.5774 400.438 81.868 400.484 82.1522C400.531 82.4364 400.633 82.7086 400.785 82.9533C400.979 83.2261 401.232 83.4512 401.525 83.6115C401.819 83.7718 402.145 83.8631 402.48 83.8784L399.919 93.1021C399.764 93.6624 399.838 94.2615 400.125 94.7675C400.412 95.2734 400.889 95.6449 401.451 95.8001C402.012 95.9552 402.613 95.8813 403.12 95.5948C403.627 95.3083 403.999 94.8326 404.155 94.2723L408.013 80.3762C408.091 80.094 408.112 79.7989 408.074 79.5085C408.036 79.2181 407.94 78.9383 407.792 78.6854C407.644 78.4325 407.447 78.2119 407.212 78.0363C406.977 77.8608 406.709 77.7338 406.425 77.6632Z" fill="#2C3E50"/>
<path d="M49.3752 136.763C49.0904 136.693 48.7943 136.68 48.5044 136.725C48.2145 136.771 47.9366 136.874 47.6872 137.028L44.4454 139.034C43.9502 139.341 43.5974 139.831 43.4646 140.397C43.3317 140.964 43.4298 141.559 43.7371 142.053C43.9303 142.326 44.1834 142.551 44.477 142.712C44.7707 142.872 45.0972 142.963 45.4316 142.978L42.8711 152.202C42.7157 152.763 42.7897 153.362 43.0768 153.868C43.364 154.374 43.8408 154.745 44.4025 154.9C44.9641 155.055 45.5645 154.981 46.0717 154.695C46.5788 154.408 46.9511 153.933 47.1067 153.372L50.9634 139.476C51.0417 139.194 51.0625 138.899 51.0246 138.609C50.9868 138.318 50.891 138.038 50.743 137.786C50.595 137.533 50.3976 137.312 50.1627 137.136C49.9278 136.961 49.6601 136.834 49.3752 136.763Z" fill="#2C3E50"/>
<path d="M326.74 45.389C326.16 45.4349 325.621 45.7091 325.242 46.1513C324.864 46.5937 324.678 47.168 324.724 47.7476C324.77 48.3273 325.045 48.8649 325.488 49.2423L361.689 80.0611C362.029 80.3505 362.449 80.5295 362.894 80.5745C363.339 80.6194 363.786 80.5281 364.178 80.3127L411.166 54.4392C411.418 54.3001 411.641 54.1127 411.821 53.8876C412.001 53.6625 412.135 53.4041 412.215 53.1274C412.295 52.8507 412.32 52.5611 412.287 52.2749C412.255 51.9887 412.167 51.7117 412.027 51.4596C411.888 51.2074 411.7 50.9852 411.475 50.8054C411.249 50.6257 410.99 50.4919 410.713 50.412C410.435 50.332 410.145 50.3074 409.858 50.3394C409.571 50.3715 409.294 50.4596 409.041 50.5988L363.386 75.7399L328.34 45.9061C327.897 45.5289 327.321 45.3429 326.74 45.389Z" fill="#2C3E50"/>
<path d="M293.976 140.807C293.411 140.662 292.812 140.747 292.311 141.042C291.809 141.337 291.445 141.819 291.299 142.382C291.227 142.661 291.211 142.951 291.251 143.236C291.291 143.521 291.387 143.796 291.534 144.044C291.681 144.292 291.875 144.509 292.105 144.682C292.336 144.855 292.598 144.981 292.878 145.053C298.731 146.561 305.457 152.025 306.303 166.748C308.111 198.073 306.197 237.443 298.967 260.534C296.454 268.57 292.066 272.971 286.788 275.147C281.509 277.322 275.162 277.192 268.943 275.37C258.382 272.278 238.152 267.729 221.14 264.312C220.857 264.255 220.565 264.254 220.282 264.31C219.999 264.365 219.729 264.476 219.489 264.635C219.249 264.795 219.042 265 218.881 265.239C218.72 265.478 218.608 265.747 218.551 266.029C218.436 266.599 218.553 267.191 218.876 267.676C219.198 268.16 219.7 268.496 220.272 268.611C237.203 272.013 257.486 276.586 267.705 279.578C274.639 281.61 281.996 281.866 288.465 279.2C294.934 276.534 300.34 270.865 303.162 261.842C310.744 237.625 312.522 198.201 310.692 166.498C309.77 150.446 301.662 142.787 293.977 140.808L293.976 140.807ZM193.99 208.681C192.791 208.617 191.697 208.648 190.708 208.795C189.444 208.983 188.756 209.836 188.33 210.518C187.903 211.199 187.614 211.927 187.311 212.795C186.707 214.53 186.111 216.819 185.325 219.71C183.754 225.492 181.463 233.627 177.338 243.499C176.819 244.746 177.137 246.33 177.782 247.226C178.427 248.122 179.184 248.613 179.867 249.053C180.55 249.492 181.191 249.856 181.604 250.145C182.016 250.433 182.079 250.668 181.96 250.347C182.353 251.405 182.206 253.942 183.665 256.72C185.124 259.497 188.316 261.932 194.519 263.379C198.091 264.209 205.408 265.642 214.305 267.417C214.588 267.474 214.88 267.474 215.163 267.418C215.446 267.362 215.715 267.252 215.956 267.092C216.196 266.932 216.402 266.727 216.563 266.487C216.723 266.248 216.835 265.979 216.891 265.697C217.006 265.127 216.888 264.535 216.565 264.051C216.242 263.568 215.739 263.232 215.168 263.118C206.264 261.341 198.881 259.891 195.519 259.109C189.999 257.821 188.342 256.178 187.558 254.685C186.774 253.193 186.989 251.268 186.082 248.824C185.627 247.6 184.813 247.035 184.13 246.556C183.446 246.077 182.774 245.705 182.249 245.367C181.835 245.101 181.664 244.931 181.541 244.815C185.673 234.858 188.008 226.601 189.569 220.856C190.36 217.946 190.966 215.663 191.464 214.232C191.662 213.665 191.811 213.371 191.935 213.128C194.383 212.977 199.808 213.857 206.424 215.59C213.493 217.442 222.019 220.09 230.662 222.773C239.304 225.456 248.065 228.173 255.681 230.173C263.296 232.172 269.639 233.51 274.108 233.236C274.396 233.218 274.678 233.144 274.938 233.018C275.197 232.892 275.429 232.715 275.62 232.5C275.811 232.284 275.958 232.033 276.052 231.76C276.146 231.488 276.185 231.2 276.167 230.912C276.15 230.625 276.076 230.344 275.949 230.085C275.822 229.826 275.646 229.595 275.43 229.404C275.213 229.213 274.962 229.067 274.689 228.973C274.416 228.879 274.127 228.84 273.839 228.858C270.614 229.055 264.268 227.893 256.799 225.932C249.33 223.971 240.608 221.268 231.966 218.586C223.325 215.903 214.764 213.241 207.54 211.348C202.123 209.929 197.59 208.872 193.993 208.679L193.99 208.681Z" fill="#2C3E50"/>
<path d="M275.82 162.314C275.246 162.212 274.655 162.342 274.177 162.674C271.519 164.521 269.196 166.828 267.638 170.131C266.079 173.434 265.272 177.626 265.181 183.334C264.947 198.024 265.17 207.7 264.884 214.532C264.598 221.365 263.844 225.177 261.771 228.729C261.478 229.232 261.397 229.83 261.545 230.392C261.694 230.954 262.061 231.434 262.564 231.727C262.814 231.872 263.089 231.967 263.375 232.005C263.661 232.044 263.952 232.026 264.231 231.952C264.511 231.879 264.773 231.751 265.002 231.576C265.232 231.402 265.425 231.184 265.57 230.935C268.112 226.577 268.978 221.811 269.275 214.715C269.573 207.62 269.343 198.018 269.576 183.403C269.661 178.076 270.42 174.53 271.615 172C272.809 169.469 274.425 167.846 276.689 166.273C277.168 165.94 277.494 165.432 277.597 164.859C277.699 164.287 277.57 163.697 277.237 163.22C277.072 162.984 276.862 162.782 276.619 162.627C276.376 162.471 276.104 162.365 275.82 162.314Z" fill="#2C3E50"/>
<path d="M117.469 179.277C117.197 179.372 116.946 179.52 116.731 179.712C116.516 179.905 116.341 180.137 116.216 180.397C116.091 180.656 116.019 180.938 116.003 181.226C115.987 181.513 116.028 181.801 116.124 182.073C116.219 182.344 116.368 182.595 116.56 182.809C116.753 183.024 116.986 183.198 117.246 183.323C132.015 190.4 140.279 192.449 145.232 192.642C147.708 192.738 149.39 192.355 150.554 191.769C151.136 191.477 151.579 191.132 151.892 190.808C152.206 190.484 152.478 189.993 152.478 189.993C152.731 189.469 152.765 188.867 152.572 188.318C152.38 187.769 151.976 187.319 151.451 187.067C150.926 186.815 150.322 186.782 149.772 186.974C149.222 187.166 148.771 187.568 148.519 188.092C148.519 188.092 148.696 187.798 148.728 187.765C148.76 187.732 148.736 187.772 148.575 187.853C148.254 188.015 147.346 188.335 145.403 188.26C141.518 188.109 133.632 186.309 119.149 179.369C118.623 179.117 118.019 179.084 117.469 179.277Z" fill="#2C3E50"/>
<path d="M117.471 179.277C115.516 179.961 114.162 181.95 114.241 183.8C114.319 185.651 115.323 187.232 116.769 188.466C116.771 188.466 116.772 188.466 116.774 188.466C117.796 189.336 118.98 190.149 120.292 190.926C120.54 191.073 120.815 191.17 121.1 191.211C121.386 191.252 121.677 191.237 121.957 191.165C122.237 191.094 122.5 190.969 122.731 190.796C122.962 190.624 123.157 190.408 123.304 190.16C123.451 189.912 123.549 189.638 123.59 189.353C123.631 189.068 123.615 188.778 123.544 188.499C123.473 188.22 123.347 187.957 123.174 187.727C123.001 187.496 122.784 187.302 122.536 187.155C121.387 186.474 120.398 185.786 119.629 185.132C118.899 184.509 118.642 183.805 118.634 183.613C118.626 183.421 118.359 183.613 118.927 183.413C119.477 183.22 119.928 182.818 120.18 182.294C120.433 181.77 120.466 181.167 120.274 180.618C120.081 180.07 119.677 179.62 119.152 179.368C118.627 179.116 118.023 179.082 117.473 179.275L117.471 179.277ZM124.895 189.183C124.624 189.282 124.375 189.434 124.163 189.629C123.951 189.824 123.779 190.059 123.658 190.321C123.414 190.849 123.389 191.452 123.591 191.997C123.792 192.543 124.202 192.987 124.731 193.231C131.548 196.376 139.578 198.711 143.853 199.321C144.43 199.403 145.016 199.253 145.482 198.904C145.948 198.556 146.257 198.036 146.339 197.461C146.38 197.176 146.364 196.886 146.293 196.607C146.221 196.328 146.095 196.065 145.922 195.835C145.749 195.604 145.532 195.41 145.284 195.263C145.036 195.117 144.761 195.02 144.475 194.979C141.069 194.493 132.923 192.179 126.576 189.25C126.047 189.006 125.442 188.982 124.895 189.183Z" fill="#2C3E50"/>
<path d="M120.129 185.644C119.585 185.434 118.981 185.448 118.448 185.682C117.915 185.917 117.497 186.354 117.286 186.896C116.718 188.358 116.683 190.01 117.241 191.401C117.799 192.792 118.778 193.878 119.956 194.917C123.707 198.218 128.454 200.749 132.677 202.681C136.899 204.614 140.702 205.974 142.102 206.588C142.366 206.704 142.65 206.767 142.939 206.773C143.227 206.779 143.514 206.728 143.783 206.624C144.052 206.519 144.298 206.363 144.506 206.164C144.715 205.965 144.882 205.726 144.998 205.463C145.114 205.199 145.177 204.915 145.183 204.627C145.189 204.34 145.139 204.053 145.034 203.785C144.929 203.516 144.772 203.271 144.573 203.063C144.373 202.856 144.134 202.689 143.87 202.573C142.044 201.773 138.531 200.536 134.508 198.695C130.486 196.855 126.058 194.439 122.865 191.629C121.955 190.826 121.485 190.18 121.32 189.769C121.155 189.358 121.126 189.137 121.382 188.479C121.486 188.21 121.537 187.924 121.53 187.636C121.523 187.348 121.46 187.064 121.343 186.801C121.227 186.538 121.059 186.299 120.851 186.101C120.642 185.902 120.396 185.746 120.127 185.642L120.129 185.644Z" fill="#2C3E50"/>
<path d="M129.812 196.453C129.529 196.393 129.238 196.389 128.954 196.441C128.67 196.493 128.399 196.6 128.157 196.756C127.914 196.913 127.705 197.115 127.542 197.353C127.378 197.59 127.262 197.857 127.202 198.138C126.757 200.21 127.523 202.207 128.671 203.671C129.819 205.134 131.339 206.264 132.934 207.244C136.126 209.205 139.786 210.579 141.268 211.254C141.531 211.374 141.814 211.44 142.103 211.451C142.391 211.461 142.679 211.414 142.949 211.314C143.22 211.213 143.468 211.06 143.679 210.864C143.89 210.667 144.061 210.431 144.18 210.169C144.3 209.907 144.367 209.624 144.378 209.336C144.388 209.049 144.341 208.762 144.24 208.492C144.139 208.222 143.985 207.974 143.789 207.764C143.592 207.553 143.355 207.383 143.092 207.264C141.251 206.425 137.92 205.157 135.239 203.51C133.899 202.686 132.763 201.77 132.133 200.967C131.503 200.164 131.368 199.673 131.501 199.056C131.623 198.487 131.513 197.894 131.196 197.406C130.88 196.917 130.382 196.575 129.812 196.453Z" fill="#2C3E50"/>
<path d="M134.629 203.685C134.343 203.722 134.067 203.815 133.817 203.959C133.566 204.102 133.347 204.293 133.17 204.521C132.994 204.749 132.864 205.01 132.789 205.288C132.714 205.566 132.694 205.856 132.731 206.142C133.274 210.332 135.977 213.098 139.115 214.882C142.253 216.667 145.917 217.845 149.54 219.598C149.542 219.598 149.544 219.598 149.546 219.598C152.258 220.903 155.113 221.025 160.065 222.758C165.018 224.492 172.06 227.729 182.391 234.817C182.629 234.98 182.897 235.095 183.179 235.155C183.461 235.215 183.753 235.219 184.036 235.166C184.32 235.114 184.591 235.006 184.833 234.85C185.075 234.693 185.284 234.49 185.447 234.253C185.611 234.015 185.726 233.748 185.786 233.467C185.846 233.185 185.85 232.895 185.797 232.611C185.745 232.328 185.637 232.058 185.48 231.816C185.323 231.575 185.12 231.367 184.882 231.203C174.296 223.94 166.861 220.489 161.52 218.62C156.179 216.751 152.925 216.355 151.456 215.648C147.509 213.74 143.83 212.514 141.293 211.072C138.756 209.629 137.452 208.344 137.093 205.578C137.056 205.293 136.963 205.017 136.82 204.767C136.676 204.518 136.484 204.298 136.256 204.123C136.027 203.947 135.766 203.817 135.487 203.742C135.209 203.667 134.918 203.647 134.632 203.684L134.629 203.685Z" fill="#2C3E50"/>
<path d="M113.013 154.659C112.436 154.58 111.851 154.733 111.387 155.085C110.922 155.436 110.617 155.957 110.538 156.533C110.498 156.818 110.516 157.108 110.589 157.387C110.662 157.666 110.789 157.927 110.964 158.157C111.138 158.386 111.356 158.579 111.605 158.724C111.854 158.87 112.13 158.965 112.416 159.004L136.848 162.352L144.546 191.013C144.697 191.575 145.065 192.054 145.57 192.344C146.075 192.635 146.675 192.714 147.238 192.564C147.801 192.413 148.281 192.046 148.572 191.542C148.863 191.038 148.942 190.44 148.792 189.878L140.715 159.81C140.603 159.394 140.371 159.019 140.046 158.734C139.722 158.449 139.32 158.265 138.892 158.206L113.013 154.659Z" fill="#2C3E50"/>
<path d="M191.127 167.047C190.545 167.017 189.975 167.219 189.542 167.608C189.109 167.997 188.849 168.542 188.819 169.123C188.581 173.69 187.397 191.43 183.306 211.251C183.189 211.82 183.303 212.413 183.623 212.899C183.943 213.385 184.444 213.723 185.015 213.841C185.297 213.899 185.589 213.901 185.872 213.847C186.155 213.792 186.425 213.683 186.667 213.525C186.908 213.366 187.115 213.162 187.277 212.924C187.439 212.685 187.552 212.417 187.61 212.135C191.772 191.973 192.962 174.081 193.208 169.351C193.223 169.063 193.181 168.775 193.084 168.504C192.988 168.233 192.839 167.983 192.646 167.769C192.452 167.555 192.219 167.381 191.958 167.257C191.698 167.133 191.415 167.062 191.127 167.047ZM181.231 228.87C180.673 228.7 180.071 228.759 179.557 229.032C179.042 229.306 178.658 229.772 178.488 230.328C175.183 241.15 170.844 251.541 165.273 259.72C165.524 259.351 158.915 261.628 160.332 269.945C160.43 270.519 160.752 271.03 161.227 271.366C161.702 271.703 162.292 271.837 162.867 271.74C163.441 271.642 163.954 271.321 164.291 270.847C164.628 270.373 164.763 269.784 164.665 269.211C163.533 262.564 166.11 266.298 168.91 262.182C174.854 253.455 179.305 242.699 182.692 231.605C182.862 231.049 182.804 230.448 182.53 229.935C182.256 229.422 181.788 229.038 181.231 228.869L181.231 228.87Z" fill="#2C3E50"/>
<path d="M288.471 274.778C287.895 274.694 287.308 274.841 286.84 275.188C286.373 275.535 286.062 276.053 285.977 276.628C285.098 282.59 287.912 286.097 289.27 288.074C289.948 289.062 290.166 289.535 290.134 290.112C290.101 290.689 289.714 291.825 288.052 293.768C287.674 294.211 287.487 294.785 287.533 295.365C287.579 295.944 287.854 296.482 288.297 296.859C288.741 297.237 289.316 297.423 289.897 297.377C290.478 297.331 291.017 297.057 291.396 296.614C293.371 294.304 294.411 292.351 294.523 290.357C294.635 288.364 293.714 286.786 292.896 285.595C291.26 283.213 289.651 281.852 290.327 277.266C290.369 276.981 290.354 276.691 290.283 276.412C290.213 276.133 290.088 275.87 289.916 275.639C289.743 275.408 289.527 275.213 289.279 275.065C289.031 274.917 288.757 274.82 288.471 274.778Z" fill="#2C3E50"/>
<path d="M167.128 267.053C162.467 267.192 157.974 267.841 153.712 269.116C142.345 272.515 132.768 280.52 126.654 294.53C122.854 303.234 109.855 337.905 97.553 370.997C91.402 387.543 85.4466 403.648 80.9586 415.788C78.7146 421.858 76.8374 426.937 75.4868 430.583C74.1362 434.23 73.2311 436.638 73.1947 436.728C73.1947 436.73 73.1947 436.732 73.1947 436.733C71.7393 440.327 72.259 444.163 74.3279 447.387C76.3967 450.611 79.8386 453.375 84.3592 455.855C88.1719 457.949 93.3543 459.412 97.9909 460.18C100.309 460.564 102.473 460.766 104.307 460.729C105.224 460.71 106.057 460.638 106.843 460.455C107.628 460.272 108.425 460.031 109.164 459.244C109.683 458.693 109.771 458.444 110.132 457.86C110.494 457.274 110.948 456.508 111.489 455.574C112.571 453.706 113.999 451.17 115.657 448.187C118.974 442.221 123.211 434.471 127.387 426.783C134.103 414.422 138.309 406.576 140.624 402.268C142.647 417.893 150.335 471.976 165.926 516.109C166.574 517.936 168.126 519.118 169.861 519.863C171.595 520.608 173.641 521.003 175.933 521.164C180.518 521.486 186.098 520.833 191.634 519.207C199.202 516.985 204.255 513.264 207.275 509.395C210.296 505.527 211.425 501.631 210.704 498.501C197.176 440.009 189.78 353.835 189.047 345.054C196.722 347.447 229.076 356.279 269.784 347.039C282.871 344.071 290.198 335.476 293.671 326.08C297.144 316.684 297.045 306.493 295.974 299.342C295.681 297.393 294.422 295.8 292.775 294.552C291.127 293.305 289.013 292.28 286.41 291.302C281.206 289.345 274.021 287.609 265.012 285.706C246.993 281.899 221.722 277.479 191.538 270.074C183.129 268.011 174.895 266.825 167.128 267.056V267.053ZM167.275 271.45C174.509 271.241 182.35 272.333 190.489 274.33C220.831 281.774 246.223 286.216 264.101 289.993C273.039 291.882 280.112 293.618 284.86 295.403C287.234 296.296 289.019 297.211 290.119 298.044C291.219 298.876 291.554 299.502 291.627 299.989C292.61 306.558 292.646 316.176 289.547 324.562C286.447 332.948 280.496 340.111 268.809 342.762C223.736 352.992 187.312 339.979 187.312 339.979C186.966 339.855 186.594 339.82 186.231 339.877C185.868 339.933 185.525 340.079 185.233 340.302C184.941 340.525 184.71 340.817 184.561 341.152C184.412 341.487 184.349 341.854 184.379 342.22C184.379 342.22 192.031 437.266 206.421 499.483C206.673 500.574 206.214 503.623 203.81 506.7C201.407 509.778 197.2 513.002 190.395 515C185.332 516.487 180.148 517.063 176.245 516.789C174.293 516.652 172.665 516.292 171.601 515.835C170.539 515.379 170.168 514.912 170.073 514.648C152.091 463.745 144.103 395 144.103 395C144.049 394.536 143.848 394.101 143.529 393.759C143.211 393.417 142.791 393.186 142.331 393.099C141.871 393.011 141.395 393.073 140.973 393.274C140.55 393.475 140.203 393.806 139.982 394.217C139.982 394.217 131.873 409.33 123.526 424.692C119.353 432.374 115.12 440.118 111.817 446.06C110.165 449.03 108.744 451.552 107.686 453.379C107.157 454.292 106.718 455.033 106.394 455.556C106.133 455.979 106.003 456.139 106.046 456.111C106.001 456.133 105.967 456.156 105.848 456.184C105.511 456.262 104.933 456.33 104.221 456.344C102.798 456.373 100.835 456.204 98.7141 455.853C94.4732 455.15 89.537 453.691 86.4818 452.013C82.3604 449.752 79.5013 447.311 78.0333 445.023C76.566 442.736 76.3131 440.754 77.2736 438.38C77.2734 438.38 77.2737 438.379 77.2736 438.38C77.5178 437.779 78.2631 435.757 79.6141 432.11C80.9657 428.461 82.8429 423.381 85.0868 417.311C89.5747 405.172 95.5288 389.069 101.678 372.528C113.977 339.445 127.137 304.422 130.688 296.287C136.387 283.228 144.744 276.383 154.977 273.323C158.814 272.176 162.937 271.581 167.278 271.456L167.275 271.45Z" fill="#2C3E50"/>
<mask id="mask7_119_3916" style="mask-type:luminance" maskUnits="userSpaceOnUse" x="-740" y="-3167" width="1364" height="7197">
<path d="M623.226 4029L623.226 -3166.11H-739.531L-739.531 4029H623.226Z" fill="white"/>
</mask>
<g mask="url(#mask7_119_3916)">
<path fill-rule="evenodd" clip-rule="evenodd" d="M141.916 395.25C141.916 395.25 109.473 455.713 107.561 457.742C105.654 459.775 92.2866 457.703 85.4187 453.932C76.7762 449.19 72.8149 443.522 75.2324 437.552C76.3532 434.795 121.318 312.245 128.67 295.405C140.482 268.336 164.536 265.705 191.013 272.201C251.538 287.051 292.339 289.923 293.8 299.664C295.855 313.385 294.069 339.281 269.296 344.9C223.578 355.277 186.568 342.044 186.568 342.044C186.568 342.044 194.244 437.086 208.562 498.992C209.534 503.213 205.386 512.883 191.013 517.104C180.415 520.217 169.481 519.559 167.998 515.377C149.878 464.084 141.916 395.25 141.916 395.25Z" fill="#2C3E50"/>
</g>
<path d="M85.0896 174.562C84.552 174.542 84.1252 174.657 83.7375 174.819C83.069 175.098 82.5199 175.582 82.0603 176.196C80.4281 176.202 78.8655 176.698 77.4953 177.439C75.6415 178.44 74.043 179.872 72.6545 181.403C69.8777 184.465 67.9993 187.741 67.2815 189.722C64.7489 196.67 70.1135 204.813 77.6627 204.543C79.654 204.472 81.312 203.495 82.8243 202.297C84.3367 201.1 85.719 199.596 86.9343 198.046C88.1496 196.495 89.1884 194.903 89.9529 193.501C90.3352 192.799 90.6481 192.148 90.8854 191.537C91.1227 190.926 91.3326 190.431 91.319 189.572C91.2849 187.432 89.9659 186.196 88.9088 185.003C87.8519 183.81 86.7514 182.582 85.9116 180.886C85.6326 180.321 85.5993 180.031 85.5468 179.726C85.5858 179.751 85.6088 179.768 85.6487 179.794C86.5076 180.354 87.6051 181.051 88.7553 181.782C91.056 183.245 93.6295 184.898 94.6123 185.637C95.513 186.315 95.9787 187.357 96.3411 188.915C96.7037 190.474 96.8536 192.385 97.4979 194.31C97.9499 195.662 98.7355 196.48 99.716 197.553C100.697 198.627 101.892 199.77 103.128 200.871C105.602 203.074 107.941 204.977 109.658 205.859C109.915 205.991 110.195 206.071 110.483 206.095C110.77 206.119 111.06 206.086 111.335 205.998C111.61 205.911 111.865 205.77 112.085 205.583C112.305 205.397 112.487 205.17 112.619 204.914C112.886 204.397 112.936 203.795 112.758 203.241C112.58 202.688 112.189 202.227 111.67 201.961C111.168 201.703 108.368 199.66 106.056 197.6C104.9 196.57 103.791 195.503 102.965 194.599C102.14 193.695 101.617 192.77 101.668 192.922C101.268 191.728 101.081 189.892 100.624 187.925C100.166 185.958 99.3296 183.694 97.2586 182.136C95.9063 181.12 93.423 179.551 91.1194 178.086C89.9676 177.354 88.8764 176.661 88.0568 176.126C87.6469 175.859 87.3031 175.629 87.0695 175.466C86.836 175.304 86.5772 175.014 86.9225 175.392L86.9302 175.4C86.3696 174.782 85.6296 174.585 85.092 174.565L85.0896 174.562ZM81.2479 180.663C81.3889 181.364 81.6021 182.084 81.969 182.826C83.1127 185.137 84.5861 186.745 85.6154 187.906C86.6448 189.068 86.9245 189.703 86.9236 189.641C86.9181 189.303 86.9291 189.591 86.7862 189.952C86.6459 190.314 86.4057 190.827 86.0908 191.404C85.4608 192.56 84.5309 193.99 83.4702 195.343C82.4096 196.697 81.2067 197.978 80.0911 198.861C78.9754 199.745 77.9629 200.144 77.5038 200.16C73.374 200.307 69.9822 195.133 71.4119 191.217C71.4119 191.215 71.4119 191.213 71.4119 191.211C71.727 190.342 73.583 186.909 75.9103 184.343C77.0739 183.06 78.3703 181.949 79.5857 181.293C80.1759 180.974 80.7218 180.77 81.2446 180.661L81.2479 180.663Z" fill="#2C3E50"/>
<path d="M72.425 197.844C71.878 197.644 71.2735 197.668 70.7445 197.912C70.2154 198.156 69.8052 198.6 69.6039 199.145C69.4027 199.691 69.427 200.294 69.6714 200.822C71.7842 205.383 75.7619 207.669 79.2606 208.796C81.0099 209.36 82.6714 209.664 84.0241 209.871C85.3763 210.078 86.5133 210.229 86.7444 210.29C86.5567 210.24 87.5639 210.717 88.5655 211.489C89.567 212.261 90.7715 213.302 91.9576 214.388C94.3297 216.56 96.6987 218.98 97.4111 219.781C97.7979 220.216 98.342 220.48 98.9238 220.515C99.5056 220.55 100.077 220.352 100.513 219.966C100.95 219.581 101.214 219.038 101.249 218.457C101.284 217.877 101.087 217.306 100.7 216.871C99.7313 215.781 97.4166 213.435 94.929 211.157C93.6852 210.018 92.4154 208.914 91.2525 208.018C90.0897 207.122 89.2415 206.41 87.8615 206.048C86.8971 205.796 85.9323 205.727 84.6905 205.537C83.4488 205.347 82.0246 205.078 80.6127 204.623C77.7889 203.713 75.1427 202.178 73.6623 198.983C73.5412 198.721 73.3697 198.486 73.1576 198.291C72.9455 198.096 72.6969 197.944 72.426 197.844H72.425Z" fill="#2C3E50"/>
<path d="M96.5515 213.377C96.2638 213.354 95.9743 213.388 95.6996 213.476C95.4248 213.565 95.1703 213.707 94.9505 213.893C94.9505 213.893 92.872 215.651 90.8491 218.048C88.8261 220.444 86.4789 223.427 86.9419 227.066C87.0153 227.643 87.3152 228.167 87.7758 228.523C88.2365 228.879 88.8201 229.038 89.3982 228.965C89.6846 228.929 89.961 228.837 90.2117 228.694C90.4624 228.551 90.6823 228.36 90.8591 228.133C91.0359 227.905 91.1661 227.645 91.242 227.367C91.318 227.089 91.3383 226.799 91.3019 226.513C91.1825 225.575 92.4622 222.944 94.2111 220.872C95.96 218.8 97.7985 217.234 97.7985 217.234C98.0183 217.047 98.1992 216.819 98.3307 216.563C98.4623 216.307 98.5419 216.027 98.5651 215.74C98.5884 215.453 98.5547 215.164 98.4661 214.89C98.3774 214.616 98.2355 214.362 98.0485 214.143C97.8616 213.924 97.6332 213.743 97.3763 213.612C97.1195 213.48 96.8392 213.401 96.5515 213.377Z" fill="#2C3E50"/>
<path d="M71.9362 197.725C71.3577 197.654 70.7746 197.815 70.3152 198.173C69.8558 198.531 69.5576 199.056 69.4863 199.633L61.4423 264.608C61.3928 265.009 61.4551 265.416 61.6224 265.784C61.7897 266.151 62.0556 266.465 62.3907 266.692C62.7257 266.919 63.117 267.048 63.5213 267.067C63.9256 267.086 64.3273 266.993 64.682 266.799L70.6871 263.504C70.9957 263.335 71.2591 263.095 71.455 262.803C71.6509 262.511 71.7736 262.176 71.8128 261.827L72.0725 259.51L71.9963 274.185C71.9943 274.584 72.1012 274.975 72.3053 275.317C72.5095 275.659 72.8032 275.94 73.155 276.128C73.5068 276.317 73.9034 276.406 74.3022 276.386C74.7009 276.367 75.0868 276.239 75.4184 276.017L80.4952 272.618C80.6408 272.52 80.7741 272.405 80.8923 272.275C81.2127 275.992 81.5373 279.764 81.8195 282.71C82.1145 285.759 82.3847 288.291 82.6211 290.129C82.7392 291.048 82.8476 291.789 82.9559 292.371C83.0103 292.663 83.0607 292.911 83.1329 293.168C83.1692 293.297 83.2086 293.425 83.2821 293.6C83.3551 293.775 83.3935 293.996 83.8369 294.424C85.0113 295.56 86.4333 295.374 87.3792 295.133C88.3266 294.891 89.1677 294.479 89.9729 294.027C90.7781 293.574 91.5249 293.075 92.1395 292.618C92.7489 292.164 93.1064 291.953 93.6364 291.276C94.0643 290.734 94.0427 290.499 94.0764 290.337C94.1105 290.172 94.1165 290.079 94.1226 289.997C94.1346 289.832 94.1325 289.724 94.1303 289.608C94.1248 289.376 94.1088 289.131 94.0852 288.827C94.0374 288.22 93.9559 287.398 93.8427 286.362C93.6164 284.291 93.2655 281.379 92.8254 277.861C92.3353 273.905 91.7251 269.199 91.0548 264.085C90.549 260.207 90.0046 256.099 89.4441 251.91C86.229 227.805 82.5419 201.058 82.5419 201.058C82.5026 200.773 82.4074 200.498 82.2616 200.25C82.1159 200.001 81.9225 199.784 81.6925 199.61C81.4625 199.436 81.2004 199.309 80.9212 199.236C80.642 199.163 80.3511 199.145 80.0651 199.185C79.7792 199.224 79.5038 199.319 79.2547 199.464C79.0056 199.61 78.7876 199.803 78.6132 200.032C78.4388 200.262 78.3115 200.523 78.2384 200.802C78.1653 201.08 78.1479 201.371 78.1872 201.656C78.1872 201.656 79.3583 210.307 79.6498 212.43C79.3151 212.255 78.9408 212.168 78.563 212.18C78.1852 212.191 77.8167 212.299 77.493 212.494C77.1694 212.689 76.9016 212.963 76.7154 213.292C76.5293 213.62 76.4312 213.991 76.4305 214.368L76.4712 217.953C76.312 217.521 76.0204 217.149 75.6376 216.892C75.2549 216.634 74.8005 216.503 74.3389 216.517C73.8774 216.532 73.4321 216.691 73.0663 216.972C72.7005 217.253 72.4328 217.642 72.3012 218.084L67.572 260.211L66.3315 260.892L73.8486 200.173C73.884 199.887 73.8626 199.597 73.7857 199.319C73.7087 199.042 73.5777 198.782 73.4002 198.555C73.2226 198.328 73.0019 198.138 72.7507 197.996C72.4996 197.854 72.2228 197.763 71.9363 197.728L71.9362 197.725ZM81.9622 229.468C83.225 238.736 83.632 241.578 85.087 252.487C85.6472 256.674 86.1905 260.776 86.6956 264.649C87.3657 269.762 87.9752 274.461 88.463 278.398C88.9019 281.907 89.2514 284.808 89.4728 286.834C89.5739 287.759 89.64 288.443 89.6831 288.962C89.5763 289.056 89.6331 289.008 89.5114 289.098C89.0401 289.449 88.42 289.864 87.8159 290.203C87.5403 290.358 87.3697 290.4 87.1206 290.512C87.0733 290.188 87.0341 289.981 86.9811 289.568C86.756 287.818 86.4872 285.311 86.1945 282.287C85.8166 278.342 85.3886 273.515 84.9497 268.276C84.5931 264.029 84.2306 259.509 83.868 254.961C82.8758 242.383 82.5296 237.286 81.9622 229.466V229.468ZM76.6181 230.85L77.0602 269.637L76.4132 270.071L76.6181 230.85Z" fill="#2C3E50"/>
<mask id="mask8_119_3916" style="mask-type:luminance" maskUnits="userSpaceOnUse" x="-740" y="-3167" width="1364" height="7197">
<path d="M623.226 4029L623.226 -3166.11H-739.531L-739.531 4029H623.226Z" fill="white"/>
</mask>
<g mask="url(#mask8_119_3916)">
<path fill-rule="evenodd" clip-rule="evenodd" d="M71.6667 199.902C73.2161 201.454 75.2874 202.435 77.584 202.353C78.4685 202.32 79.4136 201.952 80.3641 201.355C80.3641 201.355 84.0507 228.1 87.2649 252.198C87.8253 256.386 88.3693 260.492 88.8747 264.368C89.545 269.482 90.1549 274.186 90.6439 278.132C91.523 285.16 92.045 289.759 91.9131 289.924C91.3417 290.658 86.6166 294.068 85.3639 292.851C85.0837 292.582 84.5947 288.575 84.0068 282.502C83.6277 278.544 83.1991 273.709 82.7596 268.463C82.4025 264.209 82.0399 259.687 81.6772 255.137C80.0894 235.008 78.6279 214.341 78.6279 214.341L79.2707 270.798L74.194 274.197L74.4852 218.326L69.6283 261.583L63.623 264.878L71.6667 199.902Z" fill="#2C3E50"/>
</g>
<path d="M112.074 247.627C111.788 247.668 111.514 247.765 111.266 247.912C111.018 248.06 110.801 248.255 110.628 248.485C110.456 248.716 110.331 248.979 110.26 249.258C110.189 249.537 110.174 249.828 110.215 250.113L112.803 267.851C112.851 268.184 112.976 268.501 113.166 268.778C113.357 269.055 113.609 269.285 113.903 269.449C114.197 269.613 114.525 269.708 114.862 269.726C115.198 269.743 115.534 269.684 115.844 269.551L122.689 266.624C123.166 266.42 123.556 266.054 123.788 265.591C124.021 265.127 124.082 264.597 123.96 264.093L121.855 255.416C121.718 254.85 121.362 254.363 120.864 254.06C120.367 253.757 119.769 253.663 119.203 253.8C118.636 253.937 118.147 254.292 117.844 254.789C117.54 255.285 117.446 255.881 117.583 256.447L119.251 263.323L116.741 264.396L114.565 249.481C114.481 248.906 114.171 248.387 113.704 248.039C113.237 247.691 112.651 247.543 112.074 247.627Z" fill="#2C3E50"/>
<mask id="mask9_119_3916" style="mask-type:luminance" maskUnits="userSpaceOnUse" x="-740" y="-3167" width="1364" height="7197">
<path d="M623.226 4029L623.226 -3166.11H-739.531L-739.531 4029H623.226Z" fill="white"/>
</mask>
<g mask="url(#mask9_119_3916)">
<path fill-rule="evenodd" clip-rule="evenodd" d="M112.391 249.797C114.693 251.781 117.16 253.853 119.72 255.931L121.824 264.609L114.978 267.536L112.391 249.797Z" fill="#2C3E50"/>
</g>
<path d="M112.052 246.982C111.768 246.926 111.477 246.927 111.194 246.983C110.911 247.04 110.642 247.152 110.402 247.313L62.7608 279.205C62.3333 279.492 62.0201 279.918 61.8757 280.411C61.7314 280.904 61.7651 281.433 61.971 281.903L66.4051 292.045C66.5216 292.311 66.69 292.551 66.9005 292.752C67.111 292.953 67.3594 293.11 67.6313 293.214C67.9032 293.318 68.1931 293.368 68.4842 293.359C68.7754 293.351 69.0619 293.285 69.3272 293.164L77.0803 289.656C77.1854 289.608 77.2866 289.552 77.3829 289.489L118.315 262.541C118.802 262.22 119.141 261.72 119.257 261.151C119.374 260.581 119.26 259.988 118.939 259.503C118.618 259.018 118.117 258.68 117.546 258.563C116.975 258.446 116.381 258.561 115.894 258.881L75.1058 285.734L69.5418 288.252L66.7335 281.827L112.851 250.954C113.091 250.794 113.297 250.588 113.456 250.348C113.616 250.108 113.727 249.839 113.783 249.557C113.839 249.274 113.839 248.983 113.782 248.701C113.725 248.419 113.613 248.15 113.452 247.911C113.127 247.428 112.623 247.094 112.052 246.982Z" fill="#2C3E50"/>
<path d="M76.1393 285.467C75.5566 285.475 75.0013 285.714 74.5954 286.132C74.1895 286.549 73.9662 287.11 73.9748 287.691L75.0737 361.712C75.0825 362.294 75.3223 362.848 75.7405 363.253C76.1587 363.658 76.7209 363.88 77.3036 363.872C77.8863 363.863 78.4417 363.624 78.8476 363.207C79.2535 362.789 79.4767 362.228 79.4681 361.647L78.3692 287.627C78.365 287.339 78.304 287.055 78.1897 286.79C78.0753 286.526 77.9099 286.287 77.7028 286.086C77.4957 285.885 77.2511 285.727 76.9828 285.621C76.7145 285.515 76.4279 285.462 76.1393 285.467Z" fill="#2C3E50"/>
<path d="M64.546 278.907C63.9825 278.758 63.3829 278.839 62.8792 279.132C62.3755 279.424 62.0089 279.905 61.8601 280.467L43.4156 350.134C43.3419 350.413 43.3239 350.703 43.3627 350.989C43.4014 351.274 43.4962 351.549 43.6415 351.798C43.7868 352.047 43.9798 352.265 44.2095 352.439C44.4392 352.613 44.701 352.741 44.9802 352.814C45.5437 352.963 46.1433 352.882 46.647 352.589C47.1507 352.297 47.5173 351.817 47.6661 351.254L66.1095 281.587C66.2584 281.025 66.1773 280.426 65.8841 279.924C65.5908 279.421 65.1095 279.055 64.546 278.907Z" fill="#2C3E50"/>
<path d="M68.7379 288.998C68.1613 288.913 67.5748 289.061 67.1073 289.408C66.6398 289.755 66.3297 290.273 66.245 290.849L57.2782 351.833C57.2363 352.118 57.251 352.409 57.3215 352.688C57.3921 352.967 57.5171 353.23 57.6893 353.461C57.8616 353.692 58.0778 353.887 58.3256 354.034C58.5734 354.182 58.848 354.28 59.1336 354.321C59.4192 354.363 59.7102 354.349 59.9901 354.278C60.27 354.208 60.5333 354.083 60.7649 353.911C60.9964 353.739 61.1918 353.524 61.3398 353.276C61.4878 353.029 61.5856 352.755 61.6275 352.47L70.5943 291.486C70.6363 291.201 70.6215 290.91 70.5509 290.631C70.4803 290.351 70.3552 290.089 70.1828 289.858C70.0104 289.627 69.794 289.432 69.5461 289.284C69.2982 289.137 69.0236 289.039 68.7379 288.998Z" fill="#2C3E50"/>
<path d="M45.7714 348.513C45.4843 348.483 45.1941 348.51 44.9173 348.591C44.6405 348.673 44.3827 348.809 44.1584 348.99C43.934 349.171 43.7477 349.395 43.61 349.648C43.4723 349.901 43.3859 350.179 43.3558 350.465C43.3256 350.751 43.3522 351.041 43.4342 351.317C43.5162 351.593 43.6519 351.85 43.8336 352.074C44.0153 352.298 44.2393 352.484 44.493 352.621C44.7467 352.759 45.025 352.845 45.3121 352.875L58.7945 354.288L76.2324 363.612C76.4868 363.748 76.7655 363.832 77.0527 363.861C77.34 363.89 77.63 363.862 77.9063 363.779C78.1827 363.695 78.4398 363.559 78.6632 363.376C78.8866 363.194 79.0717 362.969 79.2081 362.716C79.3445 362.462 79.4295 362.184 79.4581 361.897C79.4867 361.61 79.4585 361.321 79.375 361.045C79.2915 360.77 79.1543 360.513 78.9714 360.29C78.7884 360.067 78.5634 359.883 78.3089 359.747L60.4911 350.22C60.2401 350.086 59.9653 350.001 59.682 349.971L45.7714 348.513Z" fill="#2C3E50"/>
<path d="M54.4936 270.548C53.948 270.753 53.5062 271.165 53.2654 271.695C53.0245 272.224 53.0042 272.827 53.2091 273.372L56.379 281.797C56.5361 282.214 56.8172 282.575 57.1847 282.829C57.5523 283.083 57.9889 283.219 58.4362 283.22H63.9852C64.568 283.22 65.127 282.989 65.5392 282.577C65.9513 282.166 66.1829 281.608 66.1829 281.027C66.1829 280.445 65.9513 279.887 65.5392 279.476C65.127 279.065 64.568 278.834 63.9852 278.834H59.9589L57.3234 271.83C57.1184 271.286 56.7051 270.845 56.1745 270.605C55.6438 270.364 55.0392 270.344 54.4936 270.548Z" fill="#2C3E50"/>
<path d="M38.3788 337.196L29.6534 339.246C29.3725 339.312 29.1074 339.432 28.8731 339.6C28.6389 339.769 28.4402 339.981 28.2883 340.226C28.1364 340.471 28.0344 340.743 27.988 341.027C27.9417 341.312 27.9518 341.602 28.018 341.883C28.0842 342.163 28.205 342.427 28.3736 342.661C28.5422 342.895 28.7554 343.093 29.0008 343.244C29.2463 343.396 29.5192 343.498 29.8041 343.544C30.0889 343.59 30.3801 343.58 30.6611 343.514L37.8047 341.835L43.6445 351.8C43.9386 352.302 44.4204 352.667 44.9841 352.814C45.5477 352.962 46.1471 352.88 46.6503 352.587C46.8995 352.442 47.1176 352.249 47.2922 352.019C47.4667 351.79 47.5943 351.529 47.6675 351.25C47.7408 350.971 47.7583 350.681 47.7191 350.396C47.6799 350.111 47.5847 349.836 47.439 349.587L40.7793 338.223C40.5419 337.818 40.1806 337.5 39.7486 337.315C39.3165 337.131 38.8364 337.089 38.3788 337.196Z" fill="#2C3E50"/>
<path d="M59.1337 278.948C58.581 278.763 57.9775 278.805 57.4559 279.065C56.9342 279.324 56.5373 279.78 56.3522 280.331L36.7982 338.635C36.6132 339.186 36.6554 339.788 36.9154 340.309C37.1754 340.829 37.632 341.225 38.1846 341.41C38.7373 341.594 39.3409 341.552 39.8625 341.293C40.3841 341.033 40.7811 340.578 40.9661 340.027L60.5202 281.723C60.7051 281.171 60.6629 280.569 60.4029 280.049C60.1429 279.529 59.6864 279.132 59.1337 278.948Z" fill="#2C3E50"/>
<path d="M205.417 505.316C204.855 505.473 204.379 505.845 204.093 506.352C203.807 506.858 203.734 507.458 203.891 508.018C205.345 513.216 207.711 518.021 209.691 521.995C211.671 525.969 213.144 529.394 213.191 530.366C213.384 534.312 213.776 541.886 213.489 549.073C213.345 552.666 213.027 556.162 212.458 558.985C211.89 561.808 210.964 563.924 210.236 564.684C207.189 567.862 204.874 568.147 203.19 567.951C201.506 567.754 200.561 566.989 200.561 566.989C200.107 566.625 199.526 566.455 198.947 566.518C198.367 566.581 197.837 566.87 197.471 567.323C197.29 567.548 197.155 567.805 197.074 568.082C196.993 568.358 196.967 568.648 196.998 568.934C197.029 569.22 197.116 569.498 197.255 569.751C197.393 570.003 197.58 570.226 197.805 570.407C197.805 570.407 199.756 571.966 202.68 572.307C205.605 572.648 209.611 571.683 213.414 567.714C215.266 565.78 216.124 563.041 216.767 559.85C217.41 556.659 217.731 552.982 217.881 549.249C218.18 541.782 217.773 534.082 217.581 530.156C217.43 527.05 215.596 523.998 213.627 520.045C211.658 516.093 209.433 511.521 208.124 506.841C207.967 506.281 207.594 505.806 207.086 505.52C206.579 505.235 205.978 505.162 205.417 505.318V505.316Z" fill="#2C3E50"/>
<path d="M180.902 516.788C180.615 516.756 180.325 516.781 180.047 516.861C179.77 516.94 179.511 517.074 179.286 517.254C178.83 517.617 178.538 518.145 178.473 518.723C178.408 519.301 178.575 519.881 178.939 520.335C191.469 535.998 195.871 558.604 200.513 591.544C200.942 594.582 202.524 597.019 204.743 598.412C206.961 599.804 209.659 600.202 212.396 599.911C217.871 599.328 223.767 596.046 227.728 590.623C229.549 588.128 229.987 584.631 230.242 580.361C230.497 576.091 230.352 571.102 230.028 566.155C229.38 556.261 228.014 546.6 227.533 543.645C226.351 536.376 219.845 530.392 216.689 527.752C216.467 527.566 216.212 527.427 215.936 527.34C215.661 527.254 215.371 527.222 215.084 527.247C214.796 527.273 214.516 527.354 214.26 527.487C214.004 527.621 213.777 527.803 213.592 528.023C213.217 528.469 213.036 529.045 213.087 529.624C213.138 530.203 213.417 530.739 213.864 531.112C216.631 533.427 222.398 539.459 223.194 544.348C223.641 547.1 225.008 556.763 225.641 566.44C225.958 571.278 226.091 576.134 225.854 580.099C225.617 584.064 224.793 587.192 224.174 588.039C220.965 592.433 215.939 595.122 211.929 595.549C209.924 595.762 208.238 595.424 207.082 594.699C205.926 593.973 205.144 592.913 204.864 590.932C200.209 557.894 195.864 534.464 182.373 517.599C182.193 517.373 181.97 517.186 181.718 517.047C181.465 516.907 181.187 516.819 180.901 516.787L180.902 516.788Z" fill="#2C3E50"/>
<path d="M96.7912 473.529C95.7838 473.43 94.8582 473.974 94.3671 474.506C94.5006 474.361 94.2879 474.574 94.0054 474.794C93.7202 475.016 93.3124 475.318 92.8089 475.679C91.8019 476.401 90.4057 477.36 88.7269 478.462C85.3692 480.666 80.8764 483.445 76.0224 486.117C71.1684 488.789 65.9466 491.355 61.1739 493.132C56.4013 494.909 52.041 495.832 49.2625 495.524C46.2567 495.19 43.1824 493.547 40.6959 491.892C39.4527 491.065 38.3636 490.251 37.4326 489.602C36.9671 489.278 36.5484 488.994 36.0966 488.749C35.6451 488.503 35.2387 488.137 34.1017 488.252C31.2877 488.536 29.19 490.291 25.6596 492.736C22.1283 495.181 17.2301 498.539 9.66181 502.584C6.97983 504.018 5.02102 505.25 3.59234 506.427C2.16367 507.604 1.12638 508.737 0.830181 510.348C0.53393 511.96 1.48669 513.553 2.54077 514.39C3.59479 515.227 4.81749 515.746 6.19683 516.251C11.4493 518.166 21.7718 519.276 32.1348 520.091C42.4977 520.906 52.5639 521.293 56.5875 521.241C59.2919 521.206 62.2588 519.987 65.711 518.348C69.1631 516.709 72.9506 514.573 76.4903 512.446C79.6472 510.548 82.4206 508.753 84.7328 507.238L79.9381 524.663C79.7917 525.194 79.8512 525.761 80.1047 526.251C80.3581 526.74 80.787 527.117 81.306 527.305C81.8249 527.493 82.396 527.48 82.9055 527.267C83.4151 527.055 83.8257 526.658 84.0557 526.157C84.0557 526.157 87.6188 518.408 91.2776 510.258C93.107 506.183 94.9596 502.008 96.4082 498.641C97.1324 496.957 97.7557 495.475 98.2282 494.297C98.7007 493.118 99.005 492.374 99.1854 491.611C100.538 485.873 100.701 481.47 100.238 478.453C100.007 476.945 99.7146 475.794 98.8913 474.747C98.4796 474.223 97.7997 473.629 96.7923 473.529H96.7912ZM95.8319 478.901C95.8588 479.028 95.8703 478.974 95.892 479.116C96.2286 481.31 96.1579 485.294 94.9058 490.607C94.8992 490.635 94.5951 491.549 94.146 492.669C93.6967 493.79 93.0838 495.248 92.3679 496.912C91.8016 498.229 91.0185 499.962 90.3494 501.482C90.2377 501.179 90.0602 500.904 89.8297 500.677C89.5991 500.45 89.3212 500.277 89.0158 500.17C88.7104 500.063 88.385 500.024 88.0629 500.057C87.7408 500.09 87.43 500.193 87.1526 500.36C87.1526 500.36 81.1517 504.524 74.2207 508.69C70.7551 510.772 67.059 512.852 63.8212 514.389C60.5835 515.926 57.6546 516.842 56.5295 516.857C52.8995 516.903 42.7242 516.526 32.4781 515.72C22.2335 514.914 11.5815 513.546 7.70662 512.134C6.53952 511.707 5.67011 511.257 5.30716 510.976C5.34617 510.935 5.46837 510.571 6.38992 509.812C7.44295 508.944 9.20234 507.807 11.7372 506.451C19.5035 502.3 24.6172 498.798 28.1653 496.341C31.4587 494.06 33.3388 492.978 34.2358 492.756C34.4219 492.87 34.6123 492.985 34.9183 493.198C35.7446 493.774 36.8958 494.636 38.2589 495.543C40.9851 497.357 44.5868 499.417 48.7785 499.884C52.8733 500.337 57.6294 499.134 62.7127 497.241C67.7961 495.348 73.1702 492.699 78.1482 489.959C83.1263 487.218 87.701 484.387 91.1445 482.127C92.8663 480.997 94.3036 480.01 95.3758 479.241C95.56 479.109 95.6716 479.021 95.834 478.902L95.8319 478.901Z" fill="#2C3E50"/>
<path d="M75.947 442.914C75.3745 442.805 74.7821 442.927 74.2999 443.254C73.8177 443.58 73.4853 444.085 73.3759 444.656C72.6038 448.682 69.9589 456.237 64.1236 461.86C58.6639 467.125 34.3418 489.554 34.3418 489.554C33.9136 489.948 33.6601 490.497 33.637 491.078C33.6138 491.659 33.823 492.225 34.2184 492.652C34.614 493.079 35.1634 493.332 35.7458 493.355C36.3282 493.378 36.8959 493.169 37.324 492.774C37.324 492.774 61.5169 470.471 67.1777 465.013C73.9238 458.512 76.7728 450.278 77.693 445.479C77.8024 444.908 77.6799 444.317 77.3525 443.836C77.025 443.355 76.5195 443.023 75.947 442.914Z" fill="#2C3E50"/>
<path d="M102.352 456.379C102.082 456.276 101.795 456.227 101.506 456.235C101.218 456.243 100.934 456.307 100.67 456.425C100.406 456.542 100.169 456.71 99.9701 456.92C99.7717 457.129 99.6165 457.375 99.5135 457.644C99.5135 457.644 98.2861 460.847 97.0314 464.643C95.7768 468.439 94.455 472.62 94.3272 475.612C94.3148 475.9 94.3594 476.187 94.4583 476.458C94.5573 476.728 94.7087 476.977 94.9039 477.189C95.0992 477.401 95.3343 477.573 95.5961 477.694C95.8578 477.816 96.141 477.884 96.4294 477.897C97.0117 477.921 97.58 477.714 98.0092 477.321C98.4385 476.928 98.6935 476.38 98.7183 475.799C98.7884 474.159 99.9879 469.701 101.206 466.016C102.424 462.331 103.619 459.21 103.619 459.21C103.827 458.666 103.811 458.063 103.573 457.532C103.335 457.001 102.896 456.587 102.352 456.379Z" fill="#2C3E50"/>
<path d="M288.523 329.749C288.235 329.726 287.946 329.76 287.671 329.849C287.397 329.938 287.142 330.08 286.923 330.267C286.703 330.454 286.523 330.683 286.392 330.939C286.261 331.196 286.182 331.476 286.159 331.763C286.136 332.05 286.17 332.339 286.259 332.613C286.349 332.887 286.491 333.14 286.678 333.36C286.866 333.579 287.095 333.758 287.352 333.889C287.609 334.02 287.89 334.099 288.177 334.122L380.401 341.384V524.189L356.973 542.847L225.42 542.051C224.838 542.048 224.277 542.276 223.863 542.684C223.448 543.093 223.213 543.649 223.21 544.23C223.208 544.518 223.263 544.804 223.372 545.071C223.481 545.337 223.641 545.58 223.844 545.785C224.047 545.99 224.288 546.153 224.554 546.265C224.82 546.377 225.106 546.435 225.394 546.437L357.724 547.237C358.227 547.24 358.715 547.071 359.108 546.758L383.97 526.957C384.228 526.752 384.436 526.491 384.579 526.195C384.722 525.898 384.796 525.573 384.796 525.244V339.358C384.796 338.806 384.588 338.275 384.213 337.87C383.837 337.464 383.323 337.215 382.771 337.172L288.523 329.749ZM116.659 439.926C116.371 439.906 116.082 439.942 115.808 440.033C115.534 440.125 115.281 440.269 115.063 440.458C114.845 440.647 114.667 440.877 114.538 441.134C114.409 441.392 114.333 441.673 114.312 441.96L107.187 543.389C107.166 543.688 107.207 543.988 107.307 544.27C107.406 544.553 107.563 544.812 107.767 545.032C107.971 545.252 108.219 545.428 108.493 545.548C108.768 545.669 109.065 545.732 109.365 545.734L193.379 546.244C193.667 546.246 193.953 546.191 194.221 546.082C194.488 545.974 194.731 545.814 194.937 545.612C195.142 545.409 195.305 545.169 195.418 544.903C195.53 544.638 195.588 544.353 195.59 544.065C195.592 543.777 195.537 543.492 195.428 543.225C195.319 542.958 195.159 542.716 194.956 542.511C194.753 542.306 194.511 542.143 194.245 542.032C193.979 541.92 193.694 541.861 193.405 541.86L111.736 541.363L118.697 442.266C118.738 441.686 118.546 441.114 118.164 440.675C117.782 440.236 117.241 439.967 116.659 439.926Z" fill="#2C3E50"/>
<path d="M187.806 352.555C187.224 352.527 186.655 352.731 186.223 353.122C185.792 353.513 185.534 354.059 185.505 354.64C185.477 355.22 185.682 355.789 186.074 356.219C186.465 356.65 187.013 356.907 187.595 356.935L356.838 365.035L355.539 545.029C355.535 545.61 355.763 546.169 356.172 546.583C356.581 546.997 357.138 547.232 357.721 547.237C358.01 547.239 358.296 547.184 358.563 547.076C358.831 546.967 359.074 546.808 359.28 546.606C359.485 546.404 359.649 546.163 359.761 545.898C359.874 545.632 359.933 545.348 359.935 545.06L361.248 362.962C361.253 362.396 361.037 361.85 360.647 361.439C360.257 361.027 359.723 360.782 359.156 360.755L187.806 352.555Z" fill="#2C3E50"/>
<path d="M382.594 337.166C382.012 337.166 381.453 337.398 381.042 337.81L357.494 361.399C357.082 361.811 356.852 362.369 356.853 362.95C356.855 363.532 357.087 364.089 357.5 364.499C357.913 364.91 358.473 365.14 359.055 365.138C359.638 365.137 360.197 364.905 360.608 364.493L384.156 340.905C384.567 340.493 384.797 339.935 384.796 339.353C384.795 338.772 384.562 338.215 384.149 337.805C383.736 337.394 383.177 337.164 382.594 337.166Z" fill="#2C3E50"/>
<path d="M47.4651 129.738C37.8326 129.738 29.79 136.946 29.79 146.031C29.79 155.116 37.8326 162.325 47.4651 162.325C57.0976 162.325 65.1401 155.116 65.1401 146.031C65.1401 136.946 57.0976 129.738 47.4651 129.738ZM47.4651 134.123C54.9284 134.123 60.7447 139.541 60.7447 146.031C60.7447 152.521 54.9284 157.94 47.4651 157.94C40.0017 157.94 34.1855 152.521 34.1855 146.031C34.1855 139.541 40.0017 134.123 47.4651 134.123Z" fill="#2C3E50"/>
<path d="M108.325 102.177C108.036 102.16 107.748 102.199 107.475 102.293C107.202 102.387 106.95 102.534 106.734 102.725L76.7884 129.211L43.8398 108.887C43.5944 108.735 43.3214 108.634 43.0365 108.587C42.7516 108.541 42.4604 108.552 42.1795 108.618C41.8986 108.684 41.6335 108.804 41.3993 108.973C41.1652 109.141 40.9665 109.354 40.8148 109.599C40.663 109.844 40.5611 110.116 40.5148 110.4C40.4685 110.684 40.4788 110.975 40.545 111.255C40.6113 111.535 40.7322 111.8 40.901 112.034C41.0697 112.267 41.2829 112.465 41.5284 112.617L75.8676 133.799C76.2697 134.047 76.7411 134.158 77.212 134.118C77.6829 134.077 78.1281 133.887 78.4817 133.574L109.65 106.007C110.086 105.621 110.351 105.078 110.386 104.497C110.421 103.917 110.223 103.346 109.837 102.911C109.45 102.476 108.906 102.212 108.325 102.177Z" fill="#2C3E50"/>
<path d="M74.3066 54.5647C73.7854 54.5357 73.2774 54.5571 72.7806 54.6322C72.2839 54.7072 71.7945 54.818 71.2354 55.1429C70.6763 55.4677 69.89 56.2522 69.8393 57.3463C69.8189 57.7845 69.6564 59.3441 69.4991 60.9191C69.3417 62.4945 69.1836 64.1199 69.1836 65.3194C69.1836 66.2132 69.8746 67.3623 70.6623 67.7734C71.45 68.1845 72.0997 68.1677 72.6765 68.1139C73.8302 68.0061 74.8777 67.5877 75.9645 66.9779C78.1381 65.7583 80.5777 63.6572 80.757 60.4073C80.757 60.4055 80.757 60.4038 80.757 60.4019C80.8412 58.8095 80.1055 57.325 79.1237 56.4244C78.1419 55.5238 76.9993 55.0633 75.9076 54.8035C75.3618 54.6736 74.8277 54.5939 74.3066 54.5647ZM74.092 59.0144C74.368 59.0248 74.581 58.9974 74.8871 59.07C75.4452 59.2029 75.9355 59.4566 76.1491 59.6525C76.3613 59.8472 76.3837 59.8456 76.3669 60.1685C76.3191 61.0027 75.1694 62.3917 73.8097 63.1546C73.7779 63.1727 73.7691 63.1649 73.7368 63.1824C73.7895 62.5203 73.8007 62.0669 73.872 61.3537C73.9669 60.403 74.0209 59.7624 74.092 59.0144Z" fill="#2C3E50"/>
<path d="M86.1337 53.4545C85.5605 53.3495 84.9691 53.4759 84.4893 53.806C84.0096 54.136 83.6808 54.6428 83.5754 55.2147L81.675 65.5422C81.6227 65.8255 81.6269 66.1163 81.6873 66.3979C81.7477 66.6796 81.8631 66.9464 82.0269 67.1835C82.1907 67.4207 82.3998 67.6234 82.6421 67.7799C82.8844 67.9364 83.1552 68.0437 83.4391 68.0957C83.723 68.1477 84.0144 68.1433 84.2966 68.0829C84.5788 68.0225 84.8464 67.9073 85.0839 67.7437C85.3215 67.5802 85.5244 67.3715 85.6812 67.1297C85.8379 66.8879 85.9454 66.6177 85.9974 66.3345L87.899 56.007C87.951 55.7237 87.9467 55.4331 87.8861 55.1515C87.8256 54.8699 87.7101 54.6029 87.5462 54.3659C87.3823 54.1289 87.1732 53.9265 86.9308 53.7701C86.6885 53.6137 86.4176 53.5065 86.1337 53.4545Z" fill="#2C3E50"/>
<path d="M94.4181 52.9055C93.4392 52.8956 92.516 53.1129 91.6913 53.5907C90.8666 54.0685 90.1625 54.8684 89.8724 55.8487C89.5826 56.8282 89.7358 57.9004 90.1772 58.7823C90.1771 58.7823 90.1774 58.7826 90.1772 58.7823C90.9751 60.3775 92.1986 61.2104 92.9308 61.8604C93.1535 62.0581 93.2153 62.1391 93.3311 62.263C93.2742 62.3162 93.2566 62.4412 93.1626 62.475C92.9525 62.5505 92.62 62.5645 92.2172 62.3005C91.73 61.9812 91.1358 61.8681 90.565 61.986C89.9943 62.1038 89.494 62.443 89.1739 62.9289C88.8539 63.4149 88.7405 64.0078 88.8586 64.5772C88.9767 65.1466 89.3167 65.646 89.8038 65.9653C91.291 66.9401 93.0954 67.1605 94.6531 66.6002C96.2098 66.0403 97.5073 64.6205 97.8542 62.8369C98.0653 61.7588 97.6686 60.7106 97.2254 60.0596C96.7817 59.4079 96.2962 58.9779 95.8528 58.5842C95.2448 58.0445 94.9746 57.7255 94.6574 57.3765C94.9683 57.4006 95.3144 57.4334 95.8132 57.6378C96.3524 57.8585 96.9574 57.8564 97.4951 57.6321C98.0328 57.4079 98.4591 56.9798 98.6804 56.4418C98.9017 55.904 98.8999 55.3006 98.6753 54.7641C98.4508 54.2277 98.0218 53.8021 97.4829 53.581C96.4316 53.1503 95.396 52.9132 94.417 52.9033L94.4181 52.9055Z" fill="#2C3E50"/>
<path d="M104.987 52.0549C103.291 52.2324 101.721 52.9827 100.481 54.0838C98.828 55.552 97.6886 57.8941 98.2384 60.3857C98.2384 60.3875 98.2384 60.3892 98.2384 60.3911C99.2028 64.7286 103.158 66.9201 106.527 66.224C106.81 66.1656 107.078 66.0524 107.317 65.8905C107.555 65.7286 107.76 65.5214 107.918 65.2807C108.077 65.0401 108.186 64.7705 108.24 64.4877C108.294 64.2048 108.292 63.9139 108.233 63.6319C108.115 63.0627 107.775 62.5636 107.288 62.2444C106.801 61.9251 106.207 61.8119 105.636 61.9296C104.973 62.0667 102.996 61.5287 102.531 59.4446C102.372 58.7242 102.656 58.0271 103.403 57.3633C104.151 56.699 105.292 56.3171 106.149 56.4286C106.727 56.5036 107.311 56.3466 107.773 55.992C108.235 55.6374 108.537 55.1143 108.612 54.5378C108.687 53.9612 108.53 53.3787 108.174 52.9179C107.819 52.4571 107.295 52.1558 106.717 52.0806C106.131 52.0043 105.552 51.999 104.986 52.0582L104.987 52.0549Z" fill="#2C3E50"/>
<path d="M115.108 51.9473C114.744 51.9473 114.376 51.9873 114.008 52.0768C114.004 52.0786 114 52.0803 113.996 52.0822C111.41 52.7246 110.199 54.9046 109.499 56.8873C109.148 57.8786 108.943 58.8814 108.962 59.9044C108.981 60.9273 109.177 62.1872 110.385 63.0971C112.326 64.557 114.845 64.3313 116.594 63.3305C118.343 62.3298 119.696 60.6199 119.956 58.4494C120.219 56.2503 119.464 54.3038 118.204 53.2021C117.258 52.3757 116.199 51.9566 115.107 51.9494L115.108 51.9473ZM115.039 56.3552C114.976 56.3853 115.177 56.3842 115.308 56.4986C115.465 56.6356 115.725 56.8263 115.593 57.9269C115.534 58.42 115.026 59.1711 114.409 59.5243C113.966 59.7775 113.665 59.7998 113.377 59.7138C113.384 59.3869 113.456 58.8746 113.644 58.3423C114.042 57.2151 114.929 56.4011 115.039 56.3541V56.3552Z" fill="#2C3E50"/>
<path d="M131.063 49.8773C130.49 49.7689 129.898 49.8919 129.416 50.2191C128.934 50.5464 128.602 51.0512 128.494 51.6225C128.494 51.6225 128.131 53.5323 127.749 55.66C127.367 57.7876 126.973 59.9693 126.87 61.1556C126.845 61.4425 126.877 61.7314 126.964 62.006C127.051 62.2806 127.192 62.5353 127.377 62.7557C127.563 62.9761 127.791 63.1581 128.047 63.2908C128.303 63.4235 128.583 63.5045 128.87 63.5293C129.158 63.5541 129.447 63.5222 129.723 63.4353C129.998 63.3485 130.253 63.2084 130.474 63.0231C130.695 62.8378 130.877 62.6109 131.01 62.3553C131.143 62.0997 131.224 61.8205 131.249 61.5336C131.295 61.0096 131.698 58.5345 132.076 56.433C132.453 54.3314 132.813 52.4394 132.813 52.4394C132.921 51.8681 132.798 51.2772 132.469 50.7968C132.141 50.3163 131.635 49.9856 131.063 49.8773Z" fill="#2C3E50"/>
<path d="M124.244 49.915C123.965 49.8398 123.675 49.82 123.388 49.8569C123.102 49.8938 122.826 49.9866 122.576 50.1299C122.325 50.2733 122.106 50.4645 121.93 50.6926C121.753 50.9206 121.624 51.1809 121.548 51.4589C121.121 53.0343 120.506 56.1159 121.242 59.082C121.609 60.565 122.646 62.371 124.61 62.841C126.574 63.3111 128.467 62.5061 130.639 60.9685C130.874 60.8019 131.075 60.5908 131.228 60.3469C131.382 60.1031 131.486 59.8314 131.534 59.5474C131.583 59.2635 131.575 58.9728 131.51 58.692C131.446 58.4111 131.327 58.1456 131.16 57.9107C130.993 57.6757 130.781 57.4758 130.537 57.3226C130.293 57.1694 130.02 57.0657 129.736 57.0175C129.451 56.9692 129.16 56.9774 128.878 57.0416C128.597 57.1057 128.331 57.2247 128.095 57.3914C126.4 58.5919 125.565 58.56 125.635 58.5766C125.704 58.5931 125.679 58.7193 125.508 58.0295C125.166 56.6499 125.57 53.4191 125.791 52.6045C125.867 52.3265 125.887 52.0365 125.85 51.7509C125.813 51.4653 125.72 51.1896 125.576 50.9399C125.432 50.6901 125.241 50.4712 125.012 50.2954C124.784 50.1195 124.523 49.9902 124.244 49.915Z" fill="#2C3E50"/>
<path d="M143.324 46.0518C142.741 46.0342 142.176 46.2483 141.751 46.6468C141.327 47.0454 141.078 47.5958 141.061 48.177C141.061 48.177 140.984 50.673 140.799 53.0978C140.775 53.4038 140.738 53.6037 140.711 53.9018C140.449 53.6439 140.235 53.4321 139.964 53.1706C139.163 52.3968 138.372 51.6525 137.594 51.0699C137.206 50.7786 136.856 50.5157 136.251 50.2937C135.949 50.1827 135.555 50.0531 134.942 50.1321C134.328 50.2111 133.513 50.708 133.164 51.2959C133.164 51.2977 133.164 51.2994 133.164 51.3012C132.817 51.8853 132.786 52.1922 132.696 52.5849C132.606 52.9777 132.533 53.3992 132.465 53.859C132.329 54.7786 132.214 55.8455 132.115 56.889C132.016 57.9325 131.934 58.949 131.87 59.7241C131.837 60.1116 131.809 60.4401 131.787 60.6694C131.765 60.8987 131.662 61.2993 131.787 60.8033C131.715 61.0822 131.7 61.3726 131.74 61.6577C131.781 61.9427 131.878 62.2169 132.025 62.4647C132.172 62.7124 132.367 62.929 132.598 63.1017C132.828 63.2744 133.091 63.3999 133.371 63.4713C133.65 63.5428 133.941 63.5587 134.227 63.5179C134.513 63.4772 134.788 63.3807 135.036 63.2339C135.284 63.0872 135.501 62.8931 135.674 62.6627C135.847 62.4324 135.973 62.17 136.045 61.8911C136.201 61.2828 136.135 61.3514 136.161 61.0827C136.186 60.814 136.214 60.4781 136.247 60.087C136.312 59.3049 136.394 58.3075 136.489 57.3022C136.531 56.8624 136.583 56.4999 136.63 56.0763C136.735 56.1766 136.799 56.2194 136.906 56.3226C137.662 57.0529 138.446 57.8428 139.128 58.4971C139.469 58.8242 139.781 59.116 140.085 59.3729C140.39 59.6297 140.451 59.8576 141.362 60.1534C141.365 60.1552 141.367 60.1572 141.37 60.159C142.319 60.4631 143.473 59.8833 143.843 59.4695C144.214 59.0557 144.309 58.7719 144.408 58.5145C144.605 57.9997 144.69 57.5532 144.78 57.0306C144.96 55.9852 145.083 54.7151 145.18 53.4353C145.376 50.8758 145.453 48.3143 145.453 48.3143C145.471 47.7331 145.256 47.1688 144.857 46.7453C144.457 46.3219 143.905 46.074 143.323 46.0563L143.324 46.0518Z" fill="#2C3E50"/>
<path d="M155.696 46.0972C155.895 46.0578 155.073 46.1618 154.252 46.215C153.432 46.2682 152.407 46.3233 151.41 46.3724C149.416 46.4704 147.535 46.5459 147.535 46.5459C147.246 46.5573 146.963 46.6254 146.701 46.7461C146.439 46.8668 146.203 47.0377 146.007 47.2493C145.812 47.4608 145.659 47.7087 145.56 47.9789C145.46 48.2491 145.415 48.5365 145.426 48.8242C145.438 49.112 145.506 49.3946 145.627 49.6561C145.748 49.9176 145.919 50.1527 146.131 50.348C146.343 50.5434 146.592 50.6952 146.863 50.7947C147.133 50.8943 147.421 50.9395 147.71 50.928C147.71 50.928 149.606 50.8517 151.625 50.7525C152.635 50.7026 153.676 50.6477 154.538 50.5919C155.399 50.5361 155.876 50.5328 156.548 50.4002C156.831 50.3444 157.1 50.2334 157.341 50.0737C157.581 49.9139 157.787 49.7086 157.948 49.4693C158.108 49.23 158.22 48.9613 158.277 48.6789C158.333 48.3964 158.334 48.1057 158.278 47.8231C158.165 47.2527 157.829 46.7504 157.345 46.4267C156.861 46.1031 156.267 45.9845 155.696 46.0972Z" fill="#2C3E50"/>
<path d="M152.089 46.3626C151.802 46.3338 151.512 46.3615 151.235 46.4445C150.959 46.5275 150.702 46.664 150.478 46.8463C150.255 47.0285 150.069 47.2532 149.933 47.5069C149.796 47.7606 149.711 48.0386 149.682 48.3251C149.682 48.3251 149.427 50.8601 149.139 53.5713C148.851 56.2826 148.473 59.4424 148.418 59.7351C148.365 60.0182 148.368 60.309 148.428 60.5908C148.487 60.8727 148.602 61.1401 148.765 61.3778C148.928 61.6154 149.136 61.8185 149.378 61.9757C149.62 62.1329 149.891 62.2411 150.175 62.294C150.747 62.4007 151.339 62.276 151.82 61.9473C152.301 61.6187 152.631 61.1129 152.738 60.5413C152.953 59.3978 153.22 56.7605 153.51 54.0339C153.8 51.3072 154.056 48.7641 154.056 48.7641C154.085 48.4775 154.057 48.1882 153.974 47.9124C153.891 47.6366 153.754 47.3798 153.571 47.1568C153.388 46.9338 153.164 46.7489 152.909 46.6126C152.655 46.4763 152.376 46.3914 152.089 46.3626Z" fill="#2C3E50"/>
</g>
<defs>
<clipPath id="clip0_119_3916">
<rect width="422.449" height="600" fill="white" transform="translate(0.775391)"/>
</clipPath>
</defs>
</svg>
