<svg width="423" height="600" viewBox="0 0 423 600" fill="none" xmlns="http://www.w3.org/2000/svg">
<g clip-path="url(#clip0_2_4)">
<path d="M146.587 177.975C146.044 178.188 145.609 178.608 145.377 179.141C145.262 179.405 145.201 179.689 145.196 179.977C145.191 180.265 145.243 180.551 145.349 180.819C145.455 181.087 145.613 181.331 145.814 181.538C146.015 181.745 146.254 181.911 146.519 182.025C147.989 182.661 150.268 184.351 156.995 190.642C158.85 192.375 163.99 197.362 169.844 202.549C175.698 207.735 182.217 213.134 187.378 215.961C187.631 216.099 187.909 216.187 188.196 216.218C188.483 216.25 188.773 216.224 189.051 216.144C189.328 216.063 189.586 215.929 189.811 215.749C190.037 215.568 190.224 215.346 190.363 215.093C190.502 214.841 190.589 214.564 190.621 214.277C190.652 213.991 190.627 213.702 190.546 213.425C190.466 213.149 190.331 212.891 190.15 212.666C189.97 212.441 189.747 212.254 189.493 212.116C185.067 209.691 178.526 204.376 172.763 199.269C166.999 194.163 161.964 189.276 160 187.44C153.211 181.09 150.699 179.053 148.268 178.001C147.734 177.769 147.129 177.759 146.587 177.972V177.975Z" fill="white"/>
<mask id="mask0_2_4" style="mask-type:luminance" maskUnits="userSpaceOnUse" x="-741" y="-3167" width="1364" height="7197">
<path d="M622.451 4029L622.451 -3166.11H-740.306L-740.306 4029H622.451Z" fill="white"/>
</mask>
<g mask="url(#mask0_2_4)">
<path fill-rule="evenodd" clip-rule="evenodd" d="M149.723 189.043C149.723 189.043 146.674 195.363 117.422 181.346L109.895 156.552L112.84 153.077C112.84 153.077 135.751 155.895 137.965 156.125C140.18 156.355 141.476 157.04 141.938 158.871C142.394 160.697 149.723 189.043 149.723 189.043Z" fill="#1F1F1F"/>
</g>
<mask id="mask1_2_4" style="mask-type:luminance" maskUnits="userSpaceOnUse" x="-741" y="-3167" width="1364" height="7197">
<path d="M622.451 4029L622.451 -3166.11H-740.306L-740.306 4029H622.451Z" fill="white"/>
</mask>
<g mask="url(#mask1_2_4)">
<path fill-rule="evenodd" clip-rule="evenodd" d="M159.723 40.5857C160.547 40.5089 161.355 40.8051 161.931 41.3916C162.514 41.9782 162.794 42.7948 162.706 43.6116C162.113 50.0636 160.827 63.7515 160.404 64.8807C159.849 66.3608 64.5783 74.8685 61.8861 74.9617C59.1994 75.0549 59.0181 55.5399 59.7543 53.0457C60.4961 50.546 61.3311 49.4278 69.6715 48.7371C77.0338 48.1341 144.037 42.0164 159.723 40.5857Z" fill="#1F1F1F"/>
</g>
<mask id="mask2_2_4" style="mask-type:luminance" maskUnits="userSpaceOnUse" x="-741" y="-3167" width="1364" height="7197">
<path d="M622.451 4029L622.451 -3166.11H-740.306L-740.306 4029H622.451Z" fill="white"/>
</mask>
<g mask="url(#mask2_2_4)">
<path fill-rule="evenodd" clip-rule="evenodd" d="M402.053 100.178C401.597 102.557 401.306 104.098 401.262 104.372C401.004 105.973 399.933 107.036 395.581 106.735C391.23 106.428 327.419 103.402 324.749 103.325C322.079 103.248 320.551 102.563 320.854 98.139C321.161 93.7207 323.502 51.133 323.733 49.3843C323.958 47.6302 324.189 45.043 329.842 45.3445C335.49 45.6514 405.971 49.2145 407.779 49.2748C410.328 49.3626 411.586 51.0344 410.756 54.9868C410.608 55.7159 408.965 64.2125 407.086 73.9591C406.443 73.8878 405.784 73.8496 405.119 73.8496C396.768 73.8496 389.988 79.8083 389.988 87.1538C389.988 93.573 395.169 98.934 402.053 100.178Z" fill="#1F1F1F"/>
</g>
<mask id="mask3_2_4" style="mask-type:luminance" maskUnits="userSpaceOnUse" x="-741" y="-3167" width="1364" height="7197">
<path d="M622.451 4029L622.451 -3166.11H-740.306L-740.306 4029H622.451Z" fill="white"/>
</mask>
<g mask="url(#mask3_2_4)">
<path fill-rule="evenodd" clip-rule="evenodd" d="M40.8046 132.986C40.2442 123.98 39.6673 113.954 39.5574 112.983C39.3761 111.322 40.2717 108.587 43.2606 108.171C46.2494 107.754 103.522 102.272 105.472 102.064C107.417 101.855 109.928 103.045 110.274 107.666C110.62 112.293 113.054 144.794 112.961 147.014C112.868 149.234 111.758 149.881 106.752 150.435C102.906 150.862 72.3912 154.782 57.216 156.366C60.2599 153.79 62.1664 150.111 62.1664 146.033C62.1664 138.249 55.2271 131.934 46.689 131.934C44.6066 131.934 42.6177 132.307 40.8046 132.986Z" fill="#1F1F1F"/>
</g>
<mask id="mask4_2_4" style="mask-type:luminance" maskUnits="userSpaceOnUse" x="-741" y="-3167" width="1364" height="7197">
<path d="M622.451 4029L622.451 -3166.11H-740.306L-740.306 4029H622.451Z" fill="white"/>
</mask>
<g mask="url(#mask4_2_4)">
<path fill-rule="evenodd" clip-rule="evenodd" d="M104.06 243.065C109.318 247.917 117.043 254.632 125.015 260.711L135.96 282.43C132.867 285.933 130.158 290.219 127.894 295.405C125.504 300.876 119.148 317.497 111.615 337.549C111.615 337.549 83.1545 362.145 78.0228 363.121C72.8912 364.097 62.0619 362.634 58.639 361.252C55.216 359.871 44.1396 352.152 44.1396 352.152C39.5793 352.964 27.9315 344.834 27.6842 341.83C27.4425 338.821 52.4634 272.886 53.381 270.754C54.2985 268.621 104.06 243.065 104.06 243.065Z" fill="#1F1F1F"/>
</g>
<path d="M200.266 15.1228C199.985 15.0586 199.694 15.0504 199.409 15.0985C199.124 15.1466 198.852 15.2502 198.607 15.4033C196.166 16.9327 193.331 19.6936 191.623 23.5542C189.914 27.4149 189.516 32.4582 192.187 37.6837C192.318 37.9402 192.499 38.1686 192.718 38.3555C192.938 38.5425 193.192 38.6842 193.467 38.7731C193.741 38.862 194.031 38.8962 194.318 38.8735C194.606 38.8507 194.886 38.7717 195.144 38.6409C195.401 38.51 195.629 38.3299 195.817 38.1109C196.004 37.8918 196.146 37.6383 196.236 37.3644C196.325 37.0905 196.359 36.8016 196.336 36.5145C196.313 36.2275 196.234 35.9477 196.103 35.6912C194.005 31.5867 194.37 28.2029 195.644 25.3251C196.917 22.4474 199.282 20.1591 200.945 19.1175C201.438 18.8083 201.789 18.3162 201.919 17.7494C202.049 17.1826 201.948 16.5875 201.638 16.095C201.485 15.851 201.284 15.6395 201.049 15.4727C200.814 15.3059 200.548 15.1871 200.266 15.1228Z" fill="white"/>
<path d="M224.402 0.0032441C222.333 0.0207857 220.271 0.117587 218.251 0.30731C210.168 1.0662 202.607 3.2355 198.113 8.42716C197.924 8.64507 197.78 8.89788 197.689 9.17127C197.599 9.44465 197.563 9.73333 197.584 10.0206C197.605 10.3078 197.682 10.5879 197.812 10.8452C197.942 11.1026 198.121 11.332 198.339 11.5203C198.558 11.7085 198.811 11.8519 199.085 11.9424C199.359 12.0329 199.649 12.0687 199.936 12.0476C200.224 12.0265 200.505 11.9489 200.763 11.8195C201.021 11.6901 201.251 11.5113 201.439 11.2933C204.676 7.55519 211.142 5.37955 218.663 4.67344C226.183 3.96734 234.624 4.65372 241.468 5.9154C250.394 7.55839 257.377 10.6841 262.324 16.2119C267.271 21.7398 270.342 29.8396 270.901 41.9365C270.928 42.5173 271.185 43.0635 271.616 43.4553C272.047 43.847 272.616 44.0521 273.198 44.0254C273.78 43.9985 274.327 43.742 274.72 43.3123C275.113 42.8827 275.318 42.315 275.291 41.7342C274.702 28.9824 271.375 19.7409 265.602 13.2911C259.83 6.84137 251.774 3.35307 242.266 1.6028C236.871 0.608468 230.606 -0.0499289 224.401 0.0032441H224.402ZM203.296 15.1402C202.732 15.2875 202.25 15.6522 201.956 16.1541C198.495 22.0592 198.691 28.3395 201.692 33.3049C204.692 38.2703 210.236 41.9637 217.173 43.8016C223.267 45.4166 230.1 45.5964 235.704 46.8444C241.307 48.0924 245.318 50.031 247.121 55.202C247.252 55.5771 247.482 55.9098 247.788 56.1645C248.093 56.4192 248.462 56.5864 248.856 56.6481C249.249 56.7099 249.651 56.6638 250.021 56.5151C250.39 56.3664 250.711 56.1206 250.951 55.8037C250.951 55.8037 252.068 54.3441 253.774 53.0714C255.479 51.7985 257.465 50.9382 259.354 51.4846C260.888 51.9279 261.619 52.7426 262.145 54.1463C262.671 55.55 262.787 57.5626 262.468 59.7019C261.83 63.9804 259.262 68.6948 257.496 70.0284C253.224 73.2494 250.025 71.5327 250.025 71.5327C249.714 71.3923 249.375 71.3261 249.034 71.3394C248.693 71.3527 248.36 71.4452 248.061 71.6092C247.761 71.7733 247.505 72.0044 247.311 72.2845C247.117 72.5647 246.991 72.8861 246.943 73.2232C246.943 73.2232 242.834 102.003 245.088 131.59C245.344 134.969 247.106 137.82 249.652 139.898C252.197 141.977 255.498 143.419 259.258 144.507C266.778 146.685 276.227 147.428 285.375 147.688C287.74 147.756 289.614 147.56 291.191 146.969C292.769 146.377 294.074 145.232 294.666 143.805C295.85 140.951 294.731 138.108 293.474 135.125C289.352 125.344 276.86 120.107 276.277 94.1888C276.228 91.8871 276 80.5728 275.786 69.6001C275.679 64.1138 275.576 58.7105 275.5 54.5596C275.425 50.4087 275.379 47.3454 275.381 47.0778C275.386 46.4965 275.159 45.937 274.751 45.5224C274.342 45.1078 273.786 44.872 273.203 44.8669C272.914 44.8645 272.628 44.919 272.361 45.027C272.093 45.135 271.849 45.2943 271.644 45.4962C271.438 45.6981 271.274 45.9385 271.161 46.2036C271.049 46.4688 270.989 46.7535 270.987 47.0414C270.981 47.7441 271.03 50.4854 271.106 54.6399C271.182 58.7943 271.285 64.1973 271.392 69.6847C271.605 80.6596 271.832 91.9626 271.882 94.282C271.882 94.2838 271.882 94.2857 271.882 94.2876C272.497 121.64 286.497 129.888 289.42 136.826C290.563 139.538 290.829 141.583 290.602 142.129C290.489 142.402 290.389 142.585 289.642 142.865C288.895 143.145 287.523 143.365 285.498 143.306C276.51 143.051 267.297 142.27 260.481 140.297C257.073 139.31 254.287 138.019 252.433 136.506C250.58 134.993 249.631 133.394 249.469 131.261C247.514 105.595 250.327 81.5027 251.023 76.0757C253.331 76.3263 256.684 76.1405 260.147 73.5286C263.666 70.8715 266.023 65.6447 266.813 60.3507C267.207 57.7038 267.162 55.0225 266.26 52.6142C265.358 50.2062 263.394 48.0909 260.575 47.2759C256.799 46.1839 253.402 47.8743 251.139 49.5628C250.581 49.9789 250.257 50.3507 249.809 50.7619C246.899 46.0192 241.87 43.7276 236.66 42.5672C230.443 41.1826 223.644 40.9825 218.299 39.5661C212.221 37.9559 207.702 34.7641 205.454 31.0437C203.206 27.3233 202.967 23.1165 205.748 18.3706C206.042 17.8687 206.124 17.2708 205.976 16.7084C205.829 16.1461 205.463 15.6653 204.96 15.3717C204.711 15.2264 204.436 15.1314 204.15 15.0923C203.864 15.0531 203.573 15.0706 203.294 15.1437L203.296 15.1402Z" fill="white"/>
<path d="M200.068 5.38285C194.513 5.51858 188.792 8.76327 184.722 13.7479C180.07 19.4446 177.631 27.7405 180.807 36.5678C180.904 36.8389 181.055 37.0882 181.249 37.3015C181.443 37.5147 181.677 37.6877 181.938 37.8106C182.199 37.9335 182.482 38.0039 182.77 38.0178C183.059 38.0316 183.347 37.9885 183.619 37.8912C183.89 37.7939 184.14 37.6442 184.354 37.4506C184.568 37.257 184.741 37.0232 184.864 36.7627C184.987 36.5022 185.058 36.2201 185.072 35.9324C185.086 35.6447 185.042 35.3571 184.945 35.086C182.297 27.7257 184.295 21.213 188.129 16.5177C191.963 11.8224 197.69 9.2714 201.811 9.85926C202.097 9.90013 202.388 9.8843 202.667 9.81295C202.947 9.74161 203.21 9.616 203.441 9.44331C203.672 9.27062 203.866 9.05428 204.013 8.80654C204.161 8.55879 204.257 8.28461 204.298 7.99953C204.339 7.71446 204.323 7.4241 204.252 7.14515C204.18 6.8662 204.054 6.6041 203.881 6.37374C203.708 6.14338 203.491 5.94924 203.242 5.80255C202.994 5.65585 202.719 5.55952 202.433 5.51882C201.652 5.40727 200.862 5.3635 200.068 5.38285Z" fill="white"/>
<path d="M187.742 33.6645C187.168 33.761 186.655 34.0811 186.317 34.5548C185.979 35.0284 185.843 35.6168 185.94 36.1902C187.854 47.5605 188.311 57.4919 188.597 65.7339C188.882 73.9759 188.931 80.4788 190.322 85.3622C193.095 95.0931 201.139 101.006 210.209 102.776C219.279 104.547 229.506 102.382 237.353 96.148C237.579 95.9686 237.767 95.7466 237.907 95.4946C238.046 95.2427 238.135 94.9657 238.167 94.6796C238.2 94.3934 238.176 94.1038 238.096 93.8271C238.016 93.5503 237.883 93.2919 237.703 93.0666C237.523 92.8414 237.3 92.6536 237.048 92.5142C236.795 92.3747 236.518 92.2864 236.231 92.254C235.944 92.2216 235.654 92.2456 235.376 92.3252C235.099 92.4048 234.84 92.5382 234.614 92.7176C227.847 98.0939 218.835 99.9913 211.052 98.4724C203.27 96.9535 196.848 92.226 194.55 84.1631C193.452 80.3086 193.276 73.8643 192.989 65.5829C192.702 57.3015 192.238 47.1338 190.274 35.4643C190.226 35.1803 190.123 34.9084 189.97 34.6643C189.817 34.4201 189.617 34.2083 189.382 34.0411C189.147 33.874 188.881 33.7549 188.6 33.6902C188.318 33.6256 188.027 33.6168 187.742 33.6645Z" fill="white"/>
<path d="M193.661 41.1015C191.389 40.9746 189.555 41.3262 188.061 42.3424C187.822 42.5045 187.618 42.712 187.46 42.9529C187.302 43.1938 187.193 43.4633 187.139 43.7463C187.085 44.0292 187.088 44.3201 187.147 44.602C187.206 44.8839 187.32 45.1515 187.482 45.3894C187.645 45.6274 187.853 45.8312 188.094 45.989C188.336 46.1468 188.606 46.2555 188.89 46.3091C189.173 46.3627 189.465 46.3602 189.747 46.3014C190.03 46.2426 190.298 46.1287 190.536 45.9665C190.525 45.9742 192.031 45.402 193.416 45.4794C194.8 45.5567 196.089 46.0054 196.995 47.1614C197.173 47.3882 197.394 47.5778 197.645 47.7195C197.897 47.8611 198.173 47.952 198.46 47.9869C198.746 48.0218 199.037 48 199.315 47.9229C199.593 47.8457 199.853 47.7146 200.081 47.5372C200.308 47.3597 200.498 47.1393 200.64 46.8886C200.782 46.6379 200.873 46.3618 200.908 46.076C200.943 45.7902 200.921 45.5001 200.844 45.2227C200.766 44.9453 200.635 44.6858 200.457 44.459C198.617 42.1122 195.933 41.2284 193.661 41.1015Z" fill="#EDF6FF"/>
<path d="M221.523 40.3615C219.462 40.3116 217.54 40.8306 215.945 41.4803C213.82 42.3466 212.372 43.2741 211.4 44.3133C211.203 44.5238 211.049 44.7711 210.948 45.0408C210.847 45.3105 210.8 45.5974 210.81 45.8853C210.82 46.1731 210.887 46.4561 211.006 46.7182C211.126 46.9803 211.296 47.2163 211.507 47.4128C211.718 47.6093 211.966 47.7626 212.236 47.8636C212.507 47.9645 212.794 48.0113 213.083 48.0014C213.371 47.9915 213.655 47.9248 213.918 47.8055C214.18 47.6861 214.417 47.5163 214.614 47.3057C214.636 47.2816 216.028 46.1841 217.608 45.5402C219.188 44.8963 221.052 44.5352 222.662 44.8957C222.944 44.9588 223.235 44.9658 223.519 44.9166C223.804 44.8673 224.076 44.7626 224.32 44.6085C224.563 44.4544 224.774 44.254 224.941 44.0186C225.107 43.7831 225.225 43.5172 225.288 43.2362C225.351 42.9552 225.358 42.6645 225.309 42.3807C225.26 42.097 225.155 41.8258 225 41.5826C224.846 41.3393 224.645 41.1287 224.409 40.9629C224.173 40.7971 223.906 40.6793 223.625 40.6163C222.913 40.457 222.211 40.3781 221.523 40.3615Z" fill="white"/>
<path d="M203.775 47.4794C203.502 47.386 203.213 47.3471 202.925 47.3651C202.637 47.3831 202.355 47.4576 202.096 47.5843C201.572 47.8398 201.172 48.2922 200.983 48.8421C200.794 49.392 200.831 49.9945 201.087 50.5169C201.395 51.1453 201.93 53.4655 201.975 55.8659C202.019 58.2663 201.643 60.872 200.871 62.5232C200.871 62.525 200.871 62.527 200.871 62.5288C200.121 64.1447 200.297 66.3673 201.912 67.7579C203.527 69.1485 205.932 69.2741 208.767 68.3671C209.042 68.2792 209.297 68.1381 209.517 67.952C209.738 67.7658 209.919 67.5381 210.051 67.282C210.183 67.0259 210.263 66.7462 210.287 66.4592C210.311 66.1722 210.277 65.8833 210.189 65.6091C210.011 65.0554 209.62 64.5949 209.102 64.3289C208.584 64.0628 207.981 64.0131 207.426 64.1905C205.377 64.8458 204.765 64.4204 204.785 64.4378C204.805 64.4548 204.81 64.4783 204.859 64.3736C206.092 61.7332 206.424 58.6373 206.371 55.7858C206.318 52.9333 205.95 50.4513 205.038 48.591C204.912 48.3322 204.735 48.1008 204.519 47.9101C204.302 47.7194 204.05 47.5732 203.777 47.4797L203.775 47.4794Z" fill="white"/>
<path d="M219.424 71.1375C218.944 71.1731 218.478 71.2975 218.068 71.4811C218.066 71.4811 218.064 71.4811 218.063 71.4811C215.996 72.4116 209.046 74.9414 204.437 75.1535C203.533 75.1951 202.407 75.6609 201.816 76.5689C201.225 77.4769 201.24 78.4436 201.398 79.1995C201.715 80.7115 202.596 81.9333 203.831 83.101C206.302 85.4364 210.594 87.2915 215.522 85.845C220.143 84.4892 222.6 80.8178 223.245 77.6224C223.567 76.0247 223.56 74.5085 222.815 73.0935C222.443 72.386 221.793 71.6665 220.863 71.3248C220.399 71.1539 219.904 71.0999 219.424 71.1353L219.424 71.1375ZM218.989 75.8066C219.001 76.0808 219.011 76.3899 218.936 76.7595C218.58 78.5264 217.265 80.7643 214.282 81.6395C210.974 82.6105 208.366 81.3468 206.855 79.919C206.636 79.7119 206.516 79.5173 206.359 79.313C211.374 78.7396 216.382 76.9253 218.99 75.8066H218.989Z" fill="white"/>
<mask id="mask5_2_4" style="mask-type:luminance" maskUnits="userSpaceOnUse" x="-741" y="-3167" width="1364" height="7197">
<path d="M622.451 4029L622.451 -3166.11H-740.306L-740.306 4029H622.451Z" fill="white"/>
</mask>
<g mask="url(#mask5_2_4)">
<path fill-rule="evenodd" clip-rule="evenodd" d="M219.008 55.6331C219.008 56.0683 218.958 56.4991 218.86 56.9013C218.762 57.3034 218.619 57.669 218.438 57.9767C218.257 58.2845 218.043 58.5286 217.806 58.6951C217.57 58.8617 217.317 58.9473 217.061 58.9473C216.806 58.9473 216.552 58.8617 216.316 58.6951C216.08 58.5286 215.865 58.2845 215.684 57.9767C215.504 57.669 215.36 57.3034 215.262 56.9013C215.164 56.4991 215.114 56.0683 215.114 55.6331C215.114 55.1978 215.164 54.767 215.262 54.3649C215.36 53.9628 215.504 53.5972 215.684 53.2894C215.865 52.9816 216.08 52.7375 216.316 52.571C216.552 52.4044 216.806 52.3188 217.061 52.3188C217.317 52.3188 217.57 52.4044 217.806 52.571C218.043 52.7375 218.257 52.9816 218.438 53.2894C218.619 53.5972 218.762 53.9628 218.86 54.3649C218.958 54.767 219.008 55.1978 219.008 55.6331Z" fill="white"/>
</g>
<mask id="mask6_2_4" style="mask-type:luminance" maskUnits="userSpaceOnUse" x="-741" y="-3167" width="1364" height="7197">
<path d="M622.451 4029L622.451 -3166.11H-740.306L-740.306 4029H622.451Z" fill="white"/>
</mask>
<g mask="url(#mask6_2_4)">
<path fill-rule="evenodd" clip-rule="evenodd" d="M198.724 55.3604C198.724 55.7956 198.674 56.2267 198.576 56.6288C198.478 57.0309 198.334 57.3963 198.154 57.704C197.973 58.0118 197.758 58.2559 197.522 58.4224C197.286 58.589 197.032 58.6746 196.777 58.6746C196.521 58.6746 196.268 58.589 196.032 58.4224C195.795 58.2559 195.581 58.0118 195.4 57.704C195.219 57.3963 195.076 57.0309 194.978 56.6288C194.88 56.2267 194.83 55.7956 194.83 55.3604C194.83 54.9251 194.88 54.4943 194.978 54.0922C195.076 53.6901 195.219 53.3247 195.4 53.017C195.581 52.7092 195.795 52.4648 196.032 52.2983C196.268 52.1317 196.521 52.0461 196.777 52.0461C197.032 52.0461 197.286 52.1317 197.522 52.2983C197.758 52.4648 197.973 52.7092 198.154 53.017C198.334 53.3247 198.478 53.6901 198.576 54.0922C198.674 54.4943 198.724 54.9251 198.724 55.3604Z" fill="white"/>
</g>
<path d="M223.08 98.2607C222.498 98.2772 221.946 98.5238 221.546 98.9464C221.145 99.3691 220.93 99.9332 220.946 100.514C221.011 102.796 221.086 103.546 221.151 105.424C221.161 105.712 221.228 105.995 221.347 106.257C221.467 106.519 221.637 106.756 221.848 106.952C222.059 107.148 222.307 107.302 222.577 107.402C222.848 107.503 223.135 107.55 223.424 107.54C223.712 107.53 223.996 107.463 224.259 107.344C224.521 107.225 224.758 107.055 224.955 106.844C225.152 106.634 225.305 106.387 225.406 106.117C225.507 105.847 225.554 105.56 225.544 105.272C225.476 103.32 225.403 102.603 225.34 100.39C225.332 100.102 225.267 99.8187 225.149 99.5559C225.031 99.2931 224.862 99.0561 224.653 98.8584C224.443 98.6606 224.196 98.5059 223.926 98.4033C223.656 98.3008 223.369 98.2524 223.08 98.2607ZM223.501 111.908C222.918 111.916 222.363 112.154 221.956 112.571C221.549 112.987 221.325 113.547 221.332 114.129C221.383 118.069 221.206 120.753 220.676 122.55C220.145 124.346 219.409 125.343 217.742 126.521C213.17 129.751 205.36 131.741 197.892 133.629C190.423 135.516 183.235 137.083 179.367 141.512C174.75 146.796 171.515 155.432 168.845 165.101C166.175 174.77 164.179 185.459 162.611 194.598C162.513 195.171 162.647 195.76 162.983 196.235C163.32 196.709 163.832 197.031 164.406 197.129C164.981 197.227 165.571 197.094 166.047 196.758C166.522 196.422 166.845 195.911 166.943 195.338C168.502 186.25 170.484 175.676 173.083 166.267C175.681 156.857 179.007 148.598 182.68 144.393C184.878 141.877 191.535 139.759 198.97 137.88C206.405 136.002 214.557 134.144 220.281 130.1C222.543 128.502 224.118 126.402 224.89 123.79C225.661 121.179 225.778 118.147 225.726 114.073C225.722 113.785 225.662 113.501 225.548 113.236C225.434 112.972 225.269 112.732 225.062 112.531C224.856 112.33 224.611 112.171 224.343 112.065C224.075 111.958 223.789 111.905 223.5 111.908H223.501ZM112.854 199.487C111.891 199.452 111.021 199.877 110.427 200.302C109.636 200.867 108.99 201.568 108.28 202.41C106.859 204.093 105.257 206.362 103.309 208.926C99.4151 214.054 94.1978 220.294 87.3718 224.565C87.3699 224.565 87.3681 224.565 87.3663 224.565C86.8607 224.882 86.369 225.527 86.2191 226.154C86.0693 226.78 86.1691 227.286 86.2868 227.664C86.5223 228.421 86.8654 228.863 87.2428 229.345C87.9977 230.309 89.0002 231.283 90.1037 232.323C92.3108 234.403 94.9786 236.837 95.6785 237.802C96.1782 238.491 96.8433 239.161 97.9245 240.241C99.0057 241.322 100.429 242.688 102.127 244.263C105.522 247.412 110.009 251.392 114.969 255.505C124.887 263.73 136.555 272.466 145.552 276.169C146.091 276.391 146.696 276.39 147.234 276.167C147.772 275.944 148.199 275.516 148.421 274.979C148.644 274.441 148.643 273.838 148.419 273.301C148.195 272.764 147.767 272.338 147.228 272.116C139.287 268.847 127.557 260.241 117.778 252.132C112.889 248.077 108.453 244.143 105.12 241.051C103.453 239.505 102.061 238.169 101.034 237.143C100.008 236.118 99.2744 235.279 99.239 235.231C97.8015 233.248 95.2307 231.121 93.1224 229.134C92.292 228.352 91.7138 227.729 91.2187 227.173C98.0019 222.518 103.102 216.454 106.811 211.571C108.807 208.943 110.437 206.657 111.64 205.232C112.141 204.639 112.494 204.317 112.76 204.092C113.189 204.318 113.765 204.625 114.752 205.308C115.998 206.171 117.552 207.326 119.294 208.658C122.779 211.323 127.026 214.701 131.279 217.985C135.531 221.268 139.781 224.455 143.356 226.783C145.144 227.947 146.754 228.897 148.193 229.555C149.631 230.213 150.82 230.824 152.567 230.335C154.509 229.789 155.689 228.368 156.836 226.725C157.982 225.082 159.022 223.076 159.988 220.918C160.106 220.655 160.171 220.372 160.179 220.084C160.187 219.796 160.138 219.509 160.035 219.24C159.932 218.971 159.777 218.725 159.579 218.516C159.38 218.307 159.142 218.138 158.879 218.021C158.615 217.903 158.331 217.839 158.042 217.831C157.754 217.823 157.466 217.872 157.197 217.975C156.927 218.078 156.68 218.233 156.471 218.431C156.261 218.629 156.093 218.866 155.975 219.129C155.078 221.132 154.119 222.943 153.229 224.219C152.422 225.376 151.687 225.908 151.492 226.024C151.368 225.973 150.786 225.918 150.023 225.569C148.927 225.068 147.442 224.209 145.757 223.112C142.387 220.918 138.185 217.775 133.967 214.518C129.748 211.26 125.505 207.885 121.965 205.178C120.195 203.825 118.603 202.639 117.255 201.706C115.909 200.774 114.902 200.105 113.835 199.689C113.501 199.558 113.17 199.496 112.849 199.485L112.854 199.487Z" fill="white"/>
<path d="M196.553 90.7287C196.266 90.7586 195.988 90.8446 195.734 90.9819C195.481 91.1192 195.256 91.3051 195.075 91.5288C194.893 91.7524 194.757 92.0096 194.675 92.2857C194.593 92.5618 194.566 92.8513 194.596 93.1377C196.598 112.225 194.552 120.188 192.083 124.868C190.848 127.207 189.432 128.817 188.067 130.788C186.703 132.76 185.464 135.157 185.108 138.482C185.077 138.768 185.103 139.058 185.185 139.334C185.266 139.611 185.402 139.868 185.583 140.092C185.764 140.316 185.988 140.502 186.241 140.64C186.495 140.778 186.773 140.865 187.06 140.895C187.347 140.926 187.637 140.9 187.914 140.819C188.191 140.737 188.449 140.602 188.673 140.421C188.898 140.24 189.085 140.017 189.223 139.764C189.361 139.512 189.448 139.234 189.479 138.948C189.751 136.402 190.519 134.964 191.685 133.28C192.85 131.596 194.487 129.728 195.973 126.91C198.946 121.276 201.016 112.208 198.968 92.6816C198.938 92.3952 198.852 92.1176 198.714 91.8644C198.577 91.6113 198.39 91.3876 198.166 91.2062C197.942 91.0249 197.684 90.8893 197.407 90.8074C197.131 90.7255 196.841 90.6987 196.553 90.7287Z" fill="white"/>
<path d="M245.884 115.422C234.814 119.518 224.258 115.551 224.258 115.551C223.713 115.343 223.109 115.36 222.577 115.597C222.045 115.834 221.629 116.272 221.42 116.815C221.317 117.084 221.268 117.371 221.276 117.659C221.284 117.947 221.349 118.23 221.466 118.493C221.584 118.756 221.752 118.993 221.962 119.191C222.172 119.389 222.418 119.544 222.688 119.647C222.688 119.647 234.626 124.265 247.412 119.535C247.683 119.435 247.931 119.282 248.143 119.086C248.354 118.891 248.525 118.655 248.646 118.393C248.766 118.131 248.833 117.849 248.844 117.561C248.855 117.273 248.809 116.986 248.708 116.716C248.506 116.171 248.094 115.728 247.565 115.486C247.035 115.243 246.43 115.22 245.884 115.422Z" fill="white"/>
<path d="M405.12 71.6472C395.718 71.6472 387.793 78.4496 387.793 87.1407C387.793 95.8317 395.718 102.635 405.12 102.635C414.523 102.635 422.449 95.8317 422.449 87.1407C422.449 78.4496 414.523 71.6472 405.12 71.6472ZM405.12 76.0326C412.43 76.0326 418.054 81.1393 418.053 87.1407C418.053 93.142 412.43 98.2498 405.12 98.2498C397.811 98.2498 392.189 93.142 392.189 87.1407C392.189 81.1393 397.811 76.0326 405.12 76.0326Z" fill="white"/>
<path d="M405.649 77.6632C405.364 77.5925 405.068 77.5795 404.778 77.6249C404.488 77.6703 404.21 77.7732 403.96 77.9277L400.72 79.9341C400.474 80.0858 400.261 80.2842 400.093 80.5181C399.925 80.752 399.804 81.0166 399.738 81.297C399.672 81.5774 399.662 81.868 399.709 82.1522C399.756 82.4364 399.858 82.7086 400.01 82.9533C400.203 83.2261 400.456 83.4512 400.75 83.6115C401.044 83.7718 401.37 83.8631 401.705 83.8784L399.144 93.1021C398.989 93.6624 399.063 94.2615 399.35 94.7675C399.637 95.2734 400.114 95.6449 400.676 95.8001C401.237 95.9552 401.838 95.8813 402.345 95.5948C402.852 95.3083 403.224 94.8326 403.38 94.2723L407.238 80.3762C407.316 80.094 407.337 79.7989 407.299 79.5085C407.261 79.2181 407.165 78.9383 407.017 78.6854C406.869 78.4325 406.672 78.2119 406.437 78.0363C406.202 77.8608 405.934 77.7338 405.649 77.6632Z" fill="white"/>
<path d="M48.5999 136.763C48.3151 136.693 48.019 136.68 47.7291 136.725C47.4392 136.771 47.1613 136.874 46.9119 137.028L43.6701 139.034C43.1749 139.341 42.8221 139.831 42.6892 140.397C42.5564 140.964 42.6545 141.559 42.9618 142.053C43.155 142.326 43.4081 142.551 43.7017 142.712C43.9954 142.872 44.3218 142.963 44.6562 142.978L42.0958 152.202C41.9404 152.763 42.0143 153.362 42.3015 153.868C42.5887 154.374 43.0655 154.745 43.6271 154.9C44.1888 155.055 44.7892 154.981 45.2963 154.695C45.8035 154.408 46.1757 153.933 46.3313 153.372L50.1881 139.476C50.2663 139.194 50.2872 138.899 50.2493 138.609C50.2115 138.318 50.1157 138.038 49.9677 137.786C49.8197 137.533 49.6223 137.312 49.3874 137.136C49.1525 136.961 48.8847 136.834 48.5999 136.763Z" fill="white"/>
<path d="M325.965 45.389C325.384 45.4349 324.845 45.7091 324.467 46.1513C324.089 46.5937 323.902 47.168 323.948 47.7476C323.994 48.3273 324.269 48.8649 324.713 49.2423L360.914 80.0611C361.254 80.3505 361.674 80.5295 362.119 80.5745C362.563 80.6194 363.011 80.5281 363.402 80.3127L410.39 54.4392C410.643 54.3001 410.866 54.1127 411.046 53.8876C411.226 53.6625 411.36 53.4041 411.44 53.1274C411.52 52.8507 411.544 52.5611 411.512 52.2749C411.48 51.9887 411.391 51.7117 411.252 51.4596C411.113 51.2074 410.925 50.9852 410.699 50.8054C410.474 50.6257 410.215 50.4919 409.937 50.412C409.66 50.332 409.37 50.3074 409.083 50.3394C408.796 50.3715 408.518 50.4596 408.265 50.5988L362.61 75.7399L327.565 45.9061C327.122 45.5289 326.546 45.3429 325.965 45.389Z" fill="white"/>
<path d="M293.2 140.807C292.636 140.662 292.037 140.747 291.535 141.042C291.033 141.337 290.67 141.819 290.524 142.382C290.452 142.661 290.435 142.951 290.476 143.236C290.516 143.521 290.612 143.796 290.759 144.044C290.905 144.292 291.099 144.509 291.33 144.682C291.561 144.855 291.823 144.981 292.103 145.053C297.955 146.561 304.682 152.025 305.528 166.748C307.336 198.073 305.421 237.443 298.191 260.534C295.678 268.57 291.291 272.971 286.013 275.147C280.734 277.322 274.387 277.192 268.168 275.37C257.607 272.278 237.376 267.729 220.365 264.312C220.082 264.255 219.79 264.254 219.507 264.31C219.224 264.365 218.954 264.476 218.714 264.635C218.474 264.795 218.267 265 218.106 265.239C217.945 265.478 217.833 265.747 217.776 266.029C217.661 266.599 217.778 267.191 218.1 267.676C218.423 268.16 218.925 268.496 219.496 268.611C236.428 272.013 256.711 276.586 266.93 279.578C273.864 281.61 281.22 281.866 287.69 279.2C294.159 276.534 299.565 270.865 302.387 261.842C309.969 237.625 311.747 198.201 309.917 166.498C308.994 150.446 300.886 142.787 293.201 140.808L293.2 140.807ZM193.215 208.681C192.016 208.617 190.922 208.648 189.933 208.795C188.669 208.983 187.981 209.836 187.555 210.518C187.128 211.199 186.838 211.927 186.536 212.795C185.932 214.53 185.335 216.819 184.55 219.71C182.979 225.492 180.687 233.627 176.563 243.499C176.043 244.746 176.362 246.33 177.007 247.226C177.652 248.122 178.409 248.613 179.092 249.053C179.775 249.492 180.416 249.856 180.828 250.145C181.241 250.433 181.304 250.668 181.185 250.347C181.578 251.405 181.431 253.942 182.89 256.72C184.349 259.497 187.541 261.932 193.744 263.379C197.316 264.209 204.633 265.642 213.53 267.417C213.813 267.474 214.105 267.474 214.388 267.418C214.671 267.362 214.94 267.252 215.18 267.092C215.421 266.932 215.627 266.727 215.787 266.487C215.948 266.248 216.06 265.979 216.116 265.697C216.23 265.127 216.113 264.535 215.79 264.051C215.466 263.568 214.964 263.232 214.393 263.118C205.489 261.341 198.106 259.891 194.743 259.109C189.224 257.821 187.567 256.178 186.783 254.685C185.999 253.193 186.214 251.268 185.306 248.824C184.852 247.6 184.038 247.035 183.354 246.556C182.671 246.077 181.998 245.705 181.473 245.367C181.06 245.101 180.889 244.931 180.766 244.815C184.898 234.858 187.233 226.601 188.794 220.856C189.585 217.946 190.191 215.663 190.689 214.232C190.887 213.665 191.035 213.371 191.16 213.128C193.608 212.977 199.033 213.857 205.649 215.59C212.718 217.442 221.244 220.09 229.886 222.773C238.529 225.456 247.29 228.173 254.906 230.173C262.521 232.172 268.863 233.51 273.333 233.236C273.621 233.218 273.903 233.144 274.162 233.018C274.422 232.892 274.654 232.715 274.845 232.5C275.036 232.284 275.183 232.033 275.277 231.76C275.371 231.488 275.41 231.2 275.392 230.912C275.375 230.625 275.3 230.344 275.174 230.085C275.047 229.826 274.871 229.595 274.655 229.404C274.438 229.213 274.186 229.067 273.913 228.973C273.64 228.879 273.352 228.84 273.064 228.858C269.838 229.055 263.493 227.893 256.024 225.932C248.554 223.971 239.833 221.268 231.191 218.586C222.55 215.903 213.989 213.241 206.765 211.348C201.347 209.929 196.814 208.872 193.217 208.679L193.215 208.681Z" fill="white"/>
<path d="M275.045 162.314C274.471 162.212 273.88 162.342 273.402 162.674C270.744 164.521 268.421 166.828 266.862 170.131C265.304 173.434 264.497 177.626 264.406 183.334C264.172 198.024 264.395 207.7 264.109 214.532C263.822 221.365 263.068 225.177 260.996 228.729C260.702 229.232 260.621 229.83 260.77 230.392C260.919 230.954 261.285 231.434 261.789 231.727C262.038 231.872 262.314 231.967 262.6 232.005C262.886 232.044 263.177 232.026 263.456 231.952C263.735 231.879 263.997 231.751 264.227 231.576C264.456 231.402 264.649 231.184 264.794 230.935C267.337 226.577 268.202 221.811 268.5 214.715C268.797 207.62 268.567 198.018 268.8 183.403C268.885 178.076 269.645 174.53 270.839 172C272.033 169.469 273.649 167.846 275.914 166.273C276.392 165.94 276.718 165.432 276.821 164.859C276.924 164.287 276.794 163.697 276.461 163.22C276.296 162.984 276.086 162.782 275.843 162.627C275.6 162.471 275.329 162.365 275.045 162.314Z" fill="white"/>
<path d="M116.694 179.277C116.422 179.372 116.171 179.52 115.956 179.712C115.741 179.905 115.566 180.137 115.441 180.397C115.316 180.656 115.243 180.938 115.228 181.226C115.212 181.513 115.253 181.801 115.348 182.073C115.444 182.344 115.592 182.595 115.785 182.809C115.978 183.024 116.211 183.198 116.471 183.323C131.24 190.4 139.504 192.449 144.456 192.642C146.933 192.738 148.615 192.355 149.779 191.769C150.361 191.477 150.804 191.132 151.117 190.808C151.43 190.484 151.703 189.993 151.703 189.993C151.956 189.469 151.989 188.867 151.797 188.318C151.604 187.769 151.201 187.319 150.676 187.067C150.151 186.815 149.547 186.782 148.997 186.974C148.447 187.166 147.996 187.568 147.743 188.092C147.743 188.092 147.92 187.798 147.953 187.765C147.985 187.732 147.961 187.772 147.8 187.853C147.478 188.015 146.571 188.335 144.628 188.26C140.743 188.109 132.856 186.309 118.374 179.369C117.848 179.117 117.244 179.084 116.694 179.277Z" fill="white"/>
<path d="M116.696 179.277C114.741 179.961 113.387 181.95 113.466 183.8C113.544 185.651 114.548 187.232 115.994 188.466C115.996 188.466 115.997 188.466 115.999 188.466C117.021 189.336 118.205 190.149 119.517 190.926C119.765 191.073 120.04 191.17 120.325 191.211C120.611 191.252 120.902 191.237 121.182 191.165C121.462 191.094 121.725 190.969 121.956 190.796C122.187 190.624 122.382 190.408 122.529 190.16C122.676 189.912 122.773 189.638 122.815 189.353C122.856 189.068 122.84 188.778 122.769 188.499C122.698 188.22 122.572 187.957 122.399 187.727C122.226 187.496 122.009 187.302 121.761 187.155C120.612 186.474 119.623 185.786 118.854 185.132C118.124 184.509 117.867 183.805 117.859 183.613C117.851 183.421 117.584 183.613 118.152 183.413C118.702 183.22 119.153 182.818 119.405 182.294C119.658 181.77 119.691 181.167 119.499 180.618C119.306 180.07 118.902 179.62 118.377 179.368C117.852 179.116 117.248 179.082 116.698 179.275L116.696 179.277ZM124.12 189.183C123.849 189.282 123.6 189.434 123.388 189.629C123.176 189.824 123.004 190.059 122.883 190.321C122.639 190.849 122.614 191.452 122.816 191.997C123.017 192.543 123.427 192.987 123.956 193.231C130.773 196.376 138.803 198.711 143.078 199.321C143.655 199.403 144.241 199.253 144.707 198.904C145.173 198.556 145.481 198.036 145.564 197.461C145.605 197.176 145.589 196.886 145.518 196.607C145.446 196.328 145.32 196.065 145.147 195.835C144.974 195.604 144.757 195.41 144.509 195.263C144.261 195.117 143.986 195.02 143.7 194.979C140.294 194.493 132.148 192.179 125.801 189.25C125.272 189.006 124.667 188.982 124.12 189.183Z" fill="white"/>
<path d="M119.353 185.644C118.81 185.434 118.206 185.448 117.672 185.682C117.139 185.917 116.722 186.354 116.511 186.896C115.942 188.358 115.908 190.01 116.466 191.401C117.023 192.792 118.003 193.878 119.181 194.917C122.932 198.218 127.678 200.749 131.901 202.681C136.124 204.614 139.927 205.974 141.326 206.588C141.591 206.704 141.875 206.767 142.164 206.773C142.452 206.779 142.739 206.728 143.008 206.624C143.277 206.519 143.523 206.363 143.731 206.164C143.939 205.965 144.106 205.726 144.223 205.463C144.339 205.199 144.402 204.915 144.408 204.627C144.414 204.34 144.363 204.053 144.259 203.785C144.154 203.516 143.997 203.271 143.797 203.063C143.598 202.856 143.359 202.689 143.095 202.573C141.269 201.773 137.756 200.536 133.733 198.695C129.711 196.855 125.283 194.439 122.09 191.629C121.18 190.826 120.71 190.18 120.545 189.769C120.38 189.358 120.351 189.137 120.607 188.479C120.711 188.21 120.761 187.924 120.755 187.636C120.748 187.348 120.685 187.064 120.568 186.801C120.452 186.538 120.284 186.299 120.075 186.101C119.867 185.902 119.621 185.746 119.351 185.642L119.353 185.644Z" fill="white"/>
<path d="M129.036 196.453C128.754 196.393 128.463 196.389 128.179 196.441C127.895 196.493 127.624 196.6 127.381 196.756C127.139 196.913 126.93 197.115 126.766 197.353C126.602 197.59 126.487 197.857 126.426 198.138C125.982 200.21 126.747 202.207 127.896 203.671C129.044 205.134 130.563 206.264 132.159 207.244C135.35 209.205 139.01 210.579 140.493 211.254C140.755 211.374 141.039 211.44 141.327 211.451C141.616 211.461 141.904 211.414 142.174 211.314C142.445 211.213 142.692 211.06 142.904 210.864C143.115 210.667 143.285 210.431 143.405 210.169C143.525 209.907 143.592 209.624 143.602 209.336C143.612 209.049 143.566 208.762 143.465 208.492C143.363 208.222 143.21 207.974 143.013 207.764C142.816 207.553 142.58 207.383 142.317 207.264C140.475 206.425 137.145 205.157 134.464 203.51C133.124 202.686 131.987 201.77 131.357 200.967C130.728 200.164 130.593 199.673 130.725 199.056C130.847 198.487 130.738 197.894 130.421 197.406C130.104 196.917 129.606 196.575 129.036 196.453Z" fill="white"/>
<path d="M133.854 203.685C133.568 203.722 133.292 203.815 133.041 203.959C132.791 204.102 132.571 204.293 132.395 204.521C132.219 204.749 132.089 205.01 132.014 205.288C131.939 205.566 131.919 205.856 131.956 206.142C132.499 210.332 135.201 213.098 138.34 214.882C141.478 216.667 145.142 217.845 148.765 219.598C148.767 219.598 148.769 219.598 148.771 219.598C151.483 220.903 154.338 221.025 159.29 222.758C164.243 224.492 171.285 227.729 181.616 234.817C181.854 234.98 182.122 235.095 182.404 235.155C182.686 235.215 182.977 235.219 183.261 235.166C183.545 235.114 183.816 235.006 184.058 234.85C184.3 234.693 184.509 234.49 184.672 234.253C184.836 234.015 184.951 233.748 185.011 233.467C185.071 233.185 185.075 232.895 185.022 232.611C184.97 232.328 184.862 232.058 184.705 231.816C184.548 231.575 184.345 231.367 184.107 231.203C173.521 223.94 166.086 220.489 160.745 218.62C155.404 216.751 152.15 216.355 150.681 215.648C146.734 213.74 143.055 212.514 140.518 211.072C137.981 209.629 136.677 208.344 136.318 205.578C136.281 205.293 136.188 205.017 136.045 204.767C135.901 204.518 135.709 204.298 135.481 204.123C135.252 203.947 134.991 203.817 134.712 203.742C134.434 203.667 134.143 203.647 133.857 203.684L133.854 203.685Z" fill="#E2F0FF"/>
<path d="M112.238 154.659C111.661 154.58 111.076 154.733 110.611 155.085C110.147 155.436 109.842 155.957 109.762 156.533C109.723 156.818 109.74 157.108 109.813 157.387C109.887 157.666 110.014 157.927 110.188 158.157C110.363 158.386 110.581 158.579 110.83 158.724C111.079 158.87 111.354 158.965 111.64 159.004L136.073 162.352L143.771 191.013C143.922 191.575 144.29 192.054 144.795 192.344C145.3 192.635 145.899 192.714 146.462 192.564C147.025 192.413 147.505 192.046 147.797 191.542C148.088 191.038 148.167 190.44 148.016 189.878L139.94 159.81C139.828 159.394 139.595 159.019 139.271 158.734C138.947 158.449 138.545 158.265 138.117 158.206L112.238 154.659Z" fill="white"/>
<path d="M190.352 167.047C189.77 167.017 189.2 167.219 188.767 167.608C188.334 167.997 188.074 168.542 188.044 169.123C187.806 173.69 186.622 191.43 182.531 211.251C182.414 211.82 182.527 212.413 182.848 212.899C183.168 213.385 183.669 213.723 184.239 213.841C184.522 213.899 184.814 213.901 185.097 213.847C185.38 213.792 185.65 213.683 185.891 213.525C186.133 213.366 186.34 213.162 186.502 212.924C186.664 212.685 186.777 212.417 186.835 212.135C190.997 191.973 192.187 174.081 192.433 169.351C192.448 169.063 192.406 168.775 192.309 168.504C192.213 168.233 192.064 167.983 191.871 167.769C191.677 167.555 191.444 167.381 191.183 167.257C190.923 167.133 190.64 167.062 190.352 167.047ZM180.456 228.87C179.898 228.7 179.296 228.759 178.782 229.032C178.267 229.306 177.883 229.772 177.713 230.328C174.408 241.15 170.069 251.541 164.498 259.72C164.749 259.351 158.14 261.628 159.557 269.945C159.655 270.519 159.977 271.03 160.452 271.366C160.927 271.703 161.517 271.837 162.092 271.74C162.666 271.642 163.179 271.321 163.516 270.847C163.853 270.373 163.988 269.784 163.89 269.211C162.758 262.564 165.335 266.298 168.134 262.182C174.079 253.455 178.53 242.699 181.917 231.605C182.087 231.049 182.029 230.448 181.755 229.935C181.481 229.422 181.013 229.038 180.456 228.869L180.456 228.87Z" fill="white"/>
<path d="M287.696 274.778C287.12 274.694 286.533 274.841 286.065 275.188C285.598 275.535 285.287 276.053 285.202 276.628C284.323 282.59 287.137 286.097 288.495 288.074C289.173 289.062 289.391 289.535 289.358 290.112C289.326 290.689 288.939 291.825 287.277 293.768C286.898 294.211 286.712 294.785 286.758 295.365C286.804 295.944 287.079 296.482 287.522 296.859C287.966 297.237 288.541 297.423 289.122 297.377C289.703 297.331 290.242 297.057 290.62 296.614C292.596 294.304 293.635 292.351 293.747 290.357C293.859 288.364 292.938 286.786 292.121 285.595C290.485 283.213 288.876 281.852 289.552 277.266C289.594 276.981 289.579 276.691 289.508 276.412C289.438 276.133 289.313 275.87 289.14 275.639C288.968 275.408 288.752 275.213 288.504 275.065C288.256 274.917 287.982 274.82 287.696 274.778Z" fill="white"/>
<path d="M166.352 267.053C161.692 267.192 157.199 267.841 152.936 269.116C141.57 272.515 131.993 280.52 125.879 294.53C122.079 303.234 109.08 337.905 96.7777 370.997C90.6267 387.543 84.6713 403.648 80.1833 415.788C77.9392 421.858 76.0621 426.937 74.7115 430.583C73.3609 434.23 72.4557 436.638 72.4194 436.728C72.4194 436.73 72.4194 436.732 72.4194 436.733C70.9639 440.327 71.4837 444.163 73.5526 447.387C75.6213 450.611 79.0633 453.375 83.5839 455.855C87.3966 457.949 92.579 459.412 97.2155 460.18C99.5338 460.564 101.698 460.766 103.532 460.729C104.449 460.71 105.282 460.638 106.068 460.455C106.853 460.272 107.65 460.031 108.389 459.244C108.908 458.693 108.995 458.444 109.357 457.86C109.719 457.274 110.173 456.508 110.714 455.574C111.796 453.706 113.223 451.17 114.882 448.187C118.199 442.221 122.435 434.471 126.612 426.783C133.327 414.422 137.534 406.576 139.849 402.268C141.872 417.893 149.56 471.976 165.15 516.109C165.798 517.936 167.351 519.118 169.085 519.863C170.82 520.608 172.866 521.003 175.158 521.164C179.743 521.486 185.323 520.833 190.859 519.207C198.426 516.985 203.479 513.264 206.5 509.395C209.521 505.527 210.65 501.631 209.929 498.501C196.4 440.009 189.005 353.835 188.271 345.054C195.947 347.447 228.301 356.279 269.008 347.039C282.096 344.071 289.423 335.476 292.896 326.08C296.368 316.684 296.27 306.493 295.198 299.342C294.906 297.393 293.647 295.8 292 294.552C290.352 293.305 288.237 292.28 285.635 291.302C280.43 289.345 273.246 287.609 264.236 285.706C246.217 281.899 220.946 277.479 190.763 270.074C182.354 268.011 174.12 266.825 166.352 267.056V267.053ZM166.499 271.45C173.734 271.241 181.575 272.333 189.714 274.33C220.055 281.774 245.447 286.216 263.325 289.993C272.264 291.882 279.336 293.618 284.084 295.403C286.458 296.296 288.244 297.211 289.344 298.044C290.443 298.876 290.778 299.502 290.851 299.989C291.835 306.558 291.871 316.176 288.772 324.562C285.672 332.948 279.72 340.111 268.034 342.762C222.96 352.992 186.536 339.979 186.536 339.979C186.19 339.855 185.819 339.82 185.456 339.877C185.093 339.933 184.75 340.079 184.458 340.302C184.166 340.525 183.935 340.817 183.786 341.152C183.637 341.487 183.574 341.854 183.603 342.22C183.603 342.22 191.256 437.266 205.646 499.483C205.897 500.574 205.438 503.623 203.035 506.7C200.632 509.778 196.425 513.002 189.619 515C184.557 516.487 179.372 517.063 175.469 516.789C173.518 516.652 171.89 516.292 170.826 515.835C169.764 515.379 169.392 514.912 169.298 514.648C151.316 463.745 143.328 395 143.328 395C143.274 394.536 143.073 394.101 142.754 393.759C142.435 393.417 142.015 393.186 141.556 393.099C141.096 393.011 140.62 393.073 140.198 393.274C139.775 393.475 139.428 393.806 139.207 394.217C139.207 394.217 131.097 409.33 122.751 424.692C118.578 432.374 114.345 440.118 111.041 446.06C109.389 449.03 107.969 451.552 106.911 453.379C106.382 454.292 105.942 455.033 105.619 455.556C105.357 455.979 105.228 456.139 105.27 456.111C105.226 456.133 105.191 456.156 105.073 456.184C104.736 456.262 104.158 456.33 103.446 456.344C102.023 456.373 100.059 456.204 97.9387 455.853C93.6979 455.15 88.7617 453.691 85.7065 452.013C81.585 449.752 78.726 447.311 77.258 445.023C75.7906 442.736 75.5378 440.754 76.4982 438.38C76.4981 438.38 76.4984 438.379 76.4982 438.38C76.7425 437.779 77.4877 435.757 78.8387 432.11C80.1904 428.461 82.0676 423.381 84.3115 417.311C88.7994 405.172 94.7535 389.069 100.903 372.528C113.201 339.445 126.362 304.422 129.913 296.287C135.612 283.228 143.969 276.383 154.202 273.323C158.039 272.176 162.162 271.581 166.503 271.456L166.499 271.45Z" fill="#CACACA"/>
<mask id="mask7_2_4" style="mask-type:luminance" maskUnits="userSpaceOnUse" x="-741" y="-3167" width="1364" height="7197">
<path d="M622.451 4029L622.451 -3166.11H-740.306L-740.306 4029H622.451Z" fill="white"/>
</mask>
<g mask="url(#mask7_2_4)">
<path fill-rule="evenodd" clip-rule="evenodd" d="M141.141 395.25C141.141 395.25 108.697 455.713 106.785 457.742C104.879 459.775 91.5113 457.703 84.6434 453.932C76.0009 449.19 72.0396 443.522 74.4571 437.552C75.5779 434.795 120.543 312.245 127.894 295.405C139.707 268.336 163.761 265.705 190.238 272.201C250.763 287.051 291.564 289.923 293.025 299.664C295.08 313.385 293.294 339.281 268.521 344.9C222.803 355.277 185.793 342.044 185.793 342.044C185.793 342.044 193.469 437.086 207.787 498.992C208.759 503.213 204.611 512.883 190.238 517.104C179.64 520.217 168.706 519.559 167.222 515.377C149.102 464.084 141.141 395.25 141.141 395.25Z" fill="white"/>
</g>
<path d="M84.3144 174.562C83.7767 174.542 83.35 174.657 82.9622 174.819C82.2938 175.098 81.7446 175.582 81.285 176.196C79.6528 176.202 78.0902 176.698 76.72 177.439C74.8662 178.44 73.2677 179.872 71.8793 181.403C69.1024 184.465 67.2241 187.741 66.5062 189.722C63.9736 196.67 69.3382 204.813 76.8874 204.543C78.8788 204.472 80.5367 203.495 82.049 202.297C83.5614 201.1 84.9437 199.596 86.159 198.046C87.3743 196.495 88.4131 194.903 89.1777 193.501C89.5599 192.799 89.8728 192.148 90.1102 191.537C90.3475 190.926 90.5573 190.431 90.5437 189.572C90.5096 187.432 89.1906 186.196 88.1335 185.003C87.0766 183.81 85.9761 182.582 85.1364 180.886C84.8573 180.321 84.824 180.031 84.7715 179.726C84.8105 179.751 84.8336 179.768 84.8734 179.794C85.7323 180.354 86.8298 181.051 87.9801 181.782C90.2807 183.245 92.8542 184.898 93.8371 185.637C94.7377 186.315 95.2034 187.357 95.5658 188.915C95.9284 190.474 96.0783 192.385 96.7226 194.31C97.1746 195.662 97.9602 196.48 98.9407 197.553C99.9215 198.627 101.117 199.77 102.353 200.871C104.826 203.074 107.166 204.977 108.883 205.859C109.14 205.991 109.42 206.071 109.707 206.095C109.995 206.119 110.285 206.086 110.56 205.998C110.835 205.911 111.09 205.77 111.31 205.583C111.53 205.397 111.712 205.17 111.844 204.914C112.11 204.397 112.16 203.795 111.982 203.241C111.804 202.688 111.413 202.227 110.895 201.961C110.393 201.703 107.593 199.66 105.281 197.6C104.124 196.57 103.016 195.503 102.19 194.599C101.365 193.695 100.842 192.77 100.893 192.922C100.493 191.728 100.306 189.892 99.8486 187.925C99.3911 185.958 98.5543 183.694 96.4833 182.136C95.1311 181.12 92.6478 179.551 90.3441 178.086C89.1923 177.354 88.1011 176.661 87.2815 176.126C86.8717 175.859 86.5278 175.629 86.2942 175.466C86.0607 175.304 85.8019 175.014 86.1472 175.392L86.1549 175.4C85.5943 174.782 84.8544 174.585 84.3167 174.565L84.3144 174.562ZM80.4727 180.663C80.6136 181.364 80.8268 182.084 81.1938 182.826C82.3374 185.137 83.8108 186.745 84.8402 187.906C85.8695 189.068 86.1493 189.703 86.1483 189.641C86.1428 189.303 86.1538 189.591 86.0109 189.952C85.8706 190.314 85.6305 190.827 85.3155 191.404C84.6855 192.56 83.7557 193.99 82.695 195.343C81.6343 196.697 80.4314 197.978 79.3158 198.861C78.2002 199.745 77.1876 200.144 76.7285 200.16C72.5988 200.307 69.2069 195.133 70.6366 191.217C70.6366 191.215 70.6366 191.213 70.6366 191.211C70.9517 190.342 72.8077 186.909 75.135 184.343C76.2987 183.06 77.595 181.949 78.8104 181.293C79.4006 180.974 79.9465 180.77 80.4694 180.661L80.4727 180.663Z" fill="white"/>
<path d="M71.6497 197.844C71.1028 197.644 70.4982 197.668 69.9692 197.912C69.4402 198.156 69.0299 198.6 68.8286 199.145C68.6274 199.691 68.6517 200.294 68.8961 200.822C71.0089 205.383 74.9867 207.669 78.4854 208.796C80.2347 209.36 81.8961 209.664 83.2488 209.871C84.601 210.078 85.738 210.229 85.9692 210.29C85.7815 210.24 86.7887 210.717 87.7902 211.489C88.7918 212.261 89.9962 213.302 91.1823 214.388C93.5544 216.56 95.9234 218.98 96.6358 219.781C97.0226 220.216 97.5667 220.48 98.1485 220.515C98.7303 220.55 99.3021 220.352 99.7381 219.966C100.174 219.581 100.439 219.038 100.474 218.457C100.509 217.877 100.311 217.306 99.9248 216.871C98.956 215.781 96.6413 213.435 94.1537 211.157C92.91 210.018 91.6401 208.914 90.4773 208.018C89.3145 207.122 88.4662 206.41 87.0863 206.048C86.1218 205.796 85.157 205.727 83.9152 205.537C82.6735 205.347 81.2494 205.078 79.8375 204.623C77.0136 203.713 74.3674 202.178 72.887 198.983C72.7659 198.721 72.5945 198.486 72.3824 198.291C72.1702 198.096 71.9216 197.944 71.6508 197.844H71.6497Z" fill="white"/>
<path d="M95.7765 213.377C95.4887 213.354 95.1993 213.388 94.9245 213.476C94.6498 213.565 94.3953 213.707 94.1754 213.893C94.1754 213.893 92.0969 215.651 90.074 218.048C88.0511 220.444 85.7039 223.427 86.1669 227.066C86.2402 227.643 86.5402 228.167 87.0008 228.523C87.4615 228.879 88.045 229.038 88.6232 228.965C88.9096 228.929 89.186 228.837 89.4367 228.694C89.6874 228.551 89.9073 228.36 90.0841 228.133C90.2609 227.905 90.391 227.645 90.467 227.367C90.543 227.089 90.5633 226.799 90.5269 226.513C90.4075 225.575 91.6872 222.944 93.4361 220.872C95.185 218.8 97.0235 217.234 97.0235 217.234C97.2433 217.047 97.4242 216.819 97.5557 216.563C97.6873 216.307 97.7669 216.027 97.7901 215.74C97.8133 215.453 97.7797 215.164 97.6911 214.89C97.6024 214.616 97.4605 214.362 97.2735 214.143C97.0866 213.924 96.8582 213.743 96.6013 213.612C96.3445 213.48 96.0642 213.401 95.7765 213.377Z" fill="white"/>
<path d="M71.1607 197.725C70.5822 197.654 69.9991 197.815 69.5397 198.173C69.0802 198.531 68.7821 199.056 68.7108 199.633L60.6668 264.608C60.6172 265.009 60.6796 265.416 60.8469 265.784C61.0142 266.151 61.2801 266.465 61.6152 266.692C61.9502 266.919 62.3415 267.048 62.7458 267.067C63.1501 267.086 63.5518 266.993 63.9065 266.799L69.9116 263.504C70.2202 263.335 70.4836 263.095 70.6795 262.803C70.8754 262.511 70.9981 262.176 71.0373 261.827L71.297 259.51L71.2208 274.185C71.2188 274.584 71.3257 274.975 71.5298 275.317C71.734 275.659 72.0277 275.94 72.3795 276.128C72.7313 276.317 73.1279 276.406 73.5267 276.386C73.9254 276.367 74.3113 276.239 74.6429 276.017L79.7197 272.618C79.8653 272.52 79.9986 272.405 80.1168 272.275C80.4372 275.992 80.7618 279.764 81.0439 282.71C81.339 285.759 81.6092 288.291 81.8455 290.129C81.9637 291.048 82.0721 291.789 82.1804 292.371C82.2347 292.663 82.2852 292.911 82.3574 293.168C82.3937 293.297 82.4331 293.425 82.5066 293.6C82.5796 293.775 82.618 293.996 83.0614 294.424C84.2358 295.56 85.6578 295.374 86.6037 295.133C87.5511 294.891 88.3922 294.479 89.1974 294.027C90.0026 293.574 90.7494 293.075 91.364 292.618C91.9734 292.164 92.3308 291.953 92.8609 291.276C93.2888 290.734 93.2672 290.499 93.3009 290.337C93.335 290.172 93.341 290.079 93.347 289.997C93.3591 289.832 93.357 289.724 93.3548 289.608C93.3493 289.376 93.3333 289.131 93.3097 288.827C93.2619 288.22 93.1804 287.398 93.0672 286.362C92.8409 284.291 92.49 281.379 92.0499 277.861C91.5598 273.905 90.9496 269.199 90.2793 264.085C89.7734 260.207 89.2291 256.099 88.6686 251.91C85.4535 227.805 81.7664 201.058 81.7664 201.058C81.7271 200.773 81.6319 200.498 81.4861 200.25C81.3404 200.001 81.147 199.784 80.917 199.61C80.687 199.436 80.4249 199.309 80.1457 199.236C79.8665 199.163 79.5756 199.145 79.2896 199.185C79.0037 199.224 78.7283 199.319 78.4792 199.464C78.23 199.61 78.0121 199.803 77.8377 200.032C77.6633 200.262 77.536 200.523 77.4629 200.802C77.3898 201.08 77.3724 201.371 77.4117 201.656C77.4117 201.656 78.5827 210.307 78.8743 212.43C78.5396 212.255 78.1653 212.168 77.7875 212.18C77.4097 212.191 77.0412 212.299 76.7175 212.494C76.3939 212.689 76.126 212.963 75.9399 213.292C75.7538 213.62 75.6557 213.991 75.655 214.368L75.6957 217.953C75.5365 217.521 75.2449 217.149 74.8621 216.892C74.4794 216.634 74.025 216.503 73.5634 216.517C73.1018 216.532 72.6566 216.691 72.2908 216.972C71.925 217.253 71.6573 217.642 71.5257 218.084L66.7965 260.211L65.556 260.892L73.0731 200.173C73.1085 199.887 73.0871 199.597 73.0102 199.319C72.9332 199.042 72.8022 198.782 72.6247 198.555C72.4471 198.328 72.2264 198.138 71.9752 197.996C71.724 197.854 71.4473 197.763 71.1607 197.728L71.1607 197.725ZM81.1867 229.468C82.4495 238.736 82.8565 241.578 84.3115 252.487C84.8717 256.674 85.415 260.776 85.9201 264.649C86.5902 269.762 87.1997 274.461 87.6875 278.398C88.1264 281.907 88.4759 284.808 88.6973 286.834C88.7984 287.759 88.8644 288.443 88.9076 288.962C88.8008 289.056 88.8576 289.008 88.7359 289.098C88.2646 289.449 87.6445 289.864 87.0404 290.203C86.7648 290.358 86.5942 290.4 86.3451 290.512C86.2978 290.188 86.2586 289.981 86.2056 289.568C85.9805 287.818 85.7117 285.311 85.419 282.287C85.0411 278.342 84.6131 273.515 84.1742 268.276C83.8175 264.029 83.4551 259.509 83.0925 254.961C82.1003 242.383 81.7541 237.286 81.1867 229.466V229.468ZM75.8426 230.85L76.2847 269.637L75.6377 270.071L75.8426 230.85Z" fill="white"/>
<mask id="mask8_2_4" style="mask-type:luminance" maskUnits="userSpaceOnUse" x="-741" y="-3167" width="1364" height="7197">
<path d="M622.451 4029L622.451 -3166.11H-740.306L-740.306 4029H622.451Z" fill="white"/>
</mask>
<g mask="url(#mask8_2_4)">
<path fill-rule="evenodd" clip-rule="evenodd" d="M70.8913 199.902C72.4407 201.454 74.512 202.435 76.8086 202.353C77.6932 202.32 78.6382 201.952 79.5887 201.355C79.5887 201.355 83.2753 228.1 86.4895 252.198C87.0499 256.386 87.5939 260.492 88.0993 264.368C88.7696 269.482 89.3795 274.186 89.8685 278.132C90.7476 285.16 91.2696 289.759 91.1377 289.924C90.5663 290.658 85.8412 294.068 84.5885 292.851C84.3083 292.582 83.8193 288.575 83.2314 282.502C82.8523 278.544 82.4238 273.709 81.9842 268.463C81.6271 264.209 81.2645 259.687 80.9019 255.137C79.314 235.008 77.8525 214.341 77.8525 214.341L78.4954 270.798L73.4186 274.197L73.7099 218.326L68.8529 261.583L62.8477 264.878L70.8913 199.902Z" fill="black"/>
</g>
<path d="M111.299 247.627C111.013 247.668 110.739 247.765 110.491 247.912C110.243 248.06 110.026 248.255 109.853 248.485C109.681 248.716 109.556 248.979 109.485 249.258C109.414 249.537 109.399 249.828 109.44 250.113L112.028 267.851C112.076 268.184 112.2 268.501 112.391 268.778C112.582 269.055 112.834 269.285 113.128 269.449C113.422 269.613 113.75 269.708 114.087 269.726C114.423 269.743 114.759 269.684 115.069 269.551L121.914 266.624C122.391 266.42 122.781 266.054 123.013 265.591C123.246 265.127 123.307 264.597 123.185 264.093L121.08 255.416C120.943 254.85 120.587 254.363 120.089 254.06C119.592 253.757 118.994 253.663 118.428 253.8C117.861 253.937 117.372 254.292 117.069 254.789C116.765 255.285 116.671 255.881 116.808 256.447L118.476 263.323L115.966 264.396L113.79 249.481C113.706 248.906 113.396 248.387 112.929 248.039C112.462 247.691 111.876 247.543 111.299 247.627Z" fill="white"/>
<mask id="mask9_2_4" style="mask-type:luminance" maskUnits="userSpaceOnUse" x="-741" y="-3167" width="1364" height="7197">
<path d="M622.451 4029L622.451 -3166.11H-740.306L-740.306 4029H622.451Z" fill="white"/>
</mask>
<g mask="url(#mask9_2_4)">
<path fill-rule="evenodd" clip-rule="evenodd" d="M111.615 249.797C113.917 251.781 116.384 253.853 118.944 255.931L121.049 264.609L114.203 267.536L111.615 249.797Z" fill="black" fill-opacity="0.2"/>
</g>
<path d="M111.276 246.982C110.993 246.926 110.702 246.927 110.419 246.983C110.136 247.04 109.867 247.152 109.627 247.313L61.9855 279.205C61.5579 279.492 61.2447 279.918 61.1004 280.411C60.956 280.904 60.9897 281.433 61.1957 281.903L65.6297 292.045C65.7462 292.311 65.9146 292.551 66.1251 292.752C66.3357 292.953 66.584 293.11 66.8559 293.214C67.1278 293.318 67.4177 293.368 67.7088 293.359C68 293.351 68.2865 293.285 68.5518 293.164L76.3049 289.656C76.41 289.608 76.5112 289.552 76.6075 289.489L117.54 262.541C118.026 262.22 118.365 261.72 118.482 261.151C118.599 260.581 118.484 259.988 118.163 259.503C117.842 259.018 117.341 258.68 116.77 258.563C116.199 258.446 115.605 258.561 115.119 258.881L74.3304 285.734L68.7664 288.252L65.9581 281.827L112.076 250.954C112.315 250.794 112.521 250.588 112.681 250.348C112.841 250.108 112.952 249.839 113.008 249.557C113.064 249.274 113.063 248.983 113.006 248.701C112.949 248.419 112.837 248.15 112.677 247.911C112.352 247.428 111.848 247.094 111.276 246.982Z" fill="white"/>
<path d="M75.3638 285.467C74.7811 285.475 74.2257 285.714 73.8199 286.132C73.414 286.549 73.1907 287.11 73.1993 287.691L74.2982 361.712C74.307 362.294 74.5468 362.848 74.965 363.253C75.3832 363.658 75.9454 363.88 76.5281 363.872C77.1108 363.863 77.6662 363.624 78.0721 363.207C78.478 362.789 78.7011 362.228 78.6925 361.647L77.5937 287.627C77.5895 287.339 77.5285 287.055 77.4141 286.79C77.2998 286.526 77.1344 286.287 76.9273 286.086C76.7202 285.885 76.4756 285.727 76.2073 285.621C75.939 285.515 75.6524 285.462 75.3638 285.467Z" fill="white"/>
<path d="M63.771 278.907C63.2075 278.758 62.6079 278.839 62.1042 279.132C61.6005 279.424 61.2339 279.905 61.085 280.467L42.6406 350.134C42.5669 350.413 42.5489 350.703 42.5876 350.989C42.6264 351.274 42.7212 351.549 42.8664 351.798C43.0117 352.047 43.2048 352.265 43.4345 352.439C43.6642 352.613 43.926 352.741 44.2051 352.814C44.7687 352.963 45.3682 352.882 45.8719 352.589C46.3756 352.297 46.7422 351.817 46.8911 351.254L65.3345 281.587C65.4833 281.025 65.4022 280.426 65.109 279.924C64.8158 279.421 64.3345 279.055 63.771 278.907Z" fill="white"/>
<path d="M67.9625 288.998C67.3859 288.913 66.7994 289.061 66.3319 289.408C65.8644 289.755 65.5543 290.273 65.4697 290.849L56.5028 351.833C56.4609 352.118 56.4756 352.409 56.5462 352.688C56.6167 352.967 56.7417 353.23 56.914 353.461C57.0862 353.692 57.3024 353.887 57.5502 354.034C57.798 354.182 58.0726 354.28 58.3582 354.321C58.6438 354.363 58.9349 354.349 59.2148 354.278C59.4947 354.208 59.7579 354.083 59.9895 353.911C60.2211 353.739 60.4164 353.524 60.5644 353.276C60.7125 353.029 60.8102 352.755 60.8521 352.47L69.8189 291.486C69.8609 291.201 69.8462 290.91 69.7755 290.631C69.7049 290.351 69.5798 290.089 69.4074 289.858C69.235 289.627 69.0187 289.432 68.7707 289.284C68.5228 289.137 68.2482 289.039 67.9625 288.998Z" fill="white"/>
<path d="M44.9961 348.513C44.709 348.483 44.4188 348.51 44.142 348.591C43.8653 348.673 43.6074 348.809 43.3831 348.99C43.1588 349.171 42.9724 349.395 42.8347 349.648C42.697 349.901 42.6107 350.179 42.5805 350.465C42.5504 350.751 42.577 351.041 42.6589 351.317C42.7409 351.593 42.8767 351.85 43.0583 352.074C43.24 352.298 43.4641 352.484 43.7178 352.621C43.9714 352.759 44.2497 352.845 44.5368 352.875L58.0193 354.288L75.4572 363.612C75.7115 363.748 75.9903 363.832 76.2775 363.861C76.5647 363.89 76.8547 363.862 77.1311 363.779C77.4074 363.695 77.6646 363.559 77.8879 363.376C78.1113 363.194 78.2965 362.969 78.4329 362.716C78.5693 362.462 78.6542 362.184 78.6828 361.897C78.7115 361.61 78.6832 361.321 78.5997 361.045C78.5162 360.77 78.379 360.513 78.1961 360.29C78.0132 360.067 77.7881 359.883 77.5336 359.747L59.7158 350.22C59.4648 350.086 59.19 350.001 58.9067 349.971L44.9961 348.513Z" fill="white"/>
<path d="M53.7184 270.548C53.1729 270.753 52.7311 271.165 52.4902 271.695C52.2493 272.224 52.2291 272.827 52.4339 273.372L55.6039 281.797C55.7609 282.214 56.042 282.575 56.4096 282.829C56.7772 283.083 57.2138 283.219 57.661 283.22H63.21C63.7929 283.22 64.3519 282.989 64.764 282.577C65.1762 282.166 65.4077 281.608 65.4077 281.027C65.4077 280.445 65.1762 279.887 64.764 279.476C64.3519 279.065 63.7929 278.834 63.21 278.834H59.1838L56.5482 271.83C56.3432 271.286 55.93 270.845 55.3993 270.605C54.8687 270.364 54.264 270.344 53.7184 270.548Z" fill="white"/>
<path d="M37.6035 337.196L28.8781 339.246C28.5972 339.312 28.332 339.432 28.0978 339.6C27.8636 339.769 27.6648 339.981 27.513 340.226C27.3611 340.471 27.2591 340.743 27.2127 341.027C27.1663 341.312 27.1765 341.602 27.2427 341.883C27.3088 342.163 27.4296 342.427 27.5983 342.661C27.7669 342.895 27.9801 343.093 28.2255 343.244C28.4709 343.396 28.7439 343.498 29.0287 343.544C29.3136 343.59 29.6048 343.58 29.8857 343.514L37.0294 341.835L42.8692 351.8C43.1632 352.302 43.6451 352.667 44.2087 352.814C44.7724 352.962 45.3717 352.88 45.8749 352.587C46.1242 352.442 46.3423 352.249 46.5169 352.019C46.6914 351.79 46.8189 351.529 46.8922 351.25C46.9654 350.971 46.983 350.681 46.9438 350.396C46.9045 350.111 46.8094 349.836 46.6637 349.587L40.004 338.223C39.7665 337.818 39.4053 337.5 38.9732 337.315C38.5412 337.131 38.0611 337.089 37.6035 337.196Z" fill="white"/>
<path d="M58.3583 278.948C57.8056 278.763 57.2021 278.805 56.6805 279.065C56.1589 279.324 55.7619 279.78 55.5769 280.331L36.0228 338.635C35.8378 339.186 35.88 339.788 36.14 340.309C36.4 340.829 36.8566 341.225 37.4092 341.41C37.9619 341.594 38.5655 341.552 39.0871 341.293C39.6087 341.033 40.0057 340.578 40.1907 340.027L59.7448 281.723C59.9297 281.171 59.8876 280.569 59.6275 280.049C59.3675 279.529 58.911 279.132 58.3583 278.948Z" fill="white"/>
<path d="M204.641 505.316C204.08 505.473 203.604 505.845 203.318 506.352C203.032 506.858 202.959 507.458 203.115 508.018C204.57 513.216 206.936 518.021 208.916 521.995C210.895 525.969 212.369 529.394 212.416 530.366C212.609 534.312 213.001 541.886 212.713 549.073C212.569 552.666 212.252 556.162 211.683 558.985C211.114 561.808 210.189 563.924 209.461 564.684C206.414 567.862 204.098 568.147 202.415 567.951C200.731 567.754 199.786 566.989 199.786 566.989C199.331 566.625 198.751 566.455 198.172 566.518C197.592 566.581 197.061 566.87 196.696 567.323C196.515 567.548 196.38 567.805 196.299 568.082C196.218 568.358 196.192 568.648 196.223 568.934C196.254 569.22 196.341 569.498 196.48 569.751C196.618 570.003 196.805 570.226 197.03 570.407C197.03 570.407 198.98 571.966 201.905 572.307C204.829 572.648 208.835 571.683 212.639 567.714C214.491 565.78 215.349 563.041 215.992 559.85C216.634 556.659 216.956 552.982 217.105 549.249C217.404 541.782 216.998 534.082 216.806 530.156C216.655 527.05 214.821 523.998 212.852 520.045C210.882 516.093 208.658 511.521 207.349 506.841C207.192 506.281 206.819 505.806 206.311 505.52C205.803 505.235 205.203 505.162 204.641 505.318V505.316Z" fill="white"/>
<path d="M180.126 516.788C179.84 516.756 179.549 516.781 179.272 516.861C178.995 516.94 178.736 517.074 178.51 517.254C178.055 517.617 177.763 518.145 177.697 518.723C177.632 519.301 177.8 519.881 178.164 520.335C190.693 535.998 195.096 558.604 199.737 591.544C200.166 594.582 201.749 597.019 203.968 598.412C206.186 599.804 208.884 600.202 211.621 599.911C217.095 599.328 222.991 596.046 226.952 590.623C228.774 588.128 229.211 584.631 229.467 580.361C229.722 576.091 229.577 571.102 229.253 566.155C228.605 556.261 227.239 546.6 226.758 543.645C225.575 536.376 219.07 530.392 215.913 527.752C215.692 527.566 215.437 527.427 215.161 527.34C214.886 527.254 214.596 527.222 214.308 527.247C214.021 527.273 213.741 527.354 213.485 527.487C213.229 527.621 213.002 527.803 212.816 528.023C212.442 528.469 212.26 529.045 212.311 529.624C212.363 530.203 212.642 530.739 213.089 531.112C215.856 533.427 221.623 539.459 222.418 544.348C222.866 547.1 224.232 556.763 224.866 566.44C225.183 571.278 225.316 576.134 225.079 580.099C224.842 584.064 224.017 587.192 223.399 588.039C220.19 592.433 215.164 595.122 211.154 595.549C209.149 595.762 207.463 595.424 206.307 594.699C205.151 593.973 204.369 592.913 204.089 590.932C199.434 557.894 195.089 534.464 181.598 517.599C181.418 517.373 181.195 517.186 180.942 517.047C180.69 516.907 180.412 516.819 180.125 516.787L180.126 516.788Z" fill="white"/>
<path d="M96.0158 473.529C95.0084 473.43 94.0828 473.974 93.5917 474.506C93.7253 474.361 93.5125 474.574 93.23 474.794C92.9448 475.016 92.537 475.318 92.0335 475.679C91.0265 476.401 89.6303 477.36 87.9515 478.462C84.5938 480.666 80.101 483.445 75.247 486.117C70.393 488.789 65.1712 491.355 60.3985 493.132C55.6259 494.909 51.2657 495.832 48.4871 495.524C45.4813 495.19 42.407 493.547 39.9205 491.892C38.6773 491.065 37.5882 490.251 36.6572 489.602C36.1917 489.278 35.773 488.994 35.3212 488.749C34.8697 488.503 34.4633 488.137 33.3263 488.252C30.5124 488.536 28.4146 490.291 24.8842 492.736C21.3529 495.181 16.4547 498.539 8.88642 502.584C6.20444 504.018 4.24563 505.25 2.81695 506.427C1.38828 507.604 0.350987 508.737 0.0547908 510.348C-0.241461 511.96 0.711304 513.553 1.76538 514.39C2.8194 515.227 4.0421 515.746 5.42144 516.251C10.6739 518.166 20.9964 519.276 31.3594 520.091C41.7223 520.906 51.7886 521.293 55.8121 521.241C58.5165 521.206 61.4834 519.987 64.9356 518.348C68.3877 516.709 72.1752 514.573 75.7149 512.446C78.8718 510.548 81.6452 508.753 83.9574 507.238L79.1628 524.663C79.0164 525.194 79.0758 525.761 79.3293 526.251C79.5827 526.74 80.0116 527.117 80.5306 527.305C81.0496 527.493 81.6206 527.48 82.1301 527.267C82.6397 527.055 83.0503 526.658 83.2803 526.157C83.2803 526.157 86.8434 518.408 90.5022 510.258C92.3316 506.183 94.1842 502.008 95.6328 498.641C96.357 496.957 96.9803 495.475 97.4528 494.297C97.9253 493.118 98.2296 492.374 98.41 491.611C99.7621 485.873 99.9254 481.47 99.4626 478.453C99.2312 476.945 98.9392 475.794 98.1159 474.747C97.7042 474.223 97.0243 473.629 96.0169 473.529H96.0158ZM95.0565 478.901C95.0834 479.028 95.0949 478.974 95.1166 479.116C95.4532 481.31 95.3825 485.294 94.1304 490.607C94.1238 490.635 93.8197 491.549 93.3706 492.669C92.9213 493.79 92.3084 495.248 91.5925 496.912C91.0262 498.229 90.2431 499.962 89.574 501.482C89.4623 501.179 89.2848 500.904 89.0543 500.677C88.8237 500.45 88.5458 500.277 88.2404 500.17C87.935 500.063 87.6096 500.024 87.2875 500.057C86.9654 500.09 86.6546 500.193 86.3772 500.36C86.3772 500.36 80.3763 504.524 73.4453 508.69C69.9798 510.772 66.2836 512.852 63.0459 514.389C59.8081 515.926 56.8792 516.842 55.7541 516.857C52.1241 516.903 41.9488 516.526 31.7027 515.72C21.4581 514.914 10.8061 513.546 6.93123 512.134C5.76413 511.707 4.89472 511.257 4.53177 510.976C4.57078 510.935 4.69297 510.571 5.61453 509.812C6.66756 508.944 8.42695 507.807 10.9618 506.451C18.7281 502.3 23.8418 498.798 27.3899 496.341C30.6833 494.06 32.5634 492.978 33.4604 492.756C33.6465 492.87 33.8369 492.985 34.1429 493.198C34.9692 493.774 36.1204 494.636 37.4835 495.543C40.2097 497.357 43.8114 499.417 48.0031 499.884C52.0979 500.337 56.854 499.134 61.9373 497.241C67.0208 495.348 72.3948 492.699 77.3728 489.959C82.3509 487.218 86.9256 484.387 90.3692 482.127C92.0909 480.997 93.5282 480.01 94.6004 479.241C94.7846 479.109 94.8962 479.021 95.0586 478.902L95.0565 478.901Z" fill="white"/>
<path d="M75.1719 442.914C74.5994 442.805 74.0069 442.927 73.5247 443.254C73.0426 443.58 72.7102 444.085 72.6007 444.656C71.8287 448.682 69.1837 456.237 63.3485 461.86C57.8887 467.125 33.5667 489.554 33.5667 489.554C33.1385 489.948 32.885 490.497 32.8618 491.078C32.8387 491.659 33.0478 492.225 33.4433 492.652C33.8389 493.079 34.3883 493.332 34.9707 493.355C35.5531 493.378 36.1208 493.169 36.5488 492.774C36.5488 492.774 60.7418 470.471 66.4025 465.013C73.1487 458.512 75.9977 450.278 76.9178 445.479C77.0272 444.908 76.9047 444.317 76.5773 443.836C76.2499 443.355 75.7444 443.023 75.1719 442.914Z" fill="white"/>
<path d="M101.576 456.379C101.307 456.276 101.019 456.227 100.731 456.235C100.442 456.243 100.158 456.307 99.8945 456.425C99.6309 456.542 99.3931 456.71 99.1947 456.92C98.9963 457.129 98.8411 457.375 98.7381 457.644C98.7381 457.644 97.5107 460.847 96.256 464.643C95.0014 468.439 93.6796 472.62 93.5518 475.612C93.5394 475.9 93.584 476.187 93.6829 476.458C93.7819 476.728 93.9333 476.977 94.1286 477.189C94.3238 477.401 94.559 477.573 94.8207 477.694C95.0825 477.816 95.3656 477.884 95.654 477.897C96.2363 477.921 96.8046 477.714 97.2338 477.321C97.6631 476.928 97.9181 476.38 97.943 475.799C98.013 474.159 99.2125 469.701 100.43 466.016C101.648 462.331 102.844 459.21 102.844 459.21C103.052 458.666 103.035 458.063 102.798 457.532C102.56 457.001 102.121 456.587 101.576 456.379Z" fill="white"/>
<path d="M287.748 329.749C287.46 329.726 287.171 329.76 286.896 329.849C286.622 329.938 286.367 330.08 286.148 330.267C285.928 330.454 285.748 330.683 285.617 330.939C285.486 331.196 285.406 331.476 285.384 331.763C285.361 332.05 285.395 332.339 285.484 332.613C285.574 332.887 285.716 333.14 285.903 333.36C286.091 333.579 286.32 333.758 286.577 333.889C286.834 334.02 287.115 334.099 287.402 334.122L379.626 341.384V524.189L356.198 542.847L224.645 542.051C224.063 542.048 223.502 542.276 223.088 542.684C222.673 543.093 222.438 543.649 222.435 544.23C222.433 544.518 222.488 544.804 222.597 545.071C222.705 545.337 222.866 545.58 223.069 545.785C223.272 545.99 223.513 546.153 223.779 546.265C224.045 546.377 224.331 546.435 224.619 546.437L356.949 547.237C357.452 547.24 357.94 547.071 358.333 546.758L383.195 526.957C383.453 526.752 383.661 526.491 383.804 526.195C383.947 525.898 384.021 525.573 384.021 525.244V339.358C384.021 338.806 383.813 338.275 383.438 337.87C383.062 337.464 382.548 337.215 381.996 337.172L287.748 329.749ZM115.884 439.926C115.596 439.906 115.307 439.942 115.033 440.033C114.759 440.125 114.506 440.269 114.288 440.458C114.07 440.647 113.892 440.877 113.763 441.134C113.634 441.392 113.558 441.673 113.537 441.96L106.412 543.389C106.391 543.688 106.432 543.988 106.532 544.27C106.631 544.553 106.788 544.812 106.992 545.032C107.196 545.252 107.444 545.428 107.718 545.548C107.993 545.669 108.29 545.732 108.59 545.734L192.603 546.244C192.892 546.246 193.178 546.191 193.446 546.082C193.713 545.974 193.956 545.814 194.162 545.612C194.367 545.409 194.53 545.169 194.643 544.903C194.755 544.638 194.813 544.353 194.815 544.065C194.817 543.777 194.762 543.492 194.653 543.225C194.544 542.958 194.383 542.716 194.181 542.511C193.978 542.306 193.736 542.143 193.47 542.032C193.204 541.92 192.919 541.861 192.63 541.86L110.961 541.363L117.922 442.266C117.963 441.686 117.771 441.114 117.389 440.675C117.007 440.236 116.465 439.967 115.884 439.926Z" fill="white"/>
<path d="M187.031 352.555C186.449 352.527 185.879 352.731 185.448 353.122C185.016 353.513 184.758 354.059 184.73 354.64C184.702 355.22 184.907 355.789 185.298 356.219C185.69 356.65 186.237 356.907 186.82 356.935L356.063 365.035L354.764 545.029C354.76 545.61 354.988 546.169 355.397 546.583C355.806 546.997 356.363 547.232 356.946 547.237C357.234 547.239 357.521 547.184 357.788 547.076C358.055 546.967 358.299 546.808 358.505 546.606C358.71 546.404 358.874 546.163 358.986 545.898C359.099 545.632 359.158 545.348 359.16 545.06L360.473 362.962C360.477 362.396 360.262 361.85 359.872 361.439C359.482 361.027 358.947 360.782 358.381 360.755L187.031 352.555Z" fill="white"/>
<path d="M381.819 337.166C381.236 337.166 380.678 337.398 380.266 337.81L356.718 361.399C356.307 361.811 356.077 362.369 356.078 362.95C356.079 363.532 356.312 364.089 356.725 364.499C357.138 364.91 357.697 365.14 358.28 365.138C358.863 365.137 359.421 364.905 359.833 364.493L383.381 340.905C383.792 340.493 384.022 339.935 384.021 339.353C384.02 338.772 383.787 338.215 383.374 337.805C382.961 337.394 382.402 337.164 381.819 337.166Z" fill="white"/>
<path d="M46.6896 129.738C37.0571 129.738 29.0145 136.946 29.0145 146.031C29.0145 155.116 37.0571 162.325 46.6896 162.325C56.322 162.325 64.3646 155.116 64.3646 146.031C64.3646 136.946 56.322 129.738 46.6896 129.738ZM46.6896 134.123C54.1529 134.123 59.9692 139.541 59.9692 146.031C59.9692 152.521 54.1529 157.94 46.6896 157.94C39.2262 157.94 33.41 152.521 33.41 146.031C33.41 139.541 39.2262 134.123 46.6896 134.123Z" fill="white"/>
<path d="M107.55 102.177C107.261 102.16 106.973 102.199 106.7 102.293C106.427 102.387 106.175 102.534 105.959 102.725L76.0132 129.211L43.0647 108.887C42.8192 108.735 42.5462 108.634 42.2614 108.587C41.9765 108.541 41.6853 108.552 41.4043 108.618C41.1234 108.684 40.8584 108.804 40.6242 108.973C40.39 109.141 40.1914 109.354 40.0396 109.599C39.8878 109.844 39.7859 110.116 39.7396 110.4C39.6934 110.684 39.7036 110.975 39.7699 111.255C39.8361 111.535 39.9571 111.8 40.1258 112.034C40.2945 112.267 40.5077 112.465 40.7532 112.617L75.0925 133.799C75.4945 134.047 75.966 134.158 76.4369 134.118C76.9078 134.077 77.353 133.887 77.7066 133.574L108.875 106.007C109.311 105.621 109.576 105.078 109.611 104.497C109.646 103.917 109.448 103.346 109.062 102.911C108.675 102.476 108.131 102.212 107.55 102.177Z" fill="white"/>
<path d="M73.5311 54.5647C73.0099 54.5357 72.5019 54.5571 72.0052 54.6322C71.5085 54.7072 71.019 54.818 70.4599 55.1429C69.9008 55.4677 69.1145 56.2522 69.0638 57.3463C69.0435 57.7845 68.8809 59.3441 68.7236 60.9191C68.5663 62.4945 68.4081 64.1199 68.4081 65.3194C68.4081 66.2132 69.0992 67.3623 69.8869 67.7734C70.6745 68.1845 71.3242 68.1677 71.9011 68.1139C73.0547 68.0061 74.1022 67.5877 75.1891 66.9779C77.3626 65.7583 79.8023 63.6572 79.9815 60.4073C79.9815 60.4055 79.9815 60.4038 79.9815 60.4019C80.0658 58.8095 79.3301 57.325 78.3483 56.4244C77.3665 55.5238 76.2238 55.0633 75.1322 54.8035C74.5864 54.6736 74.0523 54.5939 73.5311 54.5647ZM73.3165 59.0144C73.5926 59.0248 73.8056 58.9974 74.1117 59.07C74.6697 59.2029 75.1601 59.4566 75.3736 59.6525C75.5859 59.8472 75.6083 59.8456 75.5915 60.1685C75.5437 61.0027 74.394 62.3917 73.0343 63.1546C73.0024 63.1727 72.9936 63.1649 72.9613 63.1824C73.0141 62.5203 73.0253 62.0669 73.0965 61.3537C73.1915 60.403 73.2455 59.7624 73.3165 59.0144Z" fill="white"/>
<path d="M85.3586 53.4545C84.7854 53.3495 84.1939 53.4759 83.7142 53.806C83.2344 54.136 82.9057 54.6428 82.8003 55.2147L80.8998 65.5422C80.8476 65.8255 80.8518 66.1163 80.9122 66.3979C80.9725 66.6796 81.0879 66.9464 81.2517 67.1835C81.4156 67.4207 81.6246 67.6234 81.867 67.7799C82.1093 67.9364 82.3801 68.0437 82.664 68.0957C82.9479 68.1477 83.2393 68.1433 83.5215 68.0829C83.8037 68.0225 84.0712 67.9073 84.3088 67.7437C84.5464 67.5802 84.7493 67.3715 84.906 67.1297C85.0628 66.8879 85.1702 66.6177 85.2223 66.3345L87.1238 56.007C87.1759 55.7237 87.1715 55.4331 87.111 55.1515C87.0505 54.8699 86.9349 54.6029 86.771 54.3659C86.6071 54.1289 86.398 53.9265 86.1557 53.7701C85.9133 53.6137 85.6424 53.5065 85.3586 53.4545Z" fill="white"/>
<path d="M93.643 52.9055C92.6641 52.8956 91.7409 53.1129 90.9162 53.5907C90.0915 54.0685 89.3874 54.8684 89.0973 55.8487C88.8075 56.8282 88.9607 57.9004 89.4021 58.7823C89.402 58.7823 89.4023 58.7826 89.4021 58.7823C90.2 60.3775 91.4235 61.2104 92.1557 61.8604C92.3784 62.0581 92.4402 62.1391 92.556 62.263C92.4991 62.3162 92.4815 62.4412 92.3875 62.475C92.1774 62.5505 91.8449 62.5645 91.4421 62.3005C90.955 61.9812 90.3607 61.8681 89.79 61.986C89.2192 62.1038 88.7189 62.443 88.3988 62.9289C88.0788 63.4149 87.9654 64.0078 88.0835 64.5772C88.2017 65.1466 88.5417 65.646 89.0287 65.9653C90.5159 66.9401 92.3203 67.1605 93.878 66.6002C95.4348 66.0403 96.7322 64.6205 97.0791 62.8369C97.2902 61.7588 96.8935 60.7106 96.4503 60.0596C96.0066 59.4079 95.5211 58.9779 95.0777 58.5842C94.4697 58.0445 94.1995 57.7255 93.8823 57.3765C94.1932 57.4006 94.5393 57.4334 95.0381 57.6378C95.5773 57.8585 96.1823 57.8564 96.72 57.6321C97.2577 57.4079 97.684 56.9798 97.9054 56.4418C98.1266 55.904 98.1248 55.3006 97.9003 54.7641C97.6757 54.2277 97.2467 53.8021 96.7078 53.581C95.6565 53.1503 94.6209 52.9132 93.6419 52.9033L93.643 52.9055Z" fill="white"/>
<path d="M104.212 52.0549C102.515 52.2324 100.946 52.9827 99.7061 54.0838C98.053 55.552 96.9135 57.8941 97.4633 60.3857C97.4633 60.3875 97.4633 60.3892 97.4633 60.3911C98.4278 64.7286 102.383 66.9201 105.752 66.224C106.035 66.1656 106.303 66.0524 106.542 65.8905C106.78 65.7286 106.985 65.5214 107.143 65.2807C107.302 65.0401 107.411 64.7705 107.465 64.4877C107.519 64.2048 107.517 63.9139 107.458 63.6319C107.34 63.0627 107 62.5636 106.513 62.2444C106.026 61.9251 105.432 61.8119 104.861 61.9296C104.198 62.0667 102.221 61.5287 101.756 59.4446C101.597 58.7242 101.881 58.0271 102.628 57.3633C103.376 56.699 104.517 56.3171 105.374 56.4286C105.952 56.5036 106.536 56.3466 106.998 55.992C107.46 55.6374 107.762 55.1143 107.837 54.5378C107.912 53.9612 107.755 53.3787 107.399 52.9179C107.044 52.4571 106.52 52.1558 105.942 52.0806C105.355 52.0043 104.777 51.999 104.211 52.0582L104.212 52.0549Z" fill="white"/>
<path d="M114.332 51.9473C113.968 51.9473 113.601 51.9873 113.233 52.0768C113.229 52.0786 113.225 52.0803 113.221 52.0822C110.635 52.7246 109.424 54.9046 108.724 56.8873C108.373 57.8786 108.168 58.8814 108.187 59.9044C108.206 60.9273 108.402 62.1872 109.61 63.0971C111.55 64.557 114.07 64.3313 115.819 63.3305C117.568 62.3298 118.921 60.6199 119.181 58.4494C119.444 56.2503 118.689 54.3038 117.429 53.2021C116.483 52.3757 115.424 51.9566 114.332 51.9494L114.332 51.9473ZM114.264 56.3552C114.201 56.3853 114.402 56.3842 114.533 56.4986C114.69 56.6356 114.949 56.8263 114.818 57.9269C114.759 58.42 114.251 59.1711 113.634 59.5243C113.191 59.7775 112.889 59.7998 112.602 59.7138C112.609 59.3869 112.681 58.8746 112.869 58.3423C113.267 57.2151 114.154 56.4011 114.264 56.3541V56.3552Z" fill="white"/>
<path d="M130.287 49.8773C129.715 49.7689 129.122 49.8919 128.641 50.2191C128.159 50.5464 127.827 51.0512 127.718 51.6225C127.718 51.6225 127.356 53.5323 126.974 55.66C126.591 57.7876 126.198 59.9693 126.095 61.1556C126.07 61.4425 126.102 61.7314 126.189 62.006C126.276 62.2806 126.416 62.5353 126.602 62.7557C126.788 62.9761 127.015 63.1581 127.271 63.2908C127.528 63.4235 127.807 63.5045 128.095 63.5293C128.382 63.5541 128.672 63.5222 128.947 63.4353C129.223 63.3485 129.478 63.2084 129.699 63.0231C129.92 62.8378 130.102 62.6109 130.235 62.3553C130.368 62.0997 130.449 61.8205 130.474 61.5336C130.52 61.0096 130.923 58.5345 131.3 56.433C131.678 54.3314 132.038 52.4394 132.038 52.4394C132.146 51.8681 132.022 51.2772 131.694 50.7968C131.366 50.3163 130.86 49.9856 130.287 49.8773Z" fill="white"/>
<path d="M123.469 49.915C123.19 49.8398 122.899 49.82 122.613 49.8569C122.327 49.8938 122.051 49.9866 121.8 50.1299C121.55 50.2733 121.331 50.4645 121.154 50.6926C120.978 50.9206 120.848 51.1809 120.773 51.4589C120.346 53.0343 119.731 56.1159 120.466 59.082C120.834 60.565 121.87 62.371 123.835 62.841C125.799 63.3111 127.691 62.5061 129.863 60.9685C130.099 60.8019 130.299 60.5908 130.453 60.3469C130.607 60.1031 130.711 59.8314 130.759 59.5474C130.807 59.2635 130.799 58.9728 130.735 58.692C130.671 58.4111 130.552 58.1456 130.385 57.9107C130.218 57.6757 130.006 57.4758 129.762 57.3226C129.517 57.1694 129.245 57.0657 128.96 57.0175C128.676 56.9692 128.384 56.9774 128.103 57.0416C127.821 57.1057 127.555 57.2247 127.32 57.3914C125.624 58.5919 124.79 58.56 124.859 58.5766C124.929 58.5931 124.904 58.7193 124.733 58.0295C124.391 56.6499 124.795 53.4191 125.016 52.6045C125.091 52.3265 125.111 52.0365 125.074 51.7509C125.037 51.4653 124.944 51.1896 124.801 50.9399C124.657 50.6901 124.465 50.4712 124.237 50.2954C124.008 50.1195 123.747 49.9902 123.469 49.915Z" fill="white"/>
<path d="M142.549 46.0518C141.966 46.0342 141.4 46.2483 140.976 46.6468C140.551 47.0454 140.303 47.5958 140.285 48.177C140.285 48.177 140.209 50.673 140.024 53.0978C140 53.4038 139.963 53.6037 139.936 53.9018C139.673 53.6439 139.459 53.4321 139.189 53.1706C138.388 52.3968 137.597 51.6525 136.819 51.0699C136.43 50.7786 136.081 50.5157 135.476 50.2937C135.173 50.1827 134.78 50.0531 134.167 50.1321C133.553 50.2111 132.738 50.708 132.388 51.2959C132.388 51.2977 132.388 51.2994 132.388 51.3012C132.042 51.8853 132.011 52.1922 131.921 52.5849C131.83 52.9777 131.758 53.3992 131.69 53.859C131.554 54.7786 131.439 55.8455 131.34 56.889C131.241 57.9325 131.159 58.949 131.094 59.7241C131.062 60.1116 131.033 60.4401 131.012 60.6694C130.99 60.8987 130.887 61.2993 131.012 60.8033C130.94 61.0822 130.924 61.3726 130.965 61.6577C131.006 61.9427 131.103 62.2169 131.25 62.4647C131.397 62.7124 131.591 62.929 131.822 63.1017C132.053 63.2744 132.316 63.3999 132.596 63.4713C132.875 63.5428 133.166 63.5587 133.452 63.5179C133.738 63.4772 134.012 63.3807 134.261 63.2339C134.509 63.0872 134.726 62.8931 134.899 62.6627C135.072 62.4324 135.198 62.17 135.27 61.8911C135.426 61.2828 135.36 61.3514 135.386 61.0827C135.411 60.814 135.439 60.4781 135.472 60.087C135.537 59.3049 135.619 58.3075 135.714 57.3022C135.756 56.8624 135.808 56.4999 135.855 56.0763C135.96 56.1766 136.024 56.2194 136.13 56.3226C136.886 57.0529 137.671 57.8428 138.353 58.4971C138.694 58.8242 139.006 59.116 139.31 59.3729C139.614 59.6297 139.676 59.8576 140.587 60.1534C140.59 60.1552 140.592 60.1572 140.595 60.159C141.544 60.4631 142.698 59.8833 143.068 59.4695C143.439 59.0557 143.534 58.7719 143.633 58.5145C143.83 57.9997 143.915 57.5532 144.005 57.0306C144.185 55.9852 144.308 54.7151 144.405 53.4353C144.601 50.8758 144.678 48.3143 144.678 48.3143C144.695 47.7331 144.481 47.1688 144.081 46.7453C143.682 46.3219 143.13 46.074 142.548 46.0563L142.549 46.0518Z" fill="white"/>
<path d="M154.92 46.0972C155.12 46.0578 154.298 46.1618 153.477 46.215C152.656 46.2682 151.632 46.3233 150.635 46.3724C148.64 46.4704 146.76 46.5459 146.76 46.5459C146.471 46.5573 146.188 46.6254 145.926 46.7461C145.664 46.8668 145.428 47.0377 145.232 47.2493C145.036 47.4608 144.884 47.7087 144.785 47.9789C144.685 48.2491 144.639 48.5365 144.651 48.8242C144.662 49.112 144.731 49.3946 144.852 49.6561C144.972 49.9176 145.144 50.1527 145.356 50.348C145.568 50.5434 145.817 50.6952 146.087 50.7947C146.358 50.8943 146.646 50.9395 146.934 50.928C146.934 50.928 148.831 50.8517 150.85 50.7525C151.86 50.7026 152.901 50.6477 153.763 50.5919C154.624 50.5361 155.1 50.5328 155.773 50.4002C156.056 50.3444 156.325 50.2334 156.565 50.0737C156.806 49.9139 157.012 49.7086 157.173 49.4693C157.333 49.23 157.445 48.9613 157.502 48.6789C157.558 48.3964 157.558 48.1057 157.502 47.8231C157.389 47.2527 157.054 46.7504 156.57 46.4267C156.085 46.1031 155.492 45.9845 154.92 46.0972Z" fill="white"/>
<path d="M151.314 46.3626C151.027 46.3338 150.736 46.3615 150.46 46.4445C150.184 46.5275 149.926 46.664 149.703 46.8463C149.479 47.0285 149.294 47.2532 149.157 47.5069C149.021 47.7606 148.936 48.0386 148.907 48.3251C148.907 48.3251 148.652 50.8601 148.364 53.5713C148.075 56.2826 147.698 59.4424 147.643 59.7351C147.59 60.0182 147.593 60.309 147.652 60.5908C147.712 60.8727 147.827 61.1401 147.99 61.3778C148.153 61.6154 148.361 61.8185 148.603 61.9757C148.845 62.1329 149.116 62.2411 149.399 62.294C149.972 62.4007 150.564 62.276 151.045 61.9473C151.526 61.6187 151.856 61.1129 151.963 60.5413C152.177 59.3978 152.445 56.7605 152.734 54.0339C153.024 51.3072 153.281 48.7641 153.281 48.7641C153.31 48.4775 153.282 48.1882 153.199 47.9124C153.115 47.6366 152.978 47.3798 152.796 47.1568C152.613 46.9338 152.388 46.7489 152.134 46.6126C151.88 46.4763 151.601 46.3914 151.314 46.3626Z" fill="white"/>
</g>
<defs>
<clipPath id="clip0_2_4">
<rect width="422.449" height="600" fill="white"/>
</clipPath>
</defs>
</svg>
